<svg xmlns="http://www.w3.org/2000/svg" width="397.79" height="433.11" viewBox="0 0 397.79 433.11"><title>bootcamp</title><path d="M348.48,290.19H337a1.92,1.92,0,0,1-.89-1.85c.34-9.45-1.94-18.79-.92-28.33-1.58-.06-1.68,1.2-1.83,1.81-2,8.49-5.43,16.49-8.18,24.72-.75,2.23-1.86,2.87-3.94,2.79s-4.3,0-6.82,0c-4.15-9.59-7.13-19.52-10-30.24-1.56,10.66-1.61,20.71-2.65,30.94H290.06c.1-3.12-.43-6,.52-9,1.16-3.63.64-7.51,1.12-11.26.58-4.53,1.13-9.16,1.48-13.77.35-4.8.33-9.8,1.89-14.56h14.49c3.46,10.86,6.9,21.68,10.66,33.5,2.92-12,6.31-22.71,9.89-33.46h14.35c1.42,3.1.78,6.7,1.2,10,.57,4.53,1,9.2,1.5,13.75.77,6.71.14,13.52,1.71,20.15A7.16,7.16,0,0,1,348.48,290.19ZM235.59,242.61c-.78,2.76-1.45,5.09-2.18,7.64-2.72,0-5.36.09-8,0-6.48-.25-10.88,3.85-12.47,9.79a20,20,0,0,0,1.24,14.84,11,11,0,0,0,10.32,6.42c3,.08,5.93,0,9.08,0,.72,2.43,0,4.91,1.47,6.27a2.68,2.68,0,0,1-2.43,2.31c-9.8,1-19.53,1.25-27.85-5.4-3.21-2.56-5-6-6.16-9.93A26.6,26.6,0,0,1,202,251.18c2.17-3.33,5.53-5.15,8.92-6.86,6.91-3.48,14.37-3.29,21.82-2.93C233.69,241.43,234.56,242.15,235.59,242.61Zm-79.35,7.32v-8.36h39.18c1.18,2.51.16,5.3.66,8.24-4.34,1.05-8.51,0-13,.76V290H169.66l-.21-.22a1.4,1.4,0,0,1-.31-.38,1.12,1.12,0,0,1-.08-.49V250.87C164.88,249.56,160.69,250.88,156.24,249.93ZM396,212.74c-.06-2.86-.59-3.33-3.65-3.4-4-.08-8,0-12,0H367v-5.85c0-33,.09-66,0-99,0-10.54-4.63-19-13.14-25.32-4.26-3.19-9-5.46-13.62-7.87C333,67.58,326,63.64,318.93,59.65c-3.57-2-7.42-3.43-10.92-5.66a121.14,121.14,0,0,0-16.79-9.44c-9.24-4-17.52-9.73-26.59-14-7-3.29-13.41-7.81-20.41-11.13-4.46-2.12-8.82-4.41-13.14-6.76-6.21-3.38-12.27-7-18.78-9.85-6.83-3-14-3.29-20.94-2.29-6.1.87-12,3.61-17.35,6.82-10.89,6.5-22.37,11.88-33.38,18.12-6.16,3.49-12.58,6.48-18.71,10-7.72,4.39-15.65,8.38-23.43,12.66-7.34,4-14.72,8-22.08,12-6.22,3.39-12.32,7-18.68,10.13a99.57,99.57,0,0,0-15.36,8.81C33.58,85.48,29.08,94,29,104.79c-.11,33,0,66-.07,99,0,1.76.54,3.64-.69,5.54H3.89c-3.33,0-3.79.48-3.85,3.7,0,4.29,0,8.58,0,13H396C396,221.35,396,217,396,212.74ZM88.52,147A23.82,23.82,0,0,1,83,157.17c-3.81,3.92-8.21,7.31-11,12.17a3.28,3.28,0,0,0-.07.81l9.73-3.82c-2.68,5.11-7.94,7.48-9.63,12.45.71.73,1.44-.25,3.14-.32-6.18,7-9.82,14.14-8.46,23.39,2.36-3.41,3.64-7.35,8.1-9.69-2.5,5.17-4.29,9.84-7.33,13.89-.17.22-.95,0-1.72-.06V128.28H96.14C93.76,137.14,88,143.46,81.08,150A13.39,13.39,0,0,0,88.52,147Zm22-1.69c-3.88-7.62-4.26-11.84-4.79-13.12,2.34-.76,14.33-1.83,17.51-1.51-3,6.37-8.53,9.7-12.7,14.65Zm5.4-20.19a3.3,3.3,0,0,1-2.69,1,21.26,21.26,0,0,0-4,0c-4.07.59-7.12-.6-8.85-4.54-.18-.4-.73-.65-1.47-1.29-.69,1.67-.85,3.49-2.2,4.64H65.88c-.69-1.76-.27-3.4-.38-4.92,1.57-1.73,3.48-1.9,5.52-1.89,6.49,0,13-.15,19.46,0,9.28.23,18.52-.51,27.76-1,1.58-.09,3.17,0,5.72,0-3.13,3.13-5.59,5.56-8,8ZM66.23,114c-1-1.26-.93-2.31-.08-3.74h28c-1.8-2-1.8-2.07-3.48-2.08-6.83,0-13.66,0-20.49-.07a20.28,20.28,0,0,1-3.49-.1c-1.33-.25-1.27-1.27-.84-2.37,1.5-.94,3.2-.46,4.82-.47,7.49-.07,15,.5,22.47-.18,9.58-.86,19.16-.7,28.82-.89-.25-1.2-1-.93-1.49-.93-17.28,0-34.51-1.69-51.8-1-.49,0-1-.07-2.34-.17L197.22,31.55l61.2,33a8.94,8.94,0,0,1-4.93.57c-13.46-.62-26.83,1.64-40.62.94,1.55,2.43,3.65,2,5.58,2h43a11.49,11.49,0,0,1,8.51,3H247.74a105.48,105.48,0,0,0-10.87.23c1.92,2.3,3.52,1.67,4.85,1.68,9.82.08,19.66.17,29.48,0,3.54-.06,6.26,1.3,9.75,3.8-2.14.11-3.36.22-4.57.22-15.33,0-30.66.11-46,0-6.47,0-12.83,1.63-19.32,1-1.3-.13-2.62,0-4,0-1.2-3.58-2.34-7-3.43-10.2.89-1.36,2.38-.34,3.57-1.47L203.09,66c-2.17-3.71-3.12-8.46-7-11.57-2,3.69-1.61,8.07-4.31,11.63l-3.85.25c.86,1.52,2.73.07,3.41,1.88a57.88,57.88,0,0,1-5,9.61c-3.92,1-7.94-.51-12.69,1.37,3.92,1.67,7.08.52,10.29,1.17-.21,3.17-2.84,5-4.5,7.11s-3.85,3.93-5.66,6.19c2.21,1.26,4.13.06,6.53-.52-.59,4.93-3,8.52-6,11.7-3.58,3.72-7.29,7.31-11,11a28.35,28.35,0,0,0-5.79,8.54c5.46-1.47,9.65-3.73,14.42-4.94-5.22,5.73-11.69,10.35-14.39,18,1.8,1.06,2.77-1.64,4.68-.73-1.86,2.57-4.64,4.27-5.82,7.45-4.83-2.9-6.35-7.47-8-12.37,2.92.1,4.67,3,7.93,2.25a36.11,36.11,0,0,1-8.49-16.64c2.26-2.33,5.42-.3,8.83-1.83H147.2c-3.1-8.55-4.2-17.55-10.88-25A72.42,72.42,0,0,1,125,115.35C105.53,113.24,85.79,114.62,66.23,114Zm180.87,4.2c-.94,3.79-2.26,7.09-5,9.84-4.21,4.24-8.65,8.24-12.77,13.22-3.11-4.26-7.15-7.61-11.27-12.22,5.45,1.53,9.64,3.79,14.46,6-1.41-5-4.43-8.26-7.27-11.57a51.9,51.9,0,0,0-5.25-5.27c-4.86-4.22-8.48-9.19-10-16,3,1.41,5.7,3.45,10.31,3.9-4.43-5-7.79-9.52-8.83-15.13h0a4.8,4.8,0,0,1-.8-2.28A24.49,24.49,0,0,0,209,83.88a4.9,4.9,0,0,1,4.31-.32c2,.94,3.91.67,5.87.68q23.49.08,47,.07c8.45,0,16.82,1.31,25.31,1.08,4.18-.11,7.49,3,11.49,5.6H265.67c-1-.75-1.39-2.58-3.21-3.39-.6,1.06-1.2,2.15-1.83,3.26-.9.23-1.81.41-2.72.57-1.62,8.62-8.83,19.94-18.52,29.19C242.46,121.15,244.24,118.59,247.1,118.23Zm42.89,92c-19.15,0-38.31-.09-57.46.12a12.49,12.49,0,0,1-9.72-3.84c-7.43-7.56-15.46-14.56-21.58-23.36-1.47-2.12-3.75-3.6-5-5.84-1.6.65-1.13,1.41-.69,2.12a144.31,144.31,0,0,0,11.93,16.94,156.32,156.32,0,0,0,12.74,13.58H179.1V175.63c-1.39.32-1.93.93-2,1.81-1.11,8.7-4.12,16.82-7.6,24.78a66.07,66.07,0,0,1-3.6,6.47c-.75,1.31-1.93,1.61-3.39,1.61-10-.05-20,0-30.05,0,2.4-4.67,43.35-60.19,47-64.76,15.63,5.93,43.44,10,52.3,8.37.79-1.77-1.88-2.22-1.42-4.1,1.22-.14,2.22.81,3.23,1.14,1.09-1.23-.78-1.87-.13-3.11,1.89-.78,4-1.66,6.08-2.48.25-.1.62.11,1.49.29l-8.25,8.71c5.58,0,10.37.13,15.15-.05,3-.12,4.84.72,6.46,3.43,4.22,7.06,8.89,13.84,13.29,20.79a140.33,140.33,0,0,0,23,27.82,47.17,47.17,0,0,0,4,3,6.78,6.78,0,0,1-4.66.9Zm5.85-99.92c.42-2.12-7.41,12.87-12.38,22.08.2.2.39.41.6.61a4.29,4.29,0,0,1-1,.11,61.66,61.66,0,0,1-3.51,6.1c-2.38-2.41-3.16-5.43-4.68-8.5,3.11-.44,5.15,2.47,8.19,2.4l.39-.72c-5.15-5.19-7.16-11.71-9.39-18.12S270.3,101,267.44,94.72c1.39-.9,2.9-.42,4.31-.43,9.82,0,19.67.48,29.44-.17,6.39-.43,11.81,1.68,16.91,4.48,4.24,2.32,8.86,4.11,12.69,7.51V129h-26.4c-2-6.31-4-12.52-8.55-18.7Zm9.76,35c1.67-1.14,2.87,1.45,4.48-.1.33-.51-.92-1.23,0-2.09,6.17,1.25,12.57.21,19.16.78a24.59,24.59,0,0,1,.16,6.52c-7.17,1-14.18-.78-20.92,1.57-1.36-2.29-3.12-4.07-2.83-6.64ZM330.67,209c-1.58.25-2.88.58-3.69.16-.79-7.49,1.24-14.76-1.78-21.93a35.53,35.53,0,0,0-6.89-10.35c1.15-1.28,2,.67,3.3,0-1.5-4.63-5.23-7.63-8.78-11.44,3.49.1,5.89,1.8,9.21,3.05-2.9-9.46-8.86-11.55-10.31-13.5,6.52-2,12.56.29,18.94.32Zm-1.23-68.75c-6.86.66-13.72,1.49-20.75.78-.73-1.31-2.24-2.39-1.18-4.67,7.55-.75,15.13,1.89,23,.66.62,2.05.61,3.09-1.07,3.25Zm-.58-5H306.61c-.58-1.32-1.61-2.1-1.29-3.64,8.35-1.15,16.66.38,25.25.89.7,1.68.51,2.76-1.71,2.75ZM360,206.18c0,.82-.07,1.63-.12,2.66-2.48.84-4.89.43-7.32.35-1-1.88-.56-3.74-.56-5.51q-.06-47.49,0-95c0-7.12-2.06-13.39-8-17.84a44.33,44.33,0,0,0-7.54-4.65c-8.34-4-16.06-9.1-24.36-13-10.4-4.94-20-11.28-30.49-16.13-7.16-3.31-13.74-7.88-20.85-11.34C252.06,41.45,244,36,235.09,32.09a141.41,141.41,0,0,1-17.25-9.6,76.1,76.1,0,0,0-13.41-6.21c-6.6-2.5-12.69-.33-18.43,2.69-8,4.21-15.71,8.93-23.87,12.88-7,3.38-13.71,7.26-20.33,11.27-3.25,2-6.79,3.22-10.08,5.11-9.83,5.65-20,10.74-30,16.15C88.84,71.38,76,78.5,63.16,85.48,60.32,87,57.26,88.17,54.47,90c-5.82,3.81-8.42,9.18-8.44,15.85-.07,32.66,0,65.33,0,98,0,1.63.32,3.3-.45,5.29a58.24,58.24,0,0,1-9.53,0V105.5c0-10.14,4.7-17.72,13.25-22.85C60.55,75.87,72.33,70,83.94,63.79q21.81-11.61,43.55-23.36c5.5-3,10.7-6.54,16.33-9.23,5.2-2.49,10.31-5.12,15.32-8,7.87-4.47,16-8.39,23.89-12.85,10.46-5.93,21-5.37,31.39.76,4.51,2.68,9.31,4.87,14,7.33,1.59.85,3.07,1.93,4.66,2.79,9.73,5.25,19.6,10.26,29.2,15.74,10.43,6,21.37,10.94,31.71,17.1,6.61,4,13.76,7,20.47,10.88,10.83,6.25,22.32,11.29,32.9,18,7.77,4.93,12.55,11.94,12.6,21.19C360.12,138.18,360,172.18,360,206.18Zm36,114.66c-.06-2.93-.54-3.6-3.55-3.45-3.55.17-7-.68-10.27-1.35-10-2-20.08-3-30.09-4.59-6.63-1-13.34-1.87-20.08-2.39-3.24-.24-6.63-.2-9.8-.93-5.18-1.19-10.46-1.19-15.67-1.67s-10.62-.71-15.76-1.45c-7.4-1.06-14.82-.39-22.21-1.49-8.32-1.23-16.84-.32-25.31-1-13.88-1.12-27.88.34-41.81-1.11-4.41-.47-8.91.56-13.31.68-16.1.45-32.22-.07-48.32,1.11-4.64.35-9.46-.57-14,.29-7.53,1.44-15.14.57-22.7,1.57-5.66.75-11.46,1.89-17.29,1.27a2.55,2.55,0,0,0-1,.09c-4.43,1.45-9.1,1.29-13.65,1.74-4.25.43-8.58.79-12.76,1.38-8.42,1.18-16.87,2.49-25.3,3.54-10.09,1.26-20,3.84-30.2,4.24C.83,317.4,0,318.51,0,320.52v14c9.94-.77,19.09-3.78,28.72-3.35a18.06,18.06,0,0,1,1.18,3.37c1,6.48,4.44,11.55,8.91,16.17,3.88,4,8.69,6.26,13.47,8.91,10.79,6,21.8,11.58,32.56,17.63,6.88,3.86,14,7.3,20.88,11.15,11.2,6.27,22.71,12,33.86,18.29,4.58,2.6,9.3,4.88,13.93,7.36,9.16,4.91,18.06,10.3,27.46,14.79,5.72,2.74,11.82,4.52,18,4.25a38.38,38.38,0,0,0,16.92-4.73c6.22-3.44,12.65-6.48,18.78-10.06,5.83-3.41,12.1-6,17.87-9.39,12.77-7.61,26.1-14.15,39.12-21.27,7.63-4.17,15.39-8.21,23-12.42,3.31-1.83,6.79-3.24,10.09-5.08,7.33-4.07,14.56-8.3,22.09-12,8.8-4.37,15.64-11,18.64-20.83.66-2.17.75-4.51,1.64-5.94,9.86-1,18.92,2.85,28.8,2.92C396,329.44,396,325.14,396,320.84ZM67.16,325.47c2.69-1.19,6-.73,8.87-1.08,4.38-.52,8.85-1,13.25-1.48,6.54-.75,13.19-.16,19.63-1.79a3.35,3.35,0,0,1,1-.06c7.14.61,14.19-.85,21.29-1.2,8.27-.41,16.6-.09,24.79-1,13.45-1.48,26.88-.35,40.31-.77,5.82-.19,11.66.18,17.48-.07,13.8-.58,27.53.91,41.29,1.24,10.86.26,21.77,1.07,32.6,2,8.3.73,16.66,1.38,25,2.51,4.67.63,9.46,1.55,14.28,1.26,1.33-.08,2.7-.13,3.83,1.76L198.57,397.88,67.88,327.53A1.68,1.68,0,0,1,67.16,325.47ZM355.49,342a35.77,35.77,0,0,1-10.69,9.51c-12.18,6.88-24.62,13.28-36.89,20-8.21,4.48-16.36,9.17-24.79,13.28-9.2,4.48-17.76,10.21-27,14.57-8.62,4.09-16.58,9.33-25.29,13.27-7,3.18-13.48,7.64-20.47,11a27.42,27.42,0,0,1-24.78,0c-6.57-3.11-12.59-7.32-19.22-10.21-8.92-3.89-16.78-9.64-25.73-13.51a123,123,0,0,1-16.38-9.13c-3.94-2.47-8.29-4-12.23-6.36-5.76-3.53-11.65-6.9-17.69-9.91-15.19-7.56-30-15.84-44.79-24.12-6.44-3.61-11.26-9.17-12.65-16.93-.12-.63-.59-1.19-.76-1.82a7.94,7.94,0,0,1,0-1.82l9.33-1.61c1.61,5.17,3,9.94,7.13,13.22a19.78,19.78,0,0,0,3.2,2.29q17.06,9,34,18c4.5,2.41,8.73,5.38,13.35,7.5,6.91,3.16,13.38,7,20,10.7,10.52,5.79,21.23,11.23,31.69,17.14,6.42,3.63,13.09,6.87,19.6,10.38,4.76,2.57,9.45,5.3,14.29,7.72a21,21,0,0,0,15.85,1.31c6.38-1.89,12.11-5.21,17.74-8.51,7-4.08,14.18-7.63,21.23-11.53,5.76-3.19,11.44-6.55,17.33-9.5,8.39-4.2,16.41-9.12,24.76-13.32,6.77-3.4,13.34-7.13,20-10.67,10.75-5.71,21.67-11.11,32-17.54a12,12,0,0,1,2.24-1c6.1-2.2,9.41-6.79,11-12.82.21-.78,0-1.67.67-2.32.23-.24.51-.42,1-.86,2,1.12,4.53.7,7.17,1.14A21.38,21.38,0,0,1,355.49,342Zm-307.19-73c-2.21-2.47-5.24-3.22-8.35-4.88,2-1.19,3.4-2,4.73-2.92,5.61-4,6-9.73,1.09-14.62-3.73-3.71-8.45-5-13.48-5.17s-10,0-15-.07a12.53,12.53,0,0,0-7,1.65c-.81,10.29-.49,43.45.51,47.37,5.08,0,10.24-.24,15.36.08,4,.24,7.92-.67,11.77-1.31a17.62,17.62,0,0,0,10.67-5.82A10.75,10.75,0,0,0,48.3,268.93Zm-24.12-20.1c3.19-1.42,6.13.1,8.82,1.22s2.87,5.47,1,7.77c-2.41,2.94-5.51,4-9.8,3.19Zm11.71,30c-1.75,2.08-3.85,3.56-6.76,3.46-1.47-.06-3,0-5,0V268.76c4.74-1.25,8.57.17,11.66,3.87a4.6,4.6,0,0,1,.1,6.24ZM100.26,251c-1.91-4.57-5.5-7.5-10.2-9.35a24.93,24.93,0,0,0-13.18-1.26c-5.69.94-10.85,3.15-14.37,8.51s-5.15,10.63-4.39,17.17c-.77,4.2.16,8.53,1.9,12.71a19.19,19.19,0,0,0,12.78,11.5,29.76,29.76,0,0,0,9.3,1c8.17-.17,14.38-3.64,17.89-11.07C104.53,270.63,104.33,260.77,100.26,251ZM86.83,277.45c-.66,2.45-2,4.8-5.42,5s-5.79-1-7-4.23c-3.18-8.5-3.7-16.94.33-25.38a5.82,5.82,0,0,1,5.84-3.65c2.84,0,4.47,1.32,5.79,3.75a27.2,27.2,0,0,1,3.13,11.71C89.53,269.84,87.41,275.29,86.83,277.45Zm63.25-26.7c-1.88-4.42-5.44-7.12-9.9-9A24.41,24.41,0,0,0,127,240.44c-5.71.88-10.86,3.08-14.42,8.4S107.43,259.46,108,265a48.94,48.94,0,0,0,0,6.13c.67,4.75,1.92,9.21,5.21,13,6.17,7.18,14.33,8,22.68,6.88A17.21,17.21,0,0,0,149,282.13C154.62,271.89,154.59,261.33,150.08,250.75ZM139,268.83a31.39,31.39,0,0,1-2.23,9.11c-1.56,3.59-3,4.43-6.84,4.44-2.54,0-3.91-1.25-5-3.33a26.94,26.94,0,0,1-2.86-13.86,23.24,23.24,0,0,1,3-12.83c2.66-4.63,8.61-4.61,11.07.18A27,27,0,0,1,139,268.83Zm131.92-27.39H254.75c-1.58,1.48-1.76,3.39-2.29,5.06-3.32,10.47-6.53,21-9.75,31.46-1.22,4-2.37,7.94-3.62,12.13h13.34l3.14-10.61h11.86c2.4,3.27,1.51,7.84,4.32,10.66h12.88C280,273.78,275.48,257.62,270.92,241.44ZM262,272.24c-1.46,0-2.93,0-5.19,0,1.81-7,3.43-13.37,5-19.7l.66.19c1.14,4.84,2.34,9.67,3.41,14.54C266.69,270.91,265.66,272.14,262,272.24Zm129-27.6a25.21,25.21,0,0,0-11.66-3.28c-5.32-.21-10.65,0-16-.07-2,0-3.94.22-5.27,1.84v47.06c4.86,0,9.26.49,14.12-.39V272.27c6,.44,11.22-1.13,16.33-3,6-2.18,8.72-7.15,9.21-12.89C398.21,251.4,395.72,247.3,391,244.64Zm-11.87,18.51c-2.11.57-4.25,2.08-7,.52V249.49c2.76-.21,5.3-.69,7.77.74a7.2,7.2,0,0,1,4,6.83,6.11,6.11,0,0,1-4.75,6.09Zm-186.05,96.1V338.84c3.24-1,6.43-.6,9.67-.28-.36,2.58-.36,2.58-4.3,3.14-.87,1.51-.4,3.16-.34,4.55.9,2.27,5.34-.82,4.76,3.35-1.32,1.29-3,.2-4.51,1.15-.83,1.6-.22,3.32-.24,4.68,1.84,1.82,5.58-.8,5.93,3.51C200.32,359.6,196.91,359.16,193.08,359.25Zm31.1,0v-20.7h9.59c.81,4.36-3.41,1.71-4.56,3.56a8.17,8.17,0,0,0,0,4.36c1.26,1.72,4.92-.76,4.75,3-1.32,1.47-3.3.29-4.68,1.23a9.31,9.31,0,0,0,0,4.91c1.61,1.34,3.67,0,5.47,1.19.38,1.32.36,2.45-1.63,2.47ZM155.9,338.75l.1,2.12c-.17.94-.4.93-.78.94-4.41.07-6.07,1.6-6.23,5.65-.21,5.51.52,6.88,4.19,8.45.93.4,1.59-.12,2.4-.18a2.77,2.77,0,0,1-.12,3.26c-4.41,1.17-8-.39-10.08-4.2a11.78,11.78,0,0,1,.49-12.69A8.2,8.2,0,0,1,155.9,338.75Zm94.88,3c-3-4.6-7.88-3.76-12.58-3.07v20.54c5.29,0,10.08.83,13.13-4.47C254,350.14,253.35,345.7,250.78,341.75Zm-7.43,14.69v-15c3.13.23,4.43,2.09,4.6,4.78C248.2,350.18,248.32,354.15,243.35,356.44Zm-54.6-14.74c-3.07-4.57-7.92-3.68-12.53-3v20.52c5.51,0,10.55.8,13.41-5A11.88,11.88,0,0,0,188.75,341.7Zm-7.48,14.41V341.92c3.38.42,4.25,1.17,4.7,4,.83,5.18-.46,8.11-4.7,10.19Zm-9.34-13.65c-.91-2.61-3.13-3.79-5.67-4.12s-4.8.39-6,2.57c-2.5,4.44-3.65,10.12-.25,15.41a6.49,6.49,0,0,0,11-.13c1.4-2.3,2.42-4.7,1.87-7.55C173.48,346.48,172.62,344.45,171.93,342.46ZM165.6,356c-3.13-1.58-2.69-4.24-2.59-6.68.11-2.69-1-5.8,2.47-7.68a4.46,4.46,0,0,1,2.57,4.13C168.4,352,168.22,353.13,165.6,356Zm54.32-2.38c.17-1.8-2.15-2.35-2.41-4,2.62-2.21,3.84-5,3.13-7.09-1-2.79-2.94-4.14-6.51-4.27-2.14-.06-4.28,0-6.83,0l0,20.74c1.73.3,3.18.73,4.45-.35.72-2.36-.45-4.93.92-7.47,3.65,1.73,2.44,5.63,4.07,8,1.47-.07,3,.7,4.15-.71C221.22,356.71,219.75,355.45,219.92,353.65ZM211,347.94v-7.32s6.16,0,6.16,3.66S211,347.94,211,347.94Z" fill="#e5d1b2"/></svg>