<?xml version="1.0" encoding="utf-8"?>
<!-- Generator: Adobe Illustrator 21.1.0, SVG Export Plug-In . SVG Version: 6.00 Build 0)  -->
<svg version="1.1" xmlns="http://www.w3.org/2000/svg" xmlns:xlink="http://www.w3.org/1999/xlink" x="0px" y="0px"
	 viewBox="0 0 396 432.6" style="enable-background:new 0 0 396 432.6;" xml:space="preserve">
<style type="text/css">
	.st0{display:none;}
	.st1{display:inline;fill:#E5D1B2;}
	.st2{display:inline;opacity:0.4;}
	.st3{fill:#F90606;}
	.st4{display:inline;opacity:0.58;}
	.st5{display:inline;fill:#F90606;}
	.st6{display:inline;}
	.st7{font-family:'Roboto-Bold';}
	.st8{font-size:23.5157px;}
	.st9{fill:#E5D1B2;}
	.st10{fill:#586371;}
	.st11{fill:#C6C6C6;}
	.st12{fill:#F2F2F2;}
	.st13{fill:none;}
	.st14{font-family:'Roboto-Italic';}
	.st15{font-size:22px;}
</style>
<g id="Layer_1" class="st0">
	<title>hackathon</title>
	<path class="st1" d="M0.1,209.1h27.6c1.9-2.4,1.3-4.4,1.3-6.4c0-32.3,0-64.7,0-97c0-13.7,6.1-23.8,17.8-30.2
		c23.1-12.8,46.5-25,69.7-37.6c19.1-10.3,38.4-20.5,57.3-31.1c16.6-9.3,32.4-9.3,49,0.5c17.6,10.4,35.9,19.5,53.9,29.2
		c19.9,10.7,39.7,21.5,59.6,32.2c7.4,4,15.5,7,21.5,13.3c6,5.9,9.3,14,9.2,22.5v104.2h28.3c1.2,5.9,0.6,11.1,0.5,16.7H0.5
		C-0.4,220.2,0.2,215.2,0.1,209.1z M207.5,86.3c12.3,1.3,23.7,4.4,33.9,11.3c15.5,10.5,26.1,24.4,27.5,43.4
		c1.8,25-11.1,42.1-31.6,54.7c-12.8,7.9-26.9,8.2-41.4,8.3c-13.9,0.3-27.5-4-38.8-12.1c-15.5-10.9-25.3-25.6-26.1-44.8
		c-1-24.8,16.1-45.5,38.3-55.1c7.3-3,14.9-4.9,22.8-5.7c1.1-1.9,1.3-3.4,0-5.3h-11.4c-7.9-8.3-13.7-17.7-21.7-25.5l-92.9,50.1
		c-0.1,35.2-0.3,69.5,1.2,104.3c87.9-0.3,175.6,0.7,263.4-1v-104l-90.5-48.8l-14,16.8l-19.7-24.4l5.4-7.6l-13-7.2
		c-3.6,2.6-7.8,3.8-11.2,7.1c5.5,6.7,10.8,13,16,19.4s10.5,13.1,16.6,20.7h-12.6C207,82.6,206.9,84.6,207.5,86.3z M198.4,195
		c16.3-0.5,29.5-4.6,41.3-13.9c21.6-17,23.9-48.1,4.5-67.6c-24.6-24.7-70-23.8-92,4.8c-10.4,13.5-12.8,28.9-5.5,44.6
		C157.2,185.2,176.6,193.6,198.4,195z M359.8,208.3c0.1-1.7,0.2-3.2,0.2-4.7c0-33,0.1-66,0-99c0-9.7-4.5-17.4-12.9-22.2
		c-23.2-13.3-47-25.6-70.6-38.1c-21.3-11.2-42.3-23-63.5-34.4c-6.8-3.6-13.9-5.1-21.6-3.2c-9.6,2.4-17.3,8.4-25.9,12.6
		c-15.2,7.5-29.8,16-44.7,24C97,56.3,73.1,69.1,49.4,82.2C40.6,87,36,94.9,36,105.1v98.5c0,1.6-0.5,3.3,1,5.2
		c2.7,0.1,5.6,0.5,8.3-0.2c1.1-2.2,0.6-4.2,0.6-6.2c0-31.8,0.1-63.7,0-95.5c0-8.8,3.6-15,11.2-19c2-1.1,4.2-2,6.3-3L120,54.3
		c19.3-10.4,38.7-20.5,57.7-31.5C189.6,16,200.6,12,214,19.7c24.1,13.8,48.7,26.5,73.1,39.7c16.4,8.8,32.7,17.8,49.3,26.2
		c10.5,5.4,15.9,13,15.7,25.3c-0.5,30.7-0.2,61.3-0.1,92c0,1.9-0.6,4,1,5.9C354.9,208.9,357.1,209.2,359.8,208.3L359.8,208.3z
		 M29,330.7c-10-0.5-18.9,2.7-28.6,3.1v-16.4c130.8-21.6,264.2-21.6,395,0c1,5.4,0.5,10.6,0.4,16.4c-9.7-0.3-18.6-3.4-28.2-3.3
		c-0.6,1-1,2.1-1.4,3.3c-2.1,11.1-9.2,18.3-18.5,23.5c-16.7,9.3-33.5,18.3-50.4,27.3c-19,10.2-38.1,20.2-57.2,30.3
		c-8.4,4.4-16.6,9.1-25.1,13.4c-11.4,5.8-23.1,5.9-34.4-0.1c-16.2-8.5-32.1-17.4-48.2-26c-19.5-10.4-39-20.6-58.5-31
		c-9.4-5-18.9-9.7-28-15.2C36.6,350.4,30.6,342,29,330.7z M67.5,325.2l-0.6,1.6l131.8,70.9l132-70.9c-0.1-0.5-0.2-0.9-0.3-1.4
		C243.1,315.3,154.9,315.2,67.5,325.2L67.5,325.2z M351.6,328.2c-1,6.5-3.9,11.9-9.6,15c-18.6,10-37.2,19.7-55.8,29.7
		c-24,12.9-47.9,26-71.8,39c-8.1,4.4-16.5,7.7-25.5,2.9c-28.6-15.2-57.1-30.5-85.6-45.8C87.6,360.4,72,352,56.3,343.5
		c-4.3-2.3-7.6-6.1-9.3-10.7c-0.6-1.7-0.7-3.6-2.2-5l-8.7,1.5c0.8,8.9,6,16.9,14,21c20,11.1,40.3,21.9,60.4,32.8
		c22.4,12,45,23.6,67,36.2c13.6,7.8,26.4,9,39.8,0.4c5.9-3.8,12.2-6.7,18.4-9.9c19.8-10.5,39.5-21.3,59.2-32
		c16.9-9.1,34-18.1,50.8-27.5c8-4.5,13.1-11.3,13.9-21.2L351.6,328.2z M4.5,242.1h12.4v18.1c4.5,1.1,8.4,0.4,12.9,0.6v-18.1
		c4.4-1.4,8.3-0.7,12.7-0.7v48.5H30.1v-20.1c-4.4-1-8.4-0.6-12.9-0.3V290c-4.4,1.5-8.4,0.7-12.7,0.7L4.5,242.1z M284.9,290.5v-20.1
		c-4.3-0.9-8.2-0.5-12.7-0.2V290c-4.4,1.5-8.4,0.5-12.7,0.9v-48.7h12.4v18.1c4.5,1,8.4,0.6,12.9,0.3v-17.9c4.4-1.5,8.4-0.5,12.7-0.9
		v48.6C293.3,291,289.1,291,284.9,290.5z M383.1,272.9c0.4-10.2-0.9-20.3,0.2-30.7c3.4-0.5,6.9-0.5,10.3,0v48
		c-3.5,1.2-7.1,0.5-11.2,0.5l-15.7-30.9c0.7,10.1,0.1,20.2,0.2,30.6c-3.5,0.6-7.1,0.6-10.6,0.1v-48c3.5-1.2,7.1-0.4,11.1-0.5
		C372.7,252.3,377.9,262.6,383.1,272.9z M347.2,266c-0.2,2.8,0,5.7-0.7,8.4c-3,12.9-10.2,18.3-22.6,17.4
		c-9.5-0.7-16.8-8.7-17.8-20.2c-0.7-8.2-0.3-16.4,5-23.3s14-9.1,23-6.4c6.8,2.1,12.4,9.8,12.9,18c0.1,2,0,4,0,6L347.2,266z
		 M326.5,248.3c-8.9,5.9-7.4,14.5-7.4,22.5c0,7.1,2.6,11.1,8,13c6.6-2.8,6.8-9,6.9-14.9C334.1,261.5,335.2,253.5,326.5,248.3
		L326.5,248.3z M136.4,242.1h12.3v19.7l1,0.2l11.2-19.9h13.7l-14.4,21.1c4.9,9,9.6,17.9,14.6,27.3h-13.6l-9.7-19.9
		c-4.8,6.4-1.2,13.4-3.1,19.8h-12L136.4,242.1z M62.9,242.1h15.3l12.6,48.3c-4.1,0.9-7.9,0.4-11.8,0.4l-3.5-10.6H64.8
		c-2.7,2.9-1.6,7.4-4.5,10.5H48.9C53.7,274.2,58.3,258.2,62.9,242.1L62.9,242.1z M74.5,271.9c-1.3-6.7-2.6-13.3-4-19.9
		c-1.4,6.8-4.5,13.1-4.5,20.3C69.1,272.9,71.6,273.2,74.5,271.9z M202.6,280h-10.8c-2.6,3-1.7,7.2-4.4,10.4
		c-3.8,0.6-7.7,0.6-11.5-0.1c4.7-16.3,9.4-32.3,14-48.2h15.3c4.2,16.1,8.3,31.9,12.6,48.1c-4.1,1.1-7.9,0.5-11.9,0.3
		C204.8,287,203.7,283.7,202.6,280z M197.6,251.8c-1.2,6.8-4.7,13.2-4.4,20.5c3.1,0.3,5.6,1,8.3-0.7
		C200.2,265,198.9,258.4,197.6,251.8L197.6,251.8z M126.7,282.1c0.1,2.6,1.5,4.6,1.1,7c-11,3.9-23.7,1.1-29.4-6.4
		c-6.3-8.3-6.3-22.5,0-31.4c4.9-7,19.6-11.8,29.6-8.2c0.6,2.7-0.6,5-1.6,7.4c-11.8-2-19.6,3.6-19.5,16
		C107.1,278.2,112.6,282.8,126.7,282.1z M241.1,290.6h-13v-38.8c-3.6-1.8-7.1-0.2-10.4-1.4c-1.4-2.4-0.6-5-0.5-8h34.4
		c1,2.6,0.4,5.1,0.4,7.7c-3.5,1.5-6.9,0.1-10.9,1.3V290.6z M200.1,122.4c3.2,5.6,4.9,12.9,10.2,14.7c5.7,1.8,11.4,3.3,17.3,4.4
		c-5.5,4.1-9.8,6.3-14.4,10.1c0.2,5.7,3.1,11.6,4,17.2c-5.9-2.4-11.4-5.7-17.1-8.4c-5.4,2.4-10.7,5.4-17,8.4c0.5-6.1,3-12,4-17.4
		c-4.1-4.2-9.5-5.7-14.8-9.9c4.5-1.5,9.1-2.7,13.8-3.6c4.4-0.9,6.2-0.9,8.1-4.8C196.2,129,198,126,200.1,122.4z M177.1,173.8
		c4.6-0.5,7.8,2.1,10.4,4.4c8.7,1,16.8,0.7,25.5,0.3c2.6-3.4,6.9-4.8,11.6-5.9c1.4-4.2,4.6-6.4,8.8-7.9c-0.2-4.8,2-8.4,5.9-11
		c-2.5-4.4-1.5-8.3,0.9-12.1c-6.4-4.2-5.5-13.2,1.7-18.4c4,3.5,4.4,7.4,1.3,14.6c1.8,0.3,3.2-2,5.4-0.4c1.9,4.8-1,8.6-4.2,12.9
		l4.6,0.7c0.1,6.6-5,8.9-9.1,12.1c1,1.3,3-0.1,4,1.9c-1.9,5.7-7.3,6.6-12.3,8.1c-0.5,2.2,2.7,1.6,2.7,3.6c-4.1,4.7-9.7,4-15.2,3.9
		c-0.9,2,1.7,2.4,1.4,4.5c-5,3.2-10.4,1.2-15.8-0.2c-0.4,2.2,2.4,4,0.5,6.2c-2.6,0.6-3.5-1.9-5.1-2.9c-1.8,0.8-2.4,2.9-4.7,3.2
		c-2.9-3.1,0.7-4.7,2-7.5c-6.1,2.4-12,4.5-17.9,1.3c-0.6-2.4,2.4-2.2,2.5-4.3c-5.4-0.7-11.4,1.3-15.8-3.8c0-2.4,2.2-2.5,3.7-3.4
		c1.4,0.8,1.5,3,3.5,2.9S175.7,174.5,177.1,173.8L177.1,173.8z M199.3,181.7c0.9,1.5,1.8,2,3.2,1.7
		C201.9,182.3,201.4,181.2,199.3,181.7L199.3,181.7z M236.1,118.8l-4.9,4c-20.3-15.6-40.7-16.1-61.5-0.2c-2.1-0.4-3.7-2-5.2-3.9
		C179.6,99.9,217.9,98.2,236.1,118.8L236.1,118.8z M177.1,173.8c-1.4,0.8-1.6,3-3.6,3s-2.2-2.1-3.5-2.9c-3.6-1.6-7.8-1.7-10.8-4.4
		c-1.3-1.2-2.8-2.3-3.1-4.1c0.9-2.1,2.8-1,4.4-1.9c-4.1-3.1-8.7-5.7-9.3-11.5c0.8-2,3.1-0.4,4.4-1.8c-1.9-4.3-6.5-8-3.8-13.4
		c1.8-0.8,3,0.8,4.9,0.9c-1-4.9-3.8-10,1.3-14.1c7.9,4.3,8.9,12.2,2.6,18.1c3.3,7.9,3.3,8.2,0.3,11.7c3.4,2.9,6.4,6,6,11.4
		C172.1,165.5,174,170.2,177.1,173.8L177.1,173.8z M207.4,338.4c8.8-1.4,11-0.6,13.5,4.6c-0.3,2.4-0.9,4.8-3.1,6.3
		c2.2,3.4,2.2,3.4,3,8.8c-1.3,1.1-2.7,0.9-4.1,0.2c-1.2-2.3-0.2-5.8-3.8-7.2c-1.4,2.1-0.3,4.6-1.1,6.8c-1.1,1.4-2.5,1-4.3,0.4
		L207.4,338.4z M212.6,341.1c-0.9,2.1-0.9,4.5,0.1,6.5c2.2,0.1,3.3-1,3.3-3.1S215.5,341,212.6,341.1L212.6,341.1z M176.3,358.6
		v-20.2c4.5-1,9.1-1.6,12.2,2.5c3,3.8,3.4,9,0.9,13.1C186.6,359.4,181.7,359,176.3,358.6L176.3,358.6z M181.1,341.2
		c0,4.9-0.6,9.5,0.4,14.6c4.4-2.1,4.6-5.6,4.5-9.2C185.8,343.8,185,341.5,181.1,341.2L181.1,341.2z M238.4,338.2
		c5.1-0.8,10.1-1.3,12.8,3.6c2.4,4.2,2.7,9-0.3,13.2s-7.6,4-12.5,3.5V338.2z M243.5,355.7c4.7-1.9,4.7-5.5,4.5-9.1
		c-0.1-2.8-1-5.1-4.9-5.4C243,346.1,242.6,350.7,243.5,355.7L243.5,355.7z M173.1,348.4c0.1,2.5-0.6,5-1.9,7.1
		c-0.6,1.2-1.7,2.1-2.9,2.6c-4,1.8-7.8-0.1-9.6-5c-2.2-5.8,0.5-13.7,5-15c4.1-1.2,7.9,1.5,9,6.4C172.9,345.8,173,347.1,173.1,348.4
		L173.1,348.4z M165.3,355.4c3.8-3.6,3.8-10.5,0.2-14C162.1,344.7,161.9,350.9,165.3,355.4L165.3,355.4z M198.3,345.8
		c1.2,1.8,4,0,4.6,2.5c-0.5,2.6-3.4,0.7-4.6,2.5c-0.5,1.3-0.5,2.6,0,3.9c1.4,2.1,4.6-0.3,5.7,3.2c-3.4,1.8-6.8,0.8-10.6,0.7v-20.2
		c3.3-0.5,6.5-1.3,9.6,0.5c-0.7,3-3.5,1.3-4.7,3.1C197.8,343.2,197.8,344.6,198.3,345.8L198.3,345.8z M229.1,345.5
		c1.5,2,4.4,0.2,4.8,3c-0.7,2.2-3,0.8-4.4,2.1c-0.7,1.3-0.7,2.9-0.1,4.3c1.5,1.8,4.6-0.3,5.6,2.9c-3.3,2.1-6.7,0.7-10,1
		c-1.2-3.7-1.4-14.6-0.4-20.2c4.9-1.1,5.9-1,9.3,0.5c-0.2,2.9-3,1.2-4.2,2.4S229.1,344.3,229.1,345.5L229.1,345.5z M155.5,338.4
		c0.7,0.9,0.6,1.8-0.3,3.1c-5-0.3-6.5,2.6-6.3,7.5c0.2,4.7,2.6,6.5,6.8,6.6c-0.6,3.2-2.1,4-5.4,2.9c-4.8-1.6-7.5-7.4-6-13.2
		S149.4,337.4,155.5,338.4L155.5,338.4z"/>
</g>
<g id="Layer_2" class="st0">
	<g class="st2">
		<path class="st3" d="M198.5,417.2c-3.4,0-6.8-0.8-9.9-2.5L57,343.6c-6.8-3.7-11-10.7-11-18.4V106.5c0-7.7,4.2-14.7,11-18.4
			L188.6,17c6.2-3.4,13.7-3.4,19.9,0L340,88.1c6.8,3.7,11,10.7,11,18.4v218.7c0,7.7-4.2,14.7-11,18.4l-131.6,71.1
			C205.4,416.3,202,417.2,198.5,417.2z M198.5,34.5c-0.1,0-0.3,0-0.4,0.1L66.5,105.7c-0.3,0.2-0.5,0.5-0.5,0.8v218.7
			c0,0.3,0.2,0.6,0.5,0.8l131.6,71.1c0.3,0.1,0.6,0.1,0.9,0L330.5,326c0.3-0.2,0.5-0.5,0.5-0.8V106.5c0-0.3-0.2-0.6-0.5-0.8
			L199,34.6C198.8,34.5,198.7,34.5,198.5,34.5z"/>
	</g>
	<g class="st2">
		<path class="st3" d="M198.5,432.3c-5.7,0-11.5-1.4-16.7-4.2L47.9,356.9C36.2,350.8,29,338.7,29,325.5v-219
			c0-13.2,7.2-25.2,18.8-31.4L181.7,3.8c10.5-5.6,23.1-5.6,33.6,0.1l132.3,71.3c11.5,6.2,18.7,18.2,18.7,31.3v219.2
			c0,13.1-7.2,25.1-18.7,31.3l-132.3,71.1C210,430.9,204.2,432.3,198.5,432.3z M198.5,5.6c-4.8,0-9.5,1.2-13.9,3.5L50.7,80.5
			C41,85.6,35,95.6,35,106.5v219c0,11,6,21,15.7,26.1l133.9,71.2c8.7,4.6,19.1,4.6,27.9-0.1l132.3-71.1c9.6-5.2,15.6-15.1,15.6-26
			V106.4c0-10.9-6-20.9-15.5-26L212.5,9.1C208.1,6.8,203.3,5.6,198.5,5.6z"/>
	</g>
</g>
<g id="Layer_2_copy" class="st0">
	<g class="st2">
		<path class="st3" d="M199,432.3c-5.7,0-11.5-1.4-16.7-4.2L48.4,356.9c-11.6-6.2-18.9-18.2-18.9-31.4v-219
			c0-13.2,7.2-25.2,18.8-31.4L182.2,3.8c10.5-5.6,23.1-5.6,33.6,0.1l132.3,71.3c11.5,6.2,18.7,18.2,18.7,31.3v219.2
			c0,13.1-7.2,25.1-18.7,31.3l-132.3,71.1C210.5,430.9,204.7,432.3,199,432.3z M199,5.6c-4.8,0-9.5,1.2-13.9,3.5L51.2,80.5
			c-9.7,5.1-15.7,15.1-15.7,26.1v219c0,11,6,21,15.7,26.1l133.9,71.2c8.7,4.6,19.1,4.6,27.9-0.1l132.3-71.1
			c9.6-5.2,15.6-15.1,15.6-26V106.4c0-10.9-6-20.9-15.5-26L213,9.1C208.6,6.8,203.8,5.6,199,5.6z"/>
	</g>
	<g class="st4">
		<rect x="0.2" y="209.3" class="st3" width="396" height="16"/>
	</g>
	<path class="st5" d="M197.3,301C104.2,301,19.8,314.9,0,318.4v16.3c11.7-2.1,99.6-17.6,197.3-17.6c97.6,0,185.6,15.2,198.7,17.6
		v-16.2C375.6,314.7,290.8,301,197.3,301z"/>
	<text transform="matrix(1 0 0 1 143.5347 356.6768)" class="st6 st7 st8">CODERED</text>
	<g class="st6">
		<path class="st9" d="M339.7,88.1L208.2,17c-6.2-3.4-13.7-3.4-19.9,0L56.6,88.1c-6.8,3.7-11,10.7-11,18.4v218.7
			c0,7.7,4.2,14.7,11,18.4l131.6,71.1c3.1,1.7,6.5,2.5,9.9,2.5c3.4,0,6.8-0.8,9.9-2.5l131.6-71.1c6.8-3.7,11-10.7,11-18.4V106.5
			C350.7,98.8,346.5,91.8,339.7,88.1z M330.7,325.2c0,0.3-0.2,0.6-0.5,0.8l-131.6,71.1c-0.3,0.1-0.6,0.1-0.9,0L66.1,326
			c-0.3-0.2-0.5-0.5-0.5-0.8V106.5c0-0.3,0.2-0.6,0.5-0.8l93-50.2c1.1,1.4,14.1,17.5,21.6,25.4h11.4c0,0,0,3.6,0,5.3
			c-7.8,0.8-15.5,2.7-22.8,5.7c-22.1,9.6-39.3,30.4-38.3,55.1c0.7,19.3,10.6,33.9,26.1,44.8c11.3,8.1,24.9,12.4,38.8,12.1
			c14.5-0.1,28.6-0.4,41.4-8.3c20.5-12.5,33.4-29.7,31.6-54.7c-1.4-19.1-12-33-27.5-43.5c-10.2-6.8-21.6-10-33.9-11.3
			c0-1.8,0.1-5.4,0.1-5.4h12.8c-5.6-7-29.8-36.6-33.2-40.6l10.6-5.7c0.1-0.1,0.3-0.1,0.4-0.1c0.1,0,0.3,0,0.4,0.1l12.9,7l-5,6.9
			l19.7,24.4l13.4-16.1l90.5,48.9c0.3,0.2,0.5,0.5,0.5,0.8V325.2z M244.2,113.6c19.4,19.5,17.1,50.6-4.5,67.6
			c-11.8,9.3-25,13.3-41.3,13.9c-21.8-1.4-41.2-9.8-51.7-32.1c-7.4-15.6-5-31,5.5-44.5C174.2,89.8,219.6,88.9,244.2,113.6z"/>
		<path class="st9" d="M156.7,137.7c-1.9,0-3.1-1.7-4.9-0.9c-2.7,5.4,1.9,9.1,3.8,13.4c-1.3,1.3-3.6-0.2-4.4,1.8
			c0.6,5.8,5.2,8.4,9.3,11.5c-1.5,0.9-3.4-0.2-4.4,1.9c0.3,1.8,1.8,2.9,3.1,4.1c3,2.7,7.1,2.8,10.7,4.4c-1.4,0.9-3.6,1-3.6,3.4
			c4.3,5,10.4,3.1,15.8,3.8c0,2.1-3.1,1.9-2.5,4.3c5.9,3.2,11.8,1.1,17.9-1.3c-1.3,2.8-4.9,4.4-2,7.5c2.3-0.2,3-2.4,4.7-3.2
			c1.6,1,2.5,3.5,5.1,2.9c1.9-2.2-0.9-4-0.5-6.2c5.4,1.5,10.8,3.4,15.8,0.2c0.2-2.1-2.3-2.5-1.4-4.5c5.4,0.1,11.1,0.8,15.2-3.9
			c0-2-3.2-1.4-2.7-3.6c5.1-1.5,10.4-2.4,12.3-8.1c-1-2.1-3-0.7-4-2c4.1-3.2,9.1-5.6,9.1-12.1l-4.6-0.7c3.2-4.3,6.1-8.2,4.2-12.9
			c-2.2-1.6-3.6,0.7-5.4,0.4c3.1-7.2,2.7-11.1-1.3-14.6c-7.2,5.2-8,14.2-1.7,18.4c-2.5,3.8-3.5,7.7-0.9,12.1
			c-3.9,2.6-6.1,6.2-5.9,11c-4.2,1.5-7.4,3.7-8.8,7.9c-4.7,1-9.1,2.4-11.6,5.9c-8.7,0.4-16.8,0.7-25.5-0.3c-2.5-2.3-5.8-5-10.4-4.4
			l0,0c-3.1-3.5-5-8.3-10.3-9.1c0.4-5.4-2.6-8.5-6-11.4c3-3.6,3-3.8-0.3-11.7c6.4-5.9,5.3-13.8-2.5-18.1
			C152.9,127.7,155.7,132.8,156.7,137.7z M202.5,183.4c-1.5,0.3-2.3-0.2-3.2-1.7h0C201.5,181.2,201.9,182.3,202.5,183.4z"/>
		<path class="st9" d="M169.7,122.5c20.7-15.9,41.1-15.3,61.5,0.2l4.9-4h0c-18.2-20.6-56.5-18.8-71.6-0.1
			C166,120.5,167.6,122.1,169.7,122.5z"/>
		<path class="st9" d="M210.4,137c-5.3-1.8-7-9.1-10.2-14.7c-2.1,3.6-3.9,6.6-5.9,10.7c-1.9,3.8-3.7,3.8-8.1,4.8
			c-4.7,0.9-9.3,2.1-13.8,3.6c5.2,4.2,10.7,5.7,14.8,9.9c-1,5.4-3.5,11.4-4,17.4c6.3-3,11.6-6,17-8.4c5.7,2.6,11.2,6,17.1,8.4
			c-1-5.6-3.8-11.5-4-17.2c4.6-3.8,8.9-6,14.4-10.1C221.8,140.3,216,138.9,210.4,137z"/>
	</g>
	<g class="st6">
		<path class="st9" d="M17.6,273.9c-0.4,0-0.6,0.2-0.6,0.6v14.3c0,0.7-0.2,1.4-0.7,1.9c-0.5,0.5-1.1,0.8-1.8,0.8H7
			c-0.7,0-1.2-0.3-1.7-0.8c-0.5-0.5-0.7-1.2-0.7-1.9v-43.5c0-0.8,0.2-1.4,0.7-1.9c0.5-0.5,1.1-0.8,1.7-0.8h7.5
			c0.7,0,1.3,0.3,1.8,0.8c0.5,0.5,0.7,1.2,0.7,1.9v14.2c0,0.5,0.2,0.7,0.6,0.7h14.9c0.4,0,0.6-0.2,0.6-0.7v-14.2
			c0-0.8,0.2-1.4,0.7-1.9c0.5-0.5,1.1-0.8,1.8-0.8H43c0.7,0,1.3,0.3,1.8,0.8c0.5,0.5,0.7,1.2,0.7,1.9v43.5c0,0.7-0.2,1.4-0.7,1.9
			c-0.5,0.5-1.1,0.8-1.8,0.8h-7.4c-0.7,0-1.3-0.3-1.8-0.8c-0.5-0.5-0.7-1.2-0.7-1.9v-14.3c0-0.4-0.2-0.6-0.6-0.6H17.6z"/>
		<path class="st9" d="M64.6,284.7c-0.3,0-0.5,0.1-0.6,0.4l-1.7,4.6c-0.4,1.2-1.2,1.7-2.3,1.7h-8c-0.9,0-1.6-0.4-2.1-1.2
			c-0.5-0.8-0.6-1.6-0.2-2.5l15.5-43.5c0.4-1.1,1.2-1.7,2.3-1.7h10.8c1.1,0,1.9,0.6,2.3,1.7l15.1,43.4c0.3,0.9,0.2,1.7-0.2,2.5
			c-0.5,0.8-1.2,1.2-2.1,1.2h-8c-1.1,0-1.9-0.6-2.3-1.7l-1.6-4.6c-0.1-0.3-0.3-0.4-0.6-0.4H64.6z M73.5,261.8
			c-0.1-0.3-0.3-0.4-0.6-0.4c-0.3,0-0.5,0.1-0.6,0.4l-3,8.4c-0.1,0.2,0,0.4,0.1,0.6c0.1,0.2,0.3,0.3,0.5,0.3h5.9
			c0.2,0,0.4-0.1,0.5-0.3c0.1-0.2,0.2-0.4,0.1-0.6L73.5,261.8z"/>
		<path class="st9" d="M116.1,291.5c-6.2,0-11.5-2.4-15.8-7.1c-4.4-4.8-6.5-10.5-6.5-17.3c0-6.7,2.2-12.5,6.5-17.3
			c4-4.4,8.8-6.7,14.5-7.1c5.6-0.4,10.6,1.3,15,5.1c0.6,0.5,0.9,1.2,1,2c0,0.8-0.2,1.5-0.7,2.1l-5.3,5.9c-1,1-2,1.1-3.1,0.3
			c-2-1.4-4.1-2-6.4-1.7c-2.4,0.3-4.4,1.3-6.1,3.1c-1.9,2.1-2.9,4.7-2.9,7.7c0,3,1,5.6,2.9,7.7c1.7,1.8,3.7,2.9,6.1,3.1
			c2.3,0.3,4.5-0.3,6.4-1.7c1.1-0.8,2.2-0.7,3.1,0.3l5.3,5.8c0.5,0.6,0.8,1.3,0.7,2.1c-0.1,0.8-0.4,1.4-1,1.9
			C125.8,289.8,121.2,291.5,116.1,291.5z"/>
		<path class="st9" d="M147.2,278.9c-0.1,0.1-0.2,0.3-0.2,0.5v9.5c0,0.7-0.2,1.4-0.7,1.9c-0.5,0.5-1.1,0.8-1.8,0.8h-7.5
			c-0.7,0-1.2-0.3-1.7-0.8c-0.5-0.5-0.7-1.2-0.7-1.9v-43.5c0-0.8,0.2-1.4,0.7-1.9c0.5-0.5,1.1-0.8,1.7-0.8h7.5
			c0.7,0,1.3,0.3,1.8,0.8c0.5,0.5,0.7,1.2,0.7,1.9v11.8c0,0.3,0.1,0.5,0.4,0.6c0.3,0.1,0.5,0.1,0.7-0.2l11.7-14
			c0.5-0.6,1.1-0.9,1.8-0.9h10.1c1.1,0,1.8,0.5,2.2,1.6c0.4,1.1,0.3,2.1-0.4,2.9l-12,14.5c-0.2,0.2-0.2,0.5-0.1,0.8l13.5,24.9
			c0.5,0.9,0.5,1.8,0,2.7c-0.5,0.9-1.2,1.4-2.2,1.4h-8.7c-0.9,0-1.6-0.4-2.1-1.3l-9.1-16.8c-0.1-0.2-0.3-0.3-0.5-0.3
			c-0.2,0-0.4,0-0.5,0.2L147.2,278.9z"/>
		<path class="st9" d="M194.7,284.7c-0.3,0-0.5,0.1-0.6,0.4l-1.7,4.6c-0.4,1.2-1.2,1.7-2.3,1.7h-8c-0.9,0-1.6-0.4-2.1-1.2
			c-0.5-0.8-0.6-1.6-0.2-2.5l15.5-43.5c0.4-1.1,1.2-1.7,2.3-1.7h10.8c1.1,0,1.9,0.6,2.3,1.7l15.1,43.4c0.3,0.9,0.2,1.7-0.2,2.5
			c-0.5,0.8-1.2,1.2-2.1,1.2h-8c-1.1,0-1.9-0.6-2.3-1.7l-1.6-4.6c-0.1-0.3-0.3-0.4-0.6-0.4H194.7z M203.6,261.8
			c-0.1-0.3-0.3-0.4-0.6-0.4c-0.3,0-0.5,0.1-0.6,0.4l-3,8.4c-0.1,0.2,0,0.4,0.1,0.6c0.1,0.2,0.3,0.3,0.5,0.3h5.9
			c0.2,0,0.4-0.1,0.5-0.3c0.1-0.2,0.2-0.4,0.1-0.6L203.6,261.8z"/>
		<path class="st9" d="M235.3,291.5c-0.7,0-1.2-0.3-1.8-0.8c-0.5-0.5-0.7-1.2-0.7-1.9v-31.9c0-0.5-0.2-0.7-0.6-0.7h-10.6
			c-0.7,0-1.2-0.3-1.8-0.8c-0.5-0.5-0.7-1.2-0.7-1.9v-8.2c0-0.8,0.2-1.4,0.7-1.9c0.5-0.5,1.1-0.8,1.8-0.8h34.8
			c0.7,0,1.3,0.3,1.8,0.8c0.5,0.5,0.7,1.2,0.7,1.9v8.2c0,0.8-0.2,1.4-0.7,1.9c-0.5,0.5-1.1,0.8-1.8,0.8h-10.6
			c-0.4,0-0.6,0.2-0.6,0.7v31.9c0,0.7-0.2,1.4-0.7,1.9c-0.5,0.5-1.1,0.8-1.8,0.8H235.3z"/>
		<path class="st9" d="M275.7,273.9c-0.4,0-0.6,0.2-0.6,0.6v14.3c0,0.7-0.2,1.4-0.7,1.9c-0.5,0.5-1.1,0.8-1.8,0.8h-7.5
			c-0.7,0-1.2-0.3-1.8-0.8c-0.5-0.5-0.7-1.2-0.7-1.9v-43.5c0-0.8,0.2-1.4,0.7-1.9c0.5-0.5,1.1-0.8,1.8-0.8h7.5
			c0.7,0,1.3,0.3,1.8,0.8c0.5,0.5,0.7,1.2,0.7,1.9v14.2c0,0.5,0.2,0.7,0.6,0.7h14.9c0.4,0,0.6-0.2,0.6-0.7v-14.2
			c0-0.8,0.2-1.4,0.7-1.9c0.5-0.5,1.1-0.8,1.8-0.8h7.4c0.7,0,1.3,0.3,1.8,0.8c0.5,0.5,0.7,1.2,0.7,1.9v43.5c0,0.7-0.2,1.4-0.7,1.9
			c-0.5,0.5-1.1,0.8-1.8,0.8h-7.4c-0.7,0-1.3-0.3-1.8-0.8c-0.5-0.5-0.7-1.2-0.7-1.9v-14.3c0-0.4-0.2-0.6-0.6-0.6H275.7z"/>
		<path class="st9" d="M329.7,291.5c-6.2,0-11.4-2.4-15.8-7.2c-4.4-4.8-6.6-10.5-6.6-17.3c0-6.7,2.2-12.5,6.6-17.3
			c4.4-4.8,9.6-7.2,15.8-7.2s11.4,2.4,15.8,7.2c4.4,4.8,6.6,10.5,6.6,17.3c0,6.7-2.2,12.5-6.6,17.3
			C341.2,289.1,335.9,291.5,329.7,291.5z M329.7,256.2c-2.7,0-5.1,1.1-7,3.2c-1.9,2.1-2.9,4.7-2.9,7.7c0,3,1,5.5,2.9,7.7
			c2,2.1,4.3,3.2,7,3.2c2.7,0,5.1-1.1,7-3.2c1.9-2.1,2.9-4.7,2.9-7.7c0-3-1-5.5-2.9-7.7C334.8,257.3,332.5,256.2,329.7,256.2z"/>
		<path class="st9" d="M369.4,270c-0.2-0.3-0.4-0.4-0.7-0.3c-0.3,0.1-0.4,0.3-0.4,0.6v18.4c0,0.7-0.2,1.4-0.7,1.9
			c-0.5,0.5-1.1,0.8-1.8,0.8h-7.5c-0.7,0-1.2-0.3-1.8-0.8c-0.5-0.5-0.7-1.2-0.7-1.9v-43.5c0-0.8,0.2-1.4,0.7-1.9
			c0.5-0.5,1.1-0.8,1.8-0.8h7.4c0.9,0,1.6,0.4,2,1.2l13,20.3c0.2,0.3,0.4,0.4,0.7,0.3c0.3-0.1,0.4-0.3,0.4-0.6v-18.4
			c0-0.8,0.2-1.4,0.7-1.9c0.5-0.5,1.1-0.8,1.8-0.8h7.4c0.7,0,1.3,0.3,1.8,0.8c0.5,0.5,0.7,1.2,0.7,1.9v43.5c0,0.7-0.2,1.4-0.7,1.9
			c-0.5,0.5-1.1,0.8-1.8,0.8h-7.4c-0.9,0-1.5-0.4-2-1.2L369.4,270z"/>
	</g>
</g>
<g id="Layer_6">
	<rect class="st10" width="396" height="432.6"/>
</g>
<g id="hackathon">
	<g>
		<path class="st10" d="M199,432.3c-5.7,0-11.5-1.4-16.7-4.2L48.4,356.9c-11.6-6.2-18.9-18.2-18.9-31.4v-219
			c0-13.2,7.2-25.2,18.8-31.4L182.2,3.8c10.5-5.6,23.1-5.6,33.6,0.1l132.3,71.3c11.5,6.2,18.7,18.2,18.7,31.3v219.2
			c0,13.1-7.2,25.1-18.7,31.3l-132.3,71.1C210.5,430.9,204.7,432.3,199,432.3z"/>
		<path class="st11" d="M199,432.3c-5.7,0-11.5-1.4-16.7-4.2L48.4,356.9c-11.6-6.2-18.9-18.2-18.9-31.4v-219
			c0-13.2,7.2-25.2,18.8-31.4L182.2,3.8c10.5-5.6,23.1-5.6,33.6,0.1l132.3,71.3c11.5,6.2,18.7,18.2,18.7,31.3v219.2
			c0,13.1-7.2,25.1-18.7,31.3l-132.3,71.1C210.5,430.9,204.7,432.3,199,432.3z M199,5.6c-4.8,0-9.5,1.2-13.9,3.5L51.2,80.5
			c-9.7,5.1-15.7,15.1-15.7,26.1v219c0,11,6,21,15.7,26.1l133.9,71.2c8.7,4.6,19.1,4.6,27.9-0.1l132.3-71.1
			c9.6-5.2,15.6-15.1,15.6-26V106.4c0-10.9-6-20.9-15.5-26L213,9.1C208.6,6.8,203.8,5.6,199,5.6z"/>
	</g>
	<path class="st12" d="M158.2,351.1c-0.1,1.8-0.8,3.2-2,4.2c-1.2,1-2.8,1.5-4.7,1.5c-2.1,0-3.8-0.7-5.1-2.2
		c-1.2-1.4-1.8-3.4-1.8-5.9v-1c0-1.6,0.3-3,0.9-4.2c0.6-1.2,1.4-2.2,2.4-2.8c1.1-0.7,2.3-1,3.7-1c1.9,0,3.5,0.5,4.7,1.6
		c1.2,1,1.9,2.5,2,4.4h-3.4c-0.1-1.1-0.4-1.9-0.9-2.3c-0.5-0.5-1.3-0.7-2.4-0.7c-1.1,0-2,0.4-2.6,1.2s-0.9,2.1-0.9,3.8v1.3
		c0,1.8,0.3,3.1,0.8,4c0.5,0.8,1.4,1.3,2.6,1.3c1.1,0,1.9-0.2,2.4-0.7c0.5-0.5,0.8-1.2,0.9-2.3H158.2z M174.1,348.7
		c0,1.6-0.3,3.1-0.9,4.3c-0.6,1.2-1.4,2.2-2.5,2.9c-1.1,0.7-2.3,1-3.7,1c-1.4,0-2.6-0.3-3.7-1c-1.1-0.7-1.9-1.6-2.5-2.9
		c-0.6-1.2-0.9-2.7-0.9-4.3V348c0-1.6,0.3-3.1,0.9-4.3c0.6-1.3,1.4-2.2,2.5-2.9c1.1-0.7,2.3-1,3.7-1s2.6,0.3,3.7,1
		c1.1,0.7,1.9,1.6,2.5,2.9c0.6,1.3,0.9,2.7,0.9,4.3V348.7z M170.7,347.9c0-1.8-0.3-3.1-0.9-4c-0.6-0.9-1.5-1.4-2.7-1.4
		c-1.2,0-2,0.5-2.7,1.3c-0.6,0.9-0.9,2.2-1,4v0.8c0,1.7,0.3,3,0.9,4c0.6,0.9,1.5,1.4,2.7,1.4c1.2,0,2-0.5,2.7-1.4
		c0.6-0.9,0.9-2.2,0.9-4V347.9z M176.6,356.7V340h5.1c1.5,0,2.8,0.3,3.9,1s2.1,1.6,2.7,2.8c0.7,1.2,1,2.6,1,4.2v0.8
		c0,1.6-0.3,2.9-1,4.1c-0.6,1.2-1.5,2.1-2.7,2.8c-1.2,0.7-2.5,1-3.9,1H176.6z M180.1,342.7v11.2h1.7c1.3,0,2.4-0.4,3.1-1.3
		c0.7-0.9,1.1-2.1,1.1-3.8v-0.9c0-1.7-0.4-3-1.1-3.9c-0.7-0.9-1.7-1.3-3.1-1.3H180.1z M202,349.4h-6.6v4.5h7.8v2.8h-11.2V340h11.2
		v2.8h-7.7v4h6.6V349.4z M211.3,350.6h-2.7v6.1h-3.4V340h6.2c2,0,3.5,0.4,4.6,1.3c1.1,0.9,1.6,2.1,1.6,3.7c0,1.1-0.2,2.1-0.7,2.9
		c-0.5,0.8-1.2,1.4-2.2,1.8l3.6,6.8v0.2h-3.7L211.3,350.6z M208.6,347.8h2.8c0.9,0,1.5-0.2,2-0.7s0.7-1,0.7-1.8
		c0-0.8-0.2-1.4-0.7-1.9c-0.4-0.5-1.1-0.7-2.1-0.7h-2.8V347.8z M230.2,349.4h-6.6v4.5h7.8v2.8h-11.2V340h11.2v2.8h-7.7v4h6.6V349.4z
		 M233.4,356.7V340h5.1c1.5,0,2.8,0.3,3.9,1c1.2,0.7,2.1,1.6,2.7,2.8c0.7,1.2,1,2.6,1,4.2v0.8c0,1.6-0.3,2.9-1,4.1
		c-0.6,1.2-1.5,2.1-2.7,2.8c-1.2,0.7-2.5,1-3.9,1H233.4z M236.8,342.7v11.2h1.7c1.3,0,2.4-0.4,3.1-1.3c0.7-0.9,1.1-2.1,1.1-3.8v-0.9
		c0-1.7-0.4-3-1.1-3.9c-0.7-0.9-1.7-1.3-3.1-1.3H236.8z M156.7,137.7c-1.9,0-3.1-1.7-4.9-0.9c-2.7,5.4,1.9,9.1,3.8,13.4
		c-1.3,1.3-3.6-0.2-4.4,1.8c0.6,5.8,5.2,8.4,9.3,11.5c-1.5,0.9-3.4-0.2-4.4,1.9c0.3,1.8,1.8,2.9,3.1,4.1c3,2.7,7.1,2.8,10.7,4.4
		c-1.4,0.9-3.6,1-3.6,3.4c4.3,5,10.4,3.1,15.8,3.8c0,2.1-3.1,1.9-2.5,4.3c5.9,3.2,11.8,1.1,17.9-1.3c-1.3,2.8-4.9,4.4-2,7.5
		c2.3-0.2,3-2.4,4.7-3.2c1.6,1,2.5,3.5,5.1,2.9c1.9-2.2-0.9-4-0.5-6.2c5.4,1.5,10.8,3.4,15.8,0.2c0.2-2.1-2.3-2.5-1.4-4.5
		c5.4,0.1,11.1,0.8,15.2-3.9c0-2-3.2-1.4-2.7-3.6c5.1-1.5,10.4-2.4,12.3-8.1c-1-2.1-3-0.7-4-2c4.1-3.2,9.1-5.6,9.1-12.1l-4.6-0.7
		c3.2-4.3,6.1-8.2,4.2-12.9c-2.2-1.6-3.6,0.7-5.4,0.4c3.1-7.2,2.7-11.1-1.3-14.6c-7.2,5.2-8,14.2-1.7,18.4
		c-2.5,3.8-3.5,7.7-0.9,12.1c-3.9,2.6-6.1,6.2-5.9,11c-4.2,1.5-7.4,3.7-8.8,7.9c-4.7,1-9.1,2.4-11.6,5.9c-8.7,0.4-16.8,0.7-25.5-0.3
		c-2.5-2.3-5.8-5-10.4-4.4l0,0c-3.1-3.5-5-8.3-10.3-9.1c0.4-5.4-2.6-8.5-6-11.4c3-3.6,3-3.8-0.3-11.7c6.4-5.9,5.3-13.8-2.5-18.1
		C152.9,127.7,155.7,132.8,156.7,137.7z M202.5,183.4c-1.5,0.3-2.3-0.2-3.2-1.7h0C201.5,181.2,201.9,182.3,202.5,183.4z
		 M169.7,122.5c20.7-15.9,41.1-15.3,61.5,0.2l4.9-4h0c-18.2-20.6-56.5-18.8-71.6-0.1C166,120.5,167.6,122.1,169.7,122.5z M210.4,137
		c-5.3-1.8-7-9.1-10.2-14.7c-2.1,3.6-3.9,6.6-5.9,10.7c-1.9,3.8-3.7,3.8-8.1,4.8c-4.7,0.9-9.3,2.1-13.8,3.6
		c5.2,4.2,10.7,5.7,14.8,9.9c-1,5.4-3.5,11.4-4,17.4c6.3-3,11.6-6,17-8.4c5.7,2.6,11.2,6,17.1,8.4c-1-5.6-3.8-11.5-4-17.2
		c4.6-3.8,8.9-6,14.4-10.1C221.8,140.3,216,138.9,210.4,137z M23.1,273.6c-0.4,0-0.6,0.2-0.6,0.6V288c0,0.7-0.2,1.3-0.7,1.8
		c-0.5,0.5-1,0.8-1.7,0.8H13c-0.6,0-1.2-0.3-1.7-0.8c-0.5-0.5-0.7-1.1-0.7-1.8v-41.8c0-0.7,0.2-1.3,0.7-1.8c0.5-0.5,1-0.8,1.7-0.8
		h7.2c0.7,0,1.2,0.3,1.7,0.8c0.5,0.5,0.7,1.1,0.7,1.8v13.7c0,0.4,0.2,0.7,0.6,0.7h14.3c0.4,0,0.6-0.2,0.6-0.7v-13.7
		c0-0.7,0.2-1.3,0.7-1.8c0.5-0.5,1-0.8,1.7-0.8h7.2c0.7,0,1.2,0.3,1.7,0.8c0.5,0.5,0.7,1.1,0.7,1.8V288c0,0.7-0.2,1.3-0.7,1.8
		c-0.5,0.5-1.1,0.8-1.7,0.8h-7.2c-0.7,0-1.2-0.3-1.7-0.8c-0.5-0.5-0.7-1.1-0.7-1.8v-13.7c0-0.4-0.2-0.6-0.6-0.6H23.1z M68.4,284
		c-0.3,0-0.4,0.1-0.5,0.4l-1.6,4.4c-0.4,1.1-1.1,1.7-2.2,1.7h-7.7c-0.8,0-1.5-0.4-2-1.2c-0.5-0.7-0.5-1.5-0.2-2.4L69,245.2
		c0.4-1.1,1.1-1.6,2.2-1.6h10.4c1.1,0,1.8,0.6,2.2,1.7L98.5,287c0.3,0.9,0.2,1.7-0.2,2.4c-0.5,0.7-1.1,1.1-2,1.1h-7.7
		c-1.1,0-1.8-0.6-2.2-1.7l-1.5-4.4c-0.1-0.3-0.3-0.4-0.6-0.4H68.4z M77,262c-0.1-0.3-0.3-0.4-0.6-0.4c-0.3,0-0.4,0.1-0.5,0.4
		l-2.9,8.1c-0.1,0.2,0,0.4,0.1,0.6c0.1,0.2,0.3,0.3,0.5,0.3h5.7c0.2,0,0.4-0.1,0.5-0.3c0.1-0.2,0.2-0.4,0.1-0.6L77,262z M118,290.6
		c-6,0-11-2.3-15.2-6.9c-4.2-4.6-6.3-10.1-6.3-16.6c0-6.5,2.1-12,6.3-16.6c3.8-4.2,8.5-6.5,13.9-6.8c5.4-0.4,10.2,1.3,14.5,4.9
		c0.6,0.5,0.9,1.1,0.9,1.9c0,0.8-0.2,1.5-0.7,2l-5.1,5.7c-0.9,1-1.9,1.1-3,0.3c-1.9-1.4-4-1.9-6.2-1.7c-2.3,0.2-4.2,1.3-5.8,3
		c-1.9,2-2.8,4.5-2.8,7.4c0,2.9,0.9,5.4,2.8,7.4c1.6,1.8,3.6,2.8,5.8,3c2.2,0.2,4.3-0.3,6.2-1.6c1.1-0.8,2.1-0.7,3,0.3l5.1,5.6
		c0.5,0.6,0.7,1.3,0.7,2c-0.1,0.8-0.4,1.4-0.9,1.9C127.3,288.9,122.9,290.6,118,290.6z M147.9,278.4c-0.1,0.1-0.2,0.3-0.2,0.5v9.1
		c0,0.7-0.2,1.3-0.7,1.8c-0.5,0.5-1,0.8-1.7,0.8h-7.2c-0.6,0-1.2-0.3-1.7-0.8c-0.5-0.5-0.7-1.1-0.7-1.8v-41.8c0-0.7,0.2-1.3,0.7-1.8
		c0.5-0.5,1-0.8,1.7-0.8h7.2c0.7,0,1.2,0.3,1.7,0.8c0.5,0.5,0.7,1.1,0.7,1.8v11.3c0,0.3,0.1,0.5,0.4,0.6c0.3,0.1,0.5,0.1,0.7-0.2
		l11.2-13.5c0.5-0.6,1.1-0.9,1.8-0.9h9.7c1,0,1.7,0.5,2.2,1.5c0.4,1.1,0.3,2-0.4,2.8l-11.6,13.9c-0.2,0.2-0.2,0.5-0.1,0.8l13,24
		c0.5,0.9,0.5,1.8,0,2.6c-0.4,0.9-1.1,1.3-2.1,1.3h-8.3c-0.9,0-1.6-0.4-2-1.3l-8.8-16.2c-0.1-0.2-0.3-0.3-0.5-0.3
		c-0.2,0-0.4,0-0.5,0.2L147.9,278.4z M193.6,284c-0.3,0-0.4,0.1-0.5,0.4l-1.6,4.4c-0.4,1.1-1.1,1.7-2.2,1.7h-7.7
		c-0.8,0-1.5-0.4-2-1.2c-0.5-0.7-0.5-1.5-0.2-2.4l14.9-41.8c0.4-1.1,1.1-1.6,2.2-1.6h10.4c1.1,0,1.8,0.6,2.2,1.7l14.5,41.8
		c0.3,0.9,0.2,1.7-0.2,2.4c-0.5,0.7-1.1,1.1-2,1.1h-7.7c-1.1,0-1.8-0.6-2.2-1.7l-1.5-4.4c-0.1-0.3-0.3-0.4-0.6-0.4H193.6z
		 M202.2,262c-0.1-0.3-0.3-0.4-0.6-0.4c-0.3,0-0.4,0.1-0.5,0.4l-2.9,8.1c-0.1,0.2,0,0.4,0.1,0.6c0.1,0.2,0.3,0.3,0.5,0.3h5.7
		c0.2,0,0.4-0.1,0.5-0.3c0.1-0.2,0.2-0.4,0.1-0.6L202.2,262z M232.7,290.6c-0.6,0-1.2-0.3-1.7-0.8c-0.5-0.5-0.7-1.1-0.7-1.8v-30.7
		c0-0.4-0.2-0.7-0.6-0.7h-10.2c-0.6,0-1.2-0.3-1.7-0.8c-0.5-0.5-0.7-1.1-0.7-1.8v-7.9c0-0.7,0.2-1.3,0.7-1.8c0.5-0.5,1-0.8,1.7-0.8
		h33.5c0.7,0,1.2,0.3,1.7,0.8c0.5,0.5,0.7,1.1,0.7,1.8v7.9c0,0.7-0.2,1.3-0.7,1.8c-0.5,0.5-1,0.8-1.7,0.8h-10.2
		c-0.4,0-0.6,0.2-0.6,0.7V288c0,0.7-0.2,1.3-0.7,1.8c-0.5,0.5-1,0.8-1.7,0.8H232.7z M271.6,273.6c-0.4,0-0.6,0.2-0.6,0.6V288
		c0,0.7-0.2,1.3-0.7,1.8c-0.5,0.5-1,0.8-1.7,0.8h-7.2c-0.6,0-1.2-0.3-1.7-0.8c-0.5-0.5-0.7-1.1-0.7-1.8v-41.8c0-0.7,0.2-1.3,0.7-1.8
		c0.5-0.5,1-0.8,1.7-0.8h7.2c0.7,0,1.2,0.3,1.7,0.8c0.5,0.5,0.7,1.1,0.7,1.8v13.7c0,0.4,0.2,0.7,0.6,0.7h14.3c0.4,0,0.6-0.2,0.6-0.7
		v-13.7c0-0.7,0.2-1.3,0.7-1.8c0.5-0.5,1-0.8,1.7-0.8h7.2c0.7,0,1.2,0.3,1.7,0.8c0.5,0.5,0.7,1.1,0.7,1.8V288c0,0.7-0.2,1.3-0.7,1.8
		c-0.5,0.5-1.1,0.8-1.7,0.8h-7.2c-0.7,0-1.2-0.3-1.7-0.8c-0.5-0.5-0.7-1.1-0.7-1.8v-13.7c0-0.4-0.2-0.6-0.6-0.6H271.6z M323.6,290.6
		c-5.9,0-11-2.3-15.2-6.9c-4.2-4.6-6.3-10.1-6.3-16.6c0-6.5,2.1-12,6.3-16.6c4.2-4.6,9.3-6.9,15.2-6.9c5.9,0,11,2.3,15.2,6.9
		c4.2,4.6,6.3,10.1,6.3,16.6c0,6.5-2.1,12-6.3,16.6C334.6,288.3,329.5,290.6,323.6,290.6z M323.6,256.6c-2.6,0-4.9,1-6.8,3.1
		c-1.9,2.1-2.8,4.5-2.8,7.4c0,2.9,0.9,5.3,2.8,7.4c1.9,2,4.1,3.1,6.8,3.1c2.6,0,4.9-1,6.8-3.1c1.9-2.1,2.8-4.5,2.8-7.4
		c0-2.9-0.9-5.3-2.8-7.4C328.5,257.6,326.2,256.6,323.6,256.6z M361.7,269.9c-0.2-0.3-0.4-0.4-0.7-0.3c-0.3,0.1-0.4,0.3-0.4,0.6V288
		c0,0.7-0.2,1.3-0.7,1.8c-0.5,0.5-1,0.8-1.7,0.8h-7.2c-0.6,0-1.2-0.3-1.7-0.8c-0.5-0.5-0.7-1.1-0.7-1.8v-41.8c0-0.7,0.2-1.3,0.7-1.8
		c0.5-0.5,1-0.8,1.7-0.8h7.1c0.8,0,1.5,0.4,2,1.1l12.5,19.6c0.2,0.3,0.4,0.4,0.7,0.3c0.3-0.1,0.4-0.3,0.4-0.6v-17.7
		c0-0.7,0.2-1.3,0.7-1.8c0.5-0.5,1.1-0.8,1.7-0.8h7.2c0.7,0,1.2,0.3,1.7,0.8c0.5,0.5,0.7,1.1,0.7,1.8V288c0,0.7-0.2,1.3-0.7,1.8
		c-0.5,0.5-1,0.8-1.7,0.8h-7.1c-0.8,0-1.5-0.4-2-1.1L361.7,269.9z M0,318.4v16.3c4.7-0.9,21.3-3.8,45.8-7c0.8,6.7,4.8,12.7,10.8,16
		l131.6,71.1c3.1,1.7,6.5,2.5,9.9,2.5c3.4,0,6.8-0.8,9.9-2.5l131.6-71.1c6-3.3,10-9.2,10.8-15.9c24,3.2,40.4,6,45.5,6.9v-16.2
		c-20.4-3.6-105.2-17.3-198.7-17.3C104.2,301,19.8,314.9,0,318.4z M330.7,325.2c0,0.3-0.2,0.6-0.5,0.8l-131.6,71.1
		c-0.3,0.1-0.6,0.1-0.9,0L66.1,326c-0.3-0.2-0.5-0.5-0.5-0.8v-0.1c35.8-4.2,82.5-8.1,131.7-8.1C247.2,317,294.5,321,330.7,325.2
		L330.7,325.2z M350.7,209.3V106.5c0-7.7-4.2-14.7-11-18.4L208.2,17c-6.2-3.4-13.7-3.4-19.9,0L56.6,88.1c-6.8,3.7-11,10.7-11,18.4
		v102.8H0.2v16h396v-16H350.7z M330.7,209.3h-265V106.5c0-0.3,0.2-0.6,0.5-0.8l93-50.2c1.1,1.4,14.1,17.5,21.6,25.4h11.4
		c0,0,0,3.6,0,5.3c-7.8,0.8-15.5,2.7-22.8,5.7c-22.1,9.6-39.3,30.4-38.3,55.1c0.7,19.3,10.6,33.9,26.1,44.8
		c11.3,8.1,24.9,12.4,38.8,12.1c14.5-0.1,28.6-0.4,41.4-8.3c20.5-12.5,33.4-29.7,31.6-54.7c-1.4-19.1-12-33-27.5-43.5
		c-10.2-6.8-21.6-10-33.9-11.3c0-1.8,0.1-5.4,0.1-5.4h12.8c-5.6-7-29.8-36.6-33.2-40.6l10.6-5.7c0.1-0.1,0.3-0.1,0.4-0.1
		c0.1,0,0.3,0,0.4,0.1l12.9,7l-5,6.9l19.7,24.4l13.4-16.1l90.5,48.9c0.3,0.2,0.5,0.5,0.5,0.8V209.3z M244.2,113.6
		c19.4,19.5,17.1,50.6-4.5,67.6c-11.8,9.3-25,13.3-41.3,13.9c-21.8-1.4-41.2-9.8-51.7-32.1c-7.4-15.6-5-31,5.5-44.5
		C174.2,89.8,219.6,88.9,244.2,113.6z"/>
	<rect x="50.5" y="108.5" class="st13" width="295.1" height="258.6"/>
	<text transform="matrix(1 0 0 1 78.8872 125.0102)"><tspan x="0" y="0" class="st12 st14 st15">Hackathon gira em torno de </tspan><tspan x="27.5" y="26.4" class="st12 st14 st15">problemas sugeridos por </tspan><tspan x="29.5" y="52.8" class="st12 st14 st15">empresas onde todos os </tspan><tspan x="100.8" y="79.2" class="st12 st14 st15">participantes são </tspan><tspan x="-14.5" y="105.6" class="st12 st14 st15">encarregados de desenvolver </tspan><tspan x="-19.4" y="132" class="st12 st14 st15">seus protótipos. O importante </tspan><tspan x="18.7" y="158.4" class="st12 st14 st15">é solucionar o problema e </tspan><tspan x="8.7" y="184.8" class="st12 st14 st15">participar em um ambiente </tspan><tspan x="23.4" y="211.2" class="st12 st14 st15">amistoso de competição.</tspan></text>
</g>
<g id="codedojo">
	<g>
		<path class="st10" d="M199,432.3c-5.7,0-11.5-1.4-16.7-4.2L48.4,356.9c-11.6-6.2-18.9-18.2-18.9-31.4v-219
			c0-13.2,7.2-25.2,18.8-31.4L182.2,3.8c10.5-5.6,23.1-5.6,33.6,0.1l132.3,71.3c11.5,6.2,18.7,18.2,18.7,31.3v219.2
			c0,13.1-7.2,25.1-18.7,31.3l-132.3,71.1C210.5,430.9,204.7,432.3,199,432.3z"/>
		<path class="st11" d="M199,432.3c-5.7,0-11.5-1.4-16.7-4.2L48.4,356.9c-11.6-6.2-18.9-18.2-18.9-31.4v-219
			c0-13.2,7.2-25.2,18.8-31.4L182.2,3.8c10.5-5.6,23.1-5.6,33.6,0.1l132.3,71.3c11.5,6.2,18.7,18.2,18.7,31.3v219.2
			c0,13.1-7.2,25.1-18.7,31.3l-132.3,71.1C210.5,430.9,204.7,432.3,199,432.3z M199,5.6c-4.8,0-9.5,1.2-13.9,3.5L51.2,80.5
			c-9.7,5.1-15.7,15.1-15.7,26.1v219c0,11,6,21,15.7,26.1l133.9,71.2c8.7,4.6,19.1,4.6,27.9-0.1l132.3-71.1
			c9.6-5.2,15.6-15.1,15.6-26V106.4c0-10.9-6-20.9-15.5-26L213,9.1C208.6,6.8,203.8,5.6,199,5.6z"/>
	</g>
	<path class="st12" d="M148,347.6v1.3c0,1.8,0.3,3.1,0.8,4c0.5,0.8,1.4,1.3,2.6,1.3c1.1,0,1.9-0.2,2.4-0.7c0.5-0.5,0.8-1.2,0.9-2.3
		h3.4c-0.1,1.8-0.8,3.2-2,4.2c-1.2,1-2.8,1.5-4.7,1.5c-2.1,0-3.8-0.7-5.1-2.2c-1.2-1.4-1.8-3.4-1.8-5.9v-1c0-1.6,0.3-3,0.9-4.2
		c0.6-1.2,1.4-2.2,2.4-2.8c1.1-0.7,2.3-1,3.7-1c1.9,0,3.5,0.5,4.7,1.6c1.2,1,1.9,2.5,2,4.4h-3.4c-0.1-1.1-0.4-1.9-0.9-2.3
		c-0.5-0.5-1.3-0.7-2.4-0.7c-1.1,0-2,0.4-2.6,1.2S148,345.9,148,347.6z M231.4,353.9h-7.8v-4.5h6.6v-2.7h-6.6v-4h7.7V340h-11.2v16.7
		h11.2V353.9z M208.6,356.7h-3.4V340h6.2c2,0,3.5,0.4,4.6,1.3c1.1,0.9,1.6,2.1,1.6,3.7c0,1.1-0.2,2.1-0.7,2.9
		c-0.5,0.8-1.2,1.4-2.2,1.8l3.6,6.8v0.2h-3.7l-3.1-6.1h-2.7V356.7z M208.6,347.8h2.8c0.9,0,1.5-0.2,2-0.7s0.7-1,0.7-1.8
		c0-0.8-0.2-1.4-0.7-1.9c-0.4-0.5-1.1-0.7-2.1-0.7h-2.8V347.8z M173.3,343.6c0.6,1.3,0.9,2.7,0.9,4.3v0.7c0,1.6-0.3,3.1-0.9,4.3
		c-0.6,1.2-1.4,2.2-2.5,2.9c-1.1,0.7-2.3,1-3.7,1c-1.4,0-2.6-0.3-3.7-1c-1.1-0.7-1.9-1.6-2.5-2.9c-0.6-1.2-0.9-2.7-0.9-4.3V348
		c0-1.6,0.3-3.1,0.9-4.3c0.6-1.3,1.4-2.2,2.5-2.9c1.1-0.7,2.3-1,3.7-1s2.6,0.3,3.7,1C171.8,341.4,172.7,342.4,173.3,343.6z
		 M170.7,347.9c0-1.8-0.3-3.1-0.9-4c-0.6-0.9-1.5-1.4-2.7-1.4c-1.2,0-2,0.5-2.7,1.3c-0.6,0.9-0.9,2.2-1,4v0.8c0,1.7,0.3,3,0.9,4
		c0.6,0.9,1.5,1.4,2.7,1.4c1.2,0,2-0.5,2.7-1.4c0.6-0.9,0.9-2.2,0.9-4V347.9z M188.5,343.8c0.7,1.2,1,2.6,1,4.2v0.8
		c0,1.6-0.3,2.9-1,4.1c-0.6,1.2-1.5,2.1-2.7,2.8c-1.2,0.7-2.5,1-3.9,1h-5.2V340h5.1c1.5,0,2.8,0.3,3.9,1S187.8,342.6,188.5,343.8z
		 M185.9,347.9c0-1.7-0.4-3-1.1-3.9c-0.7-0.9-1.7-1.3-3.1-1.3h-1.7v11.2h1.7c1.3,0,2.4-0.4,3.1-1.3c0.7-0.9,1.1-2.1,1.1-3.8V347.9z
		 M203.1,342.7V340h-11.2v16.7h11.2v-2.8h-7.8v-4.5h6.6v-2.7h-6.6v-4H203.1z M238.6,356.7h-5.2V340h5.1c1.5,0,2.8,0.3,3.9,1
		c1.2,0.7,2.1,1.6,2.7,2.8c0.7,1.2,1,2.6,1,4.2v0.8c0,1.6-0.3,2.9-1,4.1c-0.6,1.2-1.5,2.1-2.7,2.8
		C241.3,356.3,240,356.7,238.6,356.7z M238.5,353.9c1.3,0,2.4-0.4,3.1-1.3c0.7-0.9,1.1-2.1,1.1-3.8v-0.9c0-1.7-0.4-3-1.1-3.9
		c-0.7-0.9-1.7-1.3-3.1-1.3h-1.7v11.2H238.5z M197.3,301c93.4,0,178.2,13.7,198.7,17.3v16.2c-5.1-0.9-21.5-3.8-45.5-6.9
		c-0.8,6.7-4.8,12.7-10.8,15.9l-131.6,71.1c-3.1,1.7-6.5,2.5-9.9,2.5c-3.4,0-6.8-0.8-9.9-2.5L56.6,343.6c-6.1-3.3-10-9.3-10.8-16
		c-24.5,3.2-41.2,6.2-45.8,7v-16.3C19.8,314.9,104.2,301,197.3,301z M330.7,325.2c-36.1-4.2-83.5-8.2-133.3-8.2
		c-49.2,0-95.9,3.9-131.7,8.1v0.1c0,0.3,0.2,0.6,0.5,0.8l131.6,71.1c0.3,0.1,0.6,0.1,0.9,0L330.2,326
		C330.5,325.8,330.7,325.5,330.7,325.2L330.7,325.2z M396.2,209.3v16H0.2v-16h45.5V106.5c0-7.7,4.2-14.7,11-18.4L188.3,17
		c6.2-3.4,13.7-3.4,19.9,0l131.6,71.1c6.8,3.7,11,10.7,11,18.4v102.8H396.2z M103,85.8l0.2,1.2c63.9,10.7,191.6,0.3,191.6,0.3
		l0.7-0.4l-96.8-52.3c-0.1-0.1-0.3-0.1-0.4-0.1c-0.1,0-0.3,0-0.4,0.1L103,85.8z M238.5,143.6c0-3.9-1.3-4.7-4.9-4.6
		c-11,0.2-22,0.1-32.9,0.1c-11.3,0-22.6,0.1-34-0.1c-3.2,0-4.3,0.8-4.3,4.2c0.1,21,0.1,41.9,0,62.9c0,1.6,0.3,2.6,1,3.2h74.1
		c0.9-0.7,1.1-1.9,1.1-3.8C238.4,184.9,238.3,164.2,238.5,143.6z M164.3,120.5c2.7,4,6.8,4.4,10.9,4.5c3.6,0.1,7.3-0.1,11,0.1
		c3.2,0.2,3.3-1.7,3.3-4.1c0-2.4-0.3-4.1-3.5-4c-4.8,0.2-9.6,0.2-14.4,0C168.9,116.9,166.8,117.7,164.3,120.5L164.3,120.5z
		 M215,125.1c7.5,0.4,18.3,0.1,20.8-5.5h0c-1.4-1.7-3.5-2.7-5.7-2.6c-5,0.1-10,0.2-14.9,0c-3.4-0.2-3.8,1.5-3.8,4.2
		C211.4,124,212,125,215,125.1z M65.7,209.3h76.9c0.8-0.7,1-1.8,1-3.6c-0.1-12-0.3-24,0-36c0.2-5.5-1.6-10.9-5.1-15.2
		c-2.3-3-1.8-4.4,1.8-5.3c1-0.2,2-0.1,3-0.3c5-1.2,2.8-5.2,3.1-8.2c0.3-3.2-2.3-2.6-4.2-2.6c-6.5,0-13,0.1-19.5,0
		c-11.4-0.2-11.3,2.7-11.3-11.7c0-3.8,2-4.9,5-4.1c6.1,1.5,12.3,0.4,18.4,0.9c5.9,0.4,8-0.8,11.1-3.2l0.1,0c-1.5-2-4-3.1-6.5-2.9
		c-6.5,0.1-13,0.1-19.5,0c-3.2,0-6.9-0.3-8.1-3.7c-1.5-4.2-4.8-5.2-8.2-6.3c-5.8-1.8-11.3-3.8-12.6-10.9c-0.3-1.7-1.2-2.7-2.6-2.5
		l-22.2,12c-0.3,0.2-0.5,0.5-0.5,0.8V209.3z M330.7,106.5c0-0.3-0.2-0.6-0.5-0.8l-18.6-10.1c-0.7,0.1-1.3,0.8-1.7,2.5
		c-1.1,4.2-4.4,6.5-8.3,7.9c-2.3,0.8-4.8,1.4-7.1,2.3c-1.9,0.7-4.3,1.4-4.6,3.4c-0.7,5.4-4.7,5.3-8.5,5.4c-6,0.1-12,0.1-18,0
		c-3.4-0.2-6.7,0.9-9.2,3.2l0,0c3.4,2.6,6.3,2.8,9.5,2.8c5.5-0.1,11-0.1,16.5,0c2.9,0.1,6.3-2.8,8.5-0.2c2,2.3,0.6,6.1,0.7,9.2
		c0.1,6,0,6-6.2,6h-25c-1.6,0-3.3-0.4-3.8,2.1c-1.1,5.5,0.2,7.7,5.6,9c4.2,1,4.8,2.4,2.3,6s-4.1,7.3-4,12c0.3,12.5,0.3,25,0,37.4
		c-0.1,2.3,0.2,3.9,1.2,4.7h71.1V106.5z M54.2,286.1c0.6-0.5,1-1.2,1.1-2c0-0.8-0.2-1.5-0.8-2.1l-5.9-5.9c-1.1-1-2.2-1.1-3.4-0.3
		c-2.1,1.4-4.5,2-7.1,1.7c-2.6-0.2-4.8-1.3-6.6-3.1c-2.1-2.1-3.2-4.7-3.2-7.7c0-3,1.1-5.5,3.2-7.7c1.9-1.8,4.1-2.9,6.6-3.2
		c2.6-0.3,4.9,0.3,7.1,1.7c1.2,0.8,2.4,0.7,3.4-0.3l5.9-5.9c0.6-0.6,0.8-1.3,0.8-2.1c-0.1-0.8-0.4-1.5-1.1-2
		c-4.8-3.7-10.3-5.4-16.5-5.1c-6.2,0.4-11.5,2.7-15.9,7.1c-4.8,4.8-7.2,10.5-7.2,17.3c0,6.8,2.4,12.6,7.2,17.3
		c4.8,4.8,10.6,7.2,17.3,7.2C44.8,291.3,49.8,289.5,54.2,286.1z M95.1,284.1c4.8-4.8,7.2-10.5,7.2-17.3s-2.4-12.5-7.2-17.3
		c-4.8-4.8-10.5-7.2-17.3-7.2c-6.8,0-12.5,2.4-17.3,7.2c-4.8,4.8-7.2,10.5-7.2,17.3s2.4,12.5,7.2,17.3c4.8,4.8,10.5,7.2,17.3,7.2
		C84.6,291.3,90.3,288.9,95.1,284.1z M85.5,259.1c2.1,2.1,3.2,4.7,3.2,7.7c0,3-1.1,5.6-3.2,7.7c-2.1,2.1-4.7,3.2-7.7,3.2
		c-3,0-5.6-1.1-7.7-3.2c-2.1-2.1-3.2-4.7-3.2-7.7c0-3,1.1-5.6,3.2-7.7c2.1-2.1,4.7-3.2,7.7-3.2C80.8,255.9,83.4,256.9,85.5,259.1z
		 M144,249.5c-4.9-4.8-10.7-7.2-17.4-7.2h-17.5c-0.7,0-1.4,0.3-1.9,0.8c-0.5,0.5-0.8,1.2-0.8,1.9v43.6c0,0.7,0.3,1.4,0.8,1.9
		c0.5,0.5,1.2,0.8,1.9,0.8h17.7c6.8,0,12.5-2.4,17.3-7.2c4.8-4.8,7.2-10.6,7.2-17.3S148.9,254.3,144,249.5z M126.7,255.9
		c3,0,5.6,1.1,7.7,3.2c2.1,2.1,3.2,4.6,3.3,7.6c0,3-1,5.6-3.2,7.8c-2.1,2.1-4.7,3.2-7.7,3.2h-6.1c-0.5,0-0.7-0.2-0.7-0.7v-20.4
		c0-0.5,0.2-0.7,0.7-0.7H126.7z M169.7,277.7c-0.5,0-0.7-0.2-0.7-0.7v-4.1c0-0.5,0.2-0.7,0.7-0.7h16.1c0.8,0,1.4-0.3,1.9-0.8
		c0.5-0.5,0.8-1.2,0.8-2v-5.4c0-0.8-0.3-1.4-0.8-2c-0.5-0.5-1.2-0.8-1.9-0.8h-16.1c-0.5,0-0.7-0.2-0.7-0.7v-4.1
		c0-0.5,0.2-0.7,0.7-0.7h25.2c0.8,0,1.4-0.3,1.9-0.8c0.5-0.5,0.8-1.2,0.8-1.9V245c0-0.8-0.3-1.4-0.8-1.9c-0.5-0.5-1.2-0.8-1.9-0.8
		h-36.8c-0.7,0-1.4,0.3-1.9,0.8c-0.5,0.5-0.8,1.2-0.8,1.9v43.6c0,0.7,0.3,1.4,0.8,1.9c0.5,0.5,1.2,0.8,1.9,0.8h36.8
		c0.8,0,1.4-0.3,1.9-0.8c0.5-0.5,0.8-1.2,0.8-1.9v-8.2c0-0.8-0.3-1.4-0.8-1.9c-0.5-0.5-1.2-0.8-1.9-0.8H169.7z M239.3,249.5
		c-4.9-4.8-10.7-7.2-17.4-7.2h-17.5c-0.7,0-1.4,0.3-1.9,0.8c-0.5,0.5-0.8,1.2-0.8,1.9v43.6c0,0.7,0.3,1.4,0.8,1.9
		c0.5,0.5,1.2,0.8,1.9,0.8h17.7c6.8,0,12.5-2.4,17.3-7.2c4.8-4.8,7.2-10.6,7.2-17.3S244.2,254.3,239.3,249.5z M222,255.9
		c3,0,5.6,1.1,7.7,3.2c2.1,2.1,3.2,4.6,3.3,7.6c0,3-1,5.6-3.2,7.8c-2.1,2.1-4.7,3.2-7.7,3.2H216c-0.5,0-0.7-0.2-0.7-0.7v-20.4
		c0-0.5,0.2-0.7,0.7-0.7H222z M292.5,284.1c4.8-4.8,7.2-10.5,7.2-17.3s-2.4-12.5-7.2-17.3c-4.8-4.8-10.5-7.2-17.3-7.2
		c-6.8,0-12.5,2.4-17.3,7.2c-4.8,4.8-7.2,10.5-7.2,17.3s2.4,12.5,7.2,17.3c4.8,4.8,10.5,7.2,17.3,7.2
		C282,291.3,287.8,288.9,292.5,284.1z M282.9,259.1c2.1,2.1,3.2,4.7,3.2,7.7c0,3-1.1,5.6-3.2,7.7c-2.1,2.1-4.7,3.2-7.7,3.2
		c-3,0-5.6-1.1-7.7-3.2c-2.1-2.1-3.2-4.7-3.2-7.7c0-3,1.1-5.6,3.2-7.7c2.1-2.1,4.7-3.2,7.7-3.2C278.2,255.9,280.8,256.9,282.9,259.1
		z M328.3,245c0-0.8-0.3-1.4-0.8-1.9c-0.5-0.5-1.2-0.8-1.9-0.8h-8.2c-0.8,0-1.4,0.3-1.9,0.8c-0.5,0.5-0.8,1.2-0.8,1.9v27.2
		c0,1.5-0.5,2.8-1.6,3.8c-1.1,1.1-2.3,1.6-3.8,1.6h-2.7c-0.7,0-1.4,0.3-1.9,0.8c-0.5,0.5-0.8,1.2-0.8,1.9v8.2c0,0.7,0.3,1.4,0.8,1.9
		c0.5,0.5,1.2,0.8,1.9,0.8h2.7c5.3,0,9.7-1.9,13.5-5.6c3.7-3.7,5.6-8.2,5.6-13.5V245z M374.2,284.1c4.8-4.8,7.2-10.5,7.2-17.3
		s-2.4-12.5-7.2-17.3c-4.8-4.8-10.5-7.2-17.3-7.2c-6.8,0-12.5,2.4-17.3,7.2c-4.8,4.8-7.2,10.5-7.2,17.3s2.4,12.5,7.2,17.3
		c4.8,4.8,10.5,7.2,17.3,7.2C363.7,291.3,369.5,288.9,374.2,284.1z M364.6,259.1c2.1,2.1,3.2,4.7,3.2,7.7c0,3-1.1,5.6-3.2,7.7
		c-2.1,2.1-4.7,3.2-7.7,3.2c-3,0-5.6-1.1-7.7-3.2c-2.1-2.1-3.2-4.7-3.2-7.7c0-3,1.1-5.6,3.2-7.7c2.1-2.1,4.7-3.2,7.7-3.2
		C359.9,255.9,362.5,256.9,364.6,259.1z"/>
</g>
<g id="botcamp">
	<g>
		<path class="st10" d="M199,432.3c-5.7,0-11.5-1.4-16.7-4.2L48.4,356.9c-11.6-6.2-18.9-18.2-18.9-31.4v-219
			c0-13.2,7.2-25.2,18.8-31.4L182.2,3.8c10.5-5.6,23.1-5.6,33.6,0.1l132.3,71.3c11.5,6.2,18.7,18.2,18.7,31.3v219.2
			c0,13.1-7.2,25.1-18.7,31.3l-132.3,71.1C210.5,430.9,204.7,432.3,199,432.3z"/>
		<path class="st11" d="M199,432.3c-5.7,0-11.5-1.4-16.7-4.2L48.4,356.9c-11.6-6.2-18.9-18.2-18.9-31.4v-219
			c0-13.2,7.2-25.2,18.8-31.4L182.2,3.8c10.5-5.6,23.1-5.6,33.6,0.1l132.3,71.3c11.5,6.2,18.7,18.2,18.7,31.3v219.2
			c0,13.1-7.2,25.1-18.7,31.3l-132.3,71.1C210.5,430.9,204.7,432.3,199,432.3z M199,5.6c-4.8,0-9.5,1.2-13.9,3.5L51.2,80.5
			c-9.7,5.1-15.7,15.1-15.7,26.1v219c0,11,6,21,15.7,26.1l133.9,71.2c8.7,4.6,19.1,4.6,27.9-0.1l132.3-71.1
			c9.6-5.2,15.6-15.1,15.6-26V106.4c0-10.9-6-20.9-15.5-26L213,9.1C208.6,6.8,203.8,5.6,199,5.6z"/>
	</g>
	<path class="st12" d="M54.8,275c0,4-1.4,7.4-4.3,10.3c-2.9,2.9-6.4,4.3-10.4,4.3H18.2c-0.7,0-1.3-0.2-1.8-0.7
		c-0.5-0.5-0.7-1.1-0.7-1.8v-40.4c0-0.7,0.2-1.3,0.7-1.8c0.5-0.5,1.1-0.7,1.8-0.7h21.9c4,0,7.5,1.4,10.4,4.3
		c2.9,2.9,4.3,6.3,4.3,10.3c0,3-0.8,5.7-2.5,8.1C53.9,269.4,54.8,272.1,54.8,275z M28.2,260.9c0,0.4,0.2,0.6,0.6,0.6h11.2
		c0.6,0,1.2-0.2,1.6-0.7c0.5-0.5,0.7-1.1,0.7-1.8c0-0.7-0.2-1.3-0.7-1.8c-0.4-0.5-1-0.8-1.6-0.8H28.8c-0.4,0-0.6,0.2-0.6,0.6V260.9z
		 M28.2,276.8c0,0.4,0.2,0.6,0.6,0.6h11.2c0.6,0,1.2-0.3,1.6-0.8c0.5-0.5,0.7-1.1,0.7-1.8c0-0.7-0.2-1.3-0.7-1.8
		c-0.4-0.5-1-0.7-1.6-0.7H28.8c-0.4,0-0.6,0.2-0.6,0.6V276.8z M81.4,289.6c-6.3,0-11.6-2.2-16-6.7c-4.4-4.4-6.7-9.8-6.7-16
		c0-6.3,2.2-11.6,6.7-16c4.4-4.4,9.8-6.7,16-6.7c6.3,0,11.6,2.2,16,6.7c4.4,4.4,6.7,9.8,6.7,16c0,6.3-2.2,11.6-6.7,16
		C93,287.4,87.6,289.6,81.4,289.6z M81.4,256.8c-2.8,0-5.2,1-7.1,3c-2,2-3,4.4-3,7.1c0,2.8,1,5.2,3,7.1c2,2,4.4,3,7.1,3
		c2.8,0,5.2-1,7.1-3c2-2,3-4.4,3-7.1c0-2.8-1-5.2-3-7.1C86.5,257.8,84.1,256.8,81.4,256.8z M130.6,289.6c-6.3,0-11.6-2.2-16-6.7
		c-4.4-4.4-6.7-9.8-6.7-16c0-6.3,2.2-11.6,6.7-16c4.4-4.4,9.8-6.7,16-6.7c6.3,0,11.6,2.2,16,6.7c4.4,4.4,6.7,9.8,6.7,16
		c0,6.3-2.2,11.6-6.7,16C142.2,287.4,136.9,289.6,130.6,289.6z M130.6,256.8c-2.8,0-5.2,1-7.1,3c-2,2-3,4.4-3,7.1c0,2.8,1,5.2,3,7.1
		c2,2,4.4,3,7.1,3c2.8,0,5.2-1,7.1-3c2-2,3-4.4,3-7.1c0-2.8-1-5.2-3-7.1C135.7,257.8,133.4,256.8,130.6,256.8z M171.9,289.6
		c-0.7,0-1.3-0.2-1.8-0.7c-0.5-0.5-0.7-1.1-0.7-1.8v-29.7c0-0.4-0.2-0.6-0.6-0.6H158c-0.7,0-1.3-0.2-1.8-0.7
		c-0.5-0.5-0.7-1.1-0.7-1.8v-7.6c0-0.7,0.2-1.3,0.7-1.8c0.5-0.5,1.1-0.7,1.8-0.7h35.4c0.7,0,1.3,0.2,1.8,0.7
		c0.5,0.5,0.7,1.1,0.7,1.8v7.6c0,0.7-0.2,1.3-0.7,1.8c-0.5,0.5-1.1,0.7-1.8,0.7h-10.7c-0.4,0-0.6,0.2-0.6,0.6v29.7
		c0,0.7-0.2,1.3-0.7,1.8c-0.5,0.5-1.1,0.7-1.8,0.7H171.9z M222.4,289.6c-6.3,0-11.6-2.2-16.1-6.6c-4.4-4.4-6.6-9.8-6.6-16.1
		c0-6.3,2.2-11.6,6.6-16c4.1-4.1,9-6.3,14.7-6.6c5.7-0.3,10.8,1.2,15.3,4.7c0.6,0.5,0.9,1.1,1,1.8c0,0.8-0.2,1.4-0.7,1.9l-5.4,5.5
		c-1,1-2,1-3.2,0.3c-2-1.3-4.2-1.9-6.5-1.6c-2.4,0.2-4.4,1.2-6.2,2.9c-2,2-3,4.3-3,7.1c0,2.8,1,5.2,3,7.1c1.7,1.7,3.8,2.7,6.2,2.9
		c2.4,0.2,4.6-0.3,6.5-1.6c1.1-0.8,2.2-0.7,3.2,0.3l5.4,5.4c0.5,0.6,0.8,1.2,0.7,2c-0.1,0.7-0.4,1.3-1,1.8
		C232.2,288.1,227.6,289.6,222.4,289.6z M253.6,283.3c-0.3,0-0.5,0.1-0.6,0.4l-1.7,4.3c-0.4,1.1-1.2,1.6-2.4,1.6h-8.1
		c-0.9,0-1.6-0.4-2.1-1.1c-0.5-0.7-0.6-1.5-0.3-2.3l15.8-40.4c0.4-1.1,1.2-1.6,2.4-1.6h11c1.2,0,1.9,0.5,2.4,1.6l15.3,40.4
		c0.3,0.8,0.2,1.6-0.3,2.4c-0.5,0.7-1.2,1.1-2.1,1.1h-8.1c-1.2,0-1.9-0.5-2.3-1.6l-1.6-4.3c-0.1-0.3-0.3-0.4-0.6-0.4H253.6z
		 M262.7,262c-0.1-0.3-0.3-0.4-0.6-0.4c-0.3,0-0.5,0.1-0.6,0.4l-3.1,7.8c-0.1,0.2,0,0.4,0.1,0.6c0.1,0.2,0.3,0.3,0.5,0.3h6
		c0.2,0,0.4-0.1,0.5-0.3c0.1-0.2,0.2-0.4,0.1-0.6L262.7,262z M303.4,268.4c-0.2-0.3-0.4-0.3-0.7-0.2c-0.3,0.1-0.4,0.3-0.4,0.6v18.4
		c0,0.7-0.2,1.3-0.7,1.8c-0.5,0.5-1.1,0.7-1.8,0.7h-7.6c-0.7,0-1.3-0.2-1.8-0.7c-0.5-0.5-0.7-1.1-0.7-1.8v-40.4
		c0-0.7,0.2-1.3,0.7-1.8c0.5-0.5,1.1-0.7,1.8-0.7h8.4c0.9,0,1.6,0.4,2.1,1.1l10.5,14.9c0.1,0.2,0.3,0.3,0.5,0.3
		c0.2,0,0.4-0.1,0.5-0.3l10.4-14.9c0.5-0.7,1.2-1.1,2.1-1.1h8.4c0.7,0,1.3,0.2,1.8,0.7c0.5,0.5,0.8,1.1,0.8,1.8v40.4
		c0,0.7-0.3,1.3-0.8,1.8c-0.5,0.5-1.1,0.7-1.8,0.7h-7.6c-0.7,0-1.3-0.2-1.8-0.7c-0.5-0.5-0.8-1.1-0.8-1.8v-18.4
		c0-0.3-0.1-0.5-0.4-0.6c-0.3-0.1-0.5,0-0.7,0.2l-9.7,13.8c-0.1,0.2-0.3,0.3-0.5,0.3c-0.2,0-0.4-0.1-0.5-0.3L303.4,268.4z
		 M354.6,278.3c-0.4,0-0.6,0.2-0.6,0.6v8.2c0,0.7-0.2,1.3-0.7,1.8c-0.5,0.5-1.1,0.7-1.8,0.7h-7.6c-0.7,0-1.3-0.2-1.8-0.7
		c-0.5-0.5-0.7-1.1-0.7-1.8v-40.4c0-0.7,0.2-1.3,0.7-1.8c0.5-0.5,1.1-0.7,1.8-0.7h19.6c4.7,0,8.7,1.7,12.1,5c3.3,3.4,5,7.4,5,12.1
		c0,4.7-1.7,8.7-5.1,12c-3.4,3.3-7.4,4.9-12.1,4.9H354.6z M354.6,256.8c-0.4,0-0.6,0.2-0.6,0.6v7.6c0,0.4,0.2,0.6,0.6,0.6h8.8
		c1.2,0,2.3-0.4,3.2-1.3s1.3-1.9,1.2-3.2c0-1.2-0.5-2.2-1.4-3c-0.9-0.8-1.9-1.3-3.1-1.3H354.6z M185.7,341c-1.2-0.7-2.5-1-3.9-1
		h-5.1v16.7h5.2c1.5,0,2.8-0.3,3.9-1c1.2-0.7,2.1-1.6,2.7-2.8c0.6-1.2,1-2.6,1-4.1v-0.8c0-1.6-0.3-2.9-1-4.2
		C187.8,342.6,186.9,341.6,185.7,341z M185.9,348.8c0,1.6-0.4,2.9-1.1,3.8c-0.7,0.9-1.7,1.3-3.1,1.3h-1.7v-11.2h1.7
		c1.4,0,2.4,0.4,3.1,1.3c0.7,0.9,1.1,2.2,1.1,3.9V348.8z M148.9,343.8c0.6-0.8,1.4-1.2,2.6-1.2c1.1,0,1.8,0.2,2.4,0.7
		c0.5,0.5,0.8,1.3,0.9,2.3h3.4c-0.2-1.9-0.9-3.3-2-4.4c-1.2-1-2.7-1.6-4.7-1.6c-1.4,0-2.6,0.3-3.7,1c-1.1,0.7-1.9,1.6-2.4,2.8
		c-0.6,1.2-0.9,2.6-0.9,4.2v1c0,2.5,0.6,4.5,1.8,5.9c1.2,1.4,2.9,2.2,5.1,2.2c2,0,3.5-0.5,4.7-1.5c1.2-1,1.9-2.4,2-4.2h-3.4
		c-0.1,1-0.4,1.8-0.9,2.3c-0.5,0.5-1.3,0.7-2.4,0.7c-1.2,0-2-0.4-2.6-1.3c-0.5-0.8-0.8-2.2-0.8-4v-1.3
		C148,345.9,148.3,344.6,148.9,343.8z M170.7,340.7c-1.1-0.7-2.3-1-3.7-1s-2.6,0.3-3.7,1c-1.1,0.7-1.9,1.6-2.5,2.9
		c-0.6,1.3-0.9,2.7-0.9,4.3v0.8c0,1.6,0.3,3,0.9,4.3c0.6,1.2,1.4,2.2,2.5,2.9c1.1,0.7,2.3,1,3.7,1c1.4,0,2.6-0.3,3.7-1
		c1.1-0.7,1.9-1.6,2.5-2.9c0.6-1.2,0.9-2.7,0.9-4.3V348c0-1.6-0.3-3.1-0.9-4.3C172.7,342.4,171.8,341.4,170.7,340.7z M170.7,348.8
		c0,1.7-0.3,3.1-0.9,4c-0.6,0.9-1.5,1.4-2.7,1.4c-1.2,0-2.1-0.5-2.7-1.4c-0.6-0.9-0.9-2.3-0.9-4v-0.8c0-1.7,0.3-3.1,1-4
		c0.6-0.9,1.5-1.3,2.7-1.3c1.2,0,2.1,0.5,2.7,1.4c0.6,0.9,0.9,2.2,0.9,4V348.8z M0,318.4v16.3c4.7-0.9,21.3-3.8,45.8-7
		c0.8,6.7,4.8,12.7,10.8,16l131.6,71.1c3.1,1.7,6.5,2.5,9.9,2.5c3.4,0,6.8-0.8,9.9-2.5l131.6-71.1c6-3.3,10-9.2,10.8-15.9
		c24,3.2,40.4,6,45.5,6.9v-16.2c-20.4-3.6-105.2-17.3-198.7-17.3C104.2,301,19.8,314.9,0,318.4z M330.7,325.2c0,0.3-0.2,0.6-0.5,0.8
		l-131.6,71.1c-0.3,0.1-0.6,0.1-0.9,0L66.1,326c-0.3-0.2-0.5-0.5-0.5-0.8v-0.1c35.8-4.2,82.5-8.1,131.7-8.1
		C247.2,317,294.5,321,330.7,325.2L330.7,325.2z M350.7,209.3V106.5c0-7.7-4.2-14.7-11-18.4L208.2,17c-6.2-3.4-13.7-3.4-19.9,0
		L56.6,88.1c-6.8,3.7-11,10.7-11,18.4v102.8H0.2v16h396v-16H350.7z M220.3,69.3h42.6l5.6,3h-18.3c-3.7-0.1-7.4,0-11.1,0.2
		c2,2.3,3.6,1.7,4.9,1.7c9.3,0.1,18.7,0.1,28,0l7.4,4c0,0-0.1,0-0.1,0c-15.6,0-31.2,0.1-46.9,0c-6.6,0-13.1,1.6-19.7,1
		c-1.3-0.1-2.7,0-4.1,0c-1.2-3.6-2.4-7-3.5-10.2c0.9-1.4,2.4-0.3,3.6-1.5l-4.2-0.3c-2.2-3.7-3.2-8.5-7.1-11.6
		c-2,3.7-1.6,8.1-4.4,11.6l-3.9,0.2c0.9,1.5,2.8,0.1,3.5,1.9c-1.4,3.4-3.1,6.6-5.1,9.6c-4,1-8.1-0.5-12.9,1.4
		c4,1.7,7.2,0.5,10.5,1.2c-0.2,3.2-2.9,5-4.6,7.1c-1.7,2.1-3.9,3.9-5.8,6.2c2.3,1.3,4.2,0.1,6.7-0.5c-0.6,4.9-3.1,8.5-6.1,11.7
		c-3.6,3.7-7.4,7.3-11.2,11c-2.5,2.5-4.5,5.4-5.9,8.5c5.6-1.5,9.8-3.7,14.7-4.9c-5.3,5.7-11.9,10.3-14.7,18c1.8,1.1,2.8-1.6,4.8-0.7
		c-1.9,2.6-4.7,4.3-5.9,7.4c-4.9-2.9-6.5-7.5-8.1-12.4c3,0.1,4.8,3,8.1,2.2c-4.3-4.7-7.3-10.4-8.6-16.6c2.3-2.3,5.5-0.3,9-1.8h-9.7
		c-3.2-8.5-4.3-17.5-11.1-25c-2.2,8.9-6.1,17.3-11.5,24.8c-19.7-2.1-39.7-0.8-59.5-1.3v-3.8h28c-1.8-2-1.8-2.1-3.5-2.1
		c-7,0-13.9,0-20.9-0.1c-1.2,0.1-2.4,0-3.6-0.1c0,0,0,0-0.1,0v-2.7c1.3-0.4,2.8-0.1,4.1-0.1c7.6-0.1,15.3,0.5,22.9-0.2
		c9.8-0.9,19.5-0.7,29.4-0.9c-0.3-1.2-1-0.9-1.5-0.9c-16.7,0-33.4-1.5-50.1-1.1l127.3-68.8c0.1-0.1,0.3-0.1,0.4-0.1
		c0.1,0,0.3,0,0.4,0.1l59,31.9c-0.5,0-1.1,0-1.6-0.1c-13.7-0.6-27.3,1.6-41.4,0.9C216.2,69.8,218.4,69.3,220.3,69.3z M226.6,209.3
		c-0.7-0.5-1.3-1-1.9-1.6c-7.6-7.6-15.7-14.6-22-23.4c-1.5-2.1-3.8-3.6-5.1-5.8c-1.6,0.7-1.2,1.4-0.7,2.1
		c3.6,5.9,7.7,11.6,12.2,16.9c3.5,4.1,7.2,8,11,11.7h-39.9v-32.4c-1.4,0.3-2,0.9-2,1.8c-1.1,8.7-4.2,16.8-7.7,24.8
		c-1,2-2.1,3.9-3.3,5.8h-33c7.9-11.5,43-58.3,46.4-62.5c15.9,5.9,44.2,10,53.3,8.4c0.8-1.8-1.9-2.2-1.4-4.1c1.2-0.1,2.3,0.8,3.3,1.1
		c1.1-1.2-0.8-1.9-0.1-3.1c1.9-0.8,4.1-1.7,6.2-2.5c0.3-0.1,0.6,0.1,1.5,0.3l-8.4,8.7c5.7,0,10.6,0.1,15.4,0
		c3.1-0.1,4.9,0.7,6.6,3.4c4.3,7.1,9.1,13.8,13.5,20.8c6.6,10.2,14.4,19.6,23.4,27.8c0.7,0.6,1.5,1.2,2.2,1.7H226.6z M115.9,126.4
		L115.9,126.4c-0.8,0.7-1.8,1.1-2.8,1c-1.4-0.1-2.7-0.1-4.1,0c-4.1,0.6-7.3-0.6-9-4.5c-0.2-0.4-0.7-0.6-1.5-1.3
		c-0.7,1.7-0.9,3.5-2.2,4.6H65.7v-5.9c1.4-0.8,2.9-1,4.5-0.9c6.6,0,13.2-0.2,19.8,0c9.5,0.2,18.9-0.5,28.3-1c1.6-0.1,3.2,0,5.8,0
		C120.9,121.5,118.4,124,115.9,126.4z M123.3,132c-3.1,6.4-8.7,9.7-12.9,14.6l0,0c-4-7.6-4.3-11.8-4.9-13.1
		C107.9,132.7,120.1,131.6,123.3,132z M88,148.3c-1,3.8-2.9,7.3-5.6,10.2c-3.9,3.9-8.4,7.3-11.2,12.2c-0.1,0.3-0.1,0.5-0.1,0.8
		l9.9-3.8c-2.7,5.1-8.1,7.5-9.8,12.5c0.7,0.7,1.5-0.2,3.2-0.3c-4.7,5.2-7.9,10.5-8.7,16.6v-66.8h30.1c-2.4,8.9-8.3,15.2-15.3,21.7
		C83.2,151.1,85.8,150,88,148.3z M65.7,202.3c0,0.3,0.1,0.5,0.1,0.8c2.4-3.4,3.7-7.4,8.3-9.7c-2.5,5.2-4.4,9.8-7.5,13.9
		c-0.1,0.1-0.4,0.1-0.9,0V202.3z M309.1,146.6c1.7-1.1,2.9,1.5,4.6-0.1c0.3-0.5-0.9-1.2,0-2.1c5.5,1.1,11.2,0.4,17,0.6v6.9
		c-6.4,0.4-12.6-0.7-18.6,1.3C310.6,150.9,308.9,149.2,309.1,146.6L309.1,146.6z M330.7,141.8c-6.1,0.6-12.2,1.1-18.4,0.5
		c-0.7-1.3-2.3-2.4-1.2-4.7c6.5-0.6,13,1.1,19.6,1V141.8z M330.7,136.5h-20.5c-0.6-1.3-1.6-2.1-1.3-3.6c7.2-1,14.5,0,21.9,0.6V136.5
		z M329.1,188.5c-1.7-3.8-4.1-7.3-7-10.3c1.2-1.3,2,0.7,3.4,0c-1.5-4.6-5.3-7.6-8.9-11.4c3.6,0.1,6,1.8,9.4,3
		c-3-9.5-9-11.5-10.5-13.5c5.3-1.6,10.2-0.5,15.3,0.1v38.8C330.5,192.9,330,190.7,329.1,188.5z M330.2,105.7
		c0.3,0.2,0.5,0.5,0.5,0.8v23.8h-22.8c-2-6.3-4.1-12.5-8.7-18.7v0c0.4-2.1-7.5,12.9-12.6,22.1c0.2,0.2,0.4,0.4,0.6,0.6
		c-0.3,0.1-0.7,0.1-1,0.1c-1.1,2.1-2.3,4.1-3.6,6.1c-2.4-2.4-3.2-5.4-4.8-8.5c3.2-0.4,5.2,2.5,8.3,2.4l0.4-0.7
		c-5.2-5.2-7.3-11.7-9.6-18.1c-2.3-6.4-3.8-13.2-6.7-19.5c1.4-0.9,3-0.4,4.4-0.4c10,0,20,0.5,30-0.2c2.7-0.2,5.3,0.1,7.8,0.7
		L330.2,105.7z M305.3,92.3h-36.9c-1-0.8-1.4-2.6-3.3-3.4c-0.6,1.1-1.2,2.2-1.9,3.3c-0.9,0.2-1.8,0.4-2.8,0.6
		c-1.7,8.6-9,19.9-18.9,29.2c3.1,0.5,4.9-2,7.8-2.4c0,0,0,0,0,0v0c0,0,0,0,0,0c-1,3.8-2.3,7.1-5.1,9.8c-4.3,4.2-8.8,8.2-13,13.2
		c-3.2-4.3-7.3-7.6-11.5-12.2c5.6,1.5,9.8,3.8,14.7,6c-1.4-5-4.5-8.3-7.4-11.6c-1.7-1.9-3.4-3.6-5.3-5.3c-5-4.2-8.6-9.2-10.2-16
		c3.1,1.4,5.8,3.5,10.5,3.9c-4.5-5-7.9-9.5-9-15.1c-0.5-0.7-0.7-1.5-0.8-2.3c-0.4-1.7-1-3.3-1.7-4.8c1.3-0.8,3-0.9,4.4-0.3
		c2,0.9,4,0.7,6,0.7c16,0.1,31.9,0.1,47.9,0.1c8.6,0,17.1,1.3,25.8,1.1c0.1,0,0.2,0,0.2,0L305.3,92.3z M203.1,342.7V340h-11.2v16.7
		h11.2v-2.8h-7.8v-4.5h6.6v-2.7h-6.6v-4H203.1z M231.4,353.9h-7.8v-4.5h6.6v-2.7h-6.6v-4h7.7V340h-11.2v16.7h11.2V353.9z
		 M208.6,350.6h2.7l3.1,6.1h3.7v-0.2l-3.6-6.8c1-0.5,1.8-1.1,2.2-1.8c0.5-0.8,0.7-1.7,0.7-2.9c0-1.6-0.5-2.9-1.6-3.7
		c-1.1-0.9-2.6-1.3-4.6-1.3h-6.2v16.7h3.4V350.6z M208.6,342.7h2.8c0.9,0,1.6,0.2,2.1,0.7c0.4,0.5,0.7,1.1,0.7,1.9
		c0,0.8-0.2,1.4-0.7,1.8s-1.1,0.7-2,0.7h-2.8V342.7z M242.5,355.7c1.2-0.7,2.1-1.6,2.7-2.8c0.6-1.2,1-2.6,1-4.1v-0.8
		c0-1.6-0.3-2.9-1-4.2c-0.7-1.2-1.6-2.2-2.7-2.8c-1.2-0.7-2.5-1-3.9-1h-5.1v16.7h5.2C240,356.7,241.3,356.3,242.5,355.7z
		 M236.8,353.9v-11.2h1.7c1.4,0,2.4,0.4,3.1,1.3c0.7,0.9,1.1,2.2,1.1,3.9v0.9c0,1.6-0.4,2.9-1.1,3.8c-0.7,0.9-1.7,1.3-3.1,1.3H236.8
		z"/>
</g>
<g id="Layer_4" class="st0">
</g>
</svg>
