<svg xmlns="http://www.w3.org/2000/svg" width="396.17" height="402.7" viewBox="0 0 396.17 402.7"><title>bootcamp</title><path d="M54.77,260.56a13.82,13.82,0,0,1-4.29,10.32,14.29,14.29,0,0,1-10.39,4.29H18.18a2.49,2.49,0,0,1-2.51-2.51v-40.4a2.42,2.42,0,0,1,.73-1.78,2.49,2.49,0,0,1,1.78-.73H40.1A14.29,14.29,0,0,1,50.49,234a14.4,14.4,0,0,1,1.75,18.42A13.87,13.87,0,0,1,54.77,260.56ZM28.22,246.39q0,.64.6.63H40.07a2.11,2.11,0,0,0,1.62-.73,2.61,2.61,0,0,0,0-3.56,2.07,2.07,0,0,0-1.62-.76H28.82q-.6,0-.6.63Zm0,15.91q0,.64.6.63H40.07a2.07,2.07,0,0,0,1.62-.76,2.61,2.61,0,0,0,0-3.56,2.11,2.11,0,0,0-1.62-.73H28.82q-.6,0-.6.63Zm53.14,12.86a22.71,22.71,0,1,1,16-38.75,22.71,22.71,0,0,1-16,38.75Zm0-32.81a10.09,10.09,0,1,0,7.15,3A9.8,9.8,0,0,0,81.36,242.36Zm49.23,32.81a22.77,22.77,0,1,1,16-6.67A21.8,21.8,0,0,1,130.59,275.17Zm0-32.81a10.09,10.09,0,1,0,7.15,3A9.8,9.8,0,0,0,130.59,242.36Zm41.32,32.81a2.49,2.49,0,0,1-2.51-2.51V243a.56.56,0,0,0-.64-.64H158a2.49,2.49,0,0,1-1.78-.73,2.42,2.42,0,0,1-.73-1.78v-7.59a2.42,2.42,0,0,1,.73-1.78,2.49,2.49,0,0,1,1.78-.73h35.35a2.49,2.49,0,0,1,2.51,2.51v7.59a2.49,2.49,0,0,1-2.51,2.51H182.65a.56.56,0,0,0-.64.64v29.67a2.49,2.49,0,0,1-.73,1.78,2.42,2.42,0,0,1-1.78.73Zm50.5,0a22.7,22.7,0,1,1,13.91-40.66,2.51,2.51,0,0,1,1,1.84,2.43,2.43,0,0,1-.73,1.94l-5.43,5.46A2.29,2.29,0,0,1,228,244a10.09,10.09,0,0,0-12.71,1.3,10.07,10.07,0,0,0,6.16,17.15,9.91,9.91,0,0,0,6.54-1.59,2.29,2.29,0,0,1,3.18.29l5.43,5.43a2.52,2.52,0,0,1,.73,2,2.48,2.48,0,0,1-1,1.81A22.07,22.07,0,0,1,222.41,275.17Zm31.16-6.32a.57.57,0,0,0-.57.41l-1.68,4.29a2.34,2.34,0,0,1-2.35,1.62h-8.13a2.51,2.51,0,0,1-2.35-3.43l15.79-40.4a2.3,2.3,0,0,1,2.35-1.59h11a2.3,2.3,0,0,1,2.35,1.62l15.34,40.37a2.46,2.46,0,0,1-.25,2.35,2.43,2.43,0,0,1-2.1,1.08h-8.1a2.3,2.3,0,0,1-2.35-1.62l-1.62-4.29a.6.6,0,0,0-.6-.41Zm9.08-21.28a.6.6,0,0,0-.6-.41.57.57,0,0,0-.57.38l-3.08,7.84a.61.61,0,0,0,.1.57.54.54,0,0,0,.51.29h6a.6.6,0,0,0,.51-.25.69.69,0,0,0,.1-.6Zm40.72,6.35a.54.54,0,0,0-.7-.22.55.55,0,0,0-.44.57v18.39a2.49,2.49,0,0,1-.73,1.78,2.42,2.42,0,0,1-1.78.73h-7.59a2.5,2.5,0,0,1-2.51-2.51v-40.4a2.42,2.42,0,0,1,.73-1.78,2.49,2.49,0,0,1,1.78-.73h8.42a2.4,2.4,0,0,1,2.06,1.08l10.45,14.93a.61.61,0,0,0,.54.29.58.58,0,0,0,.51-.29l10.45-14.93a2.4,2.4,0,0,1,2.06-1.08H335a2.42,2.42,0,0,1,1.78.73,2.37,2.37,0,0,1,.76,1.78v40.4a2.55,2.55,0,0,1-2.54,2.51h-7.56a2.55,2.55,0,0,1-2.54-2.51V254.27a.64.64,0,0,0-1.14-.35l-9.69,13.85a.6.6,0,0,1-.51.25.63.63,0,0,1-.54-.25Zm51.26,9.88a.56.56,0,0,0-.63.64v8.23a2.49,2.49,0,0,1-.73,1.78,2.42,2.42,0,0,1-1.78.73H343.9a2.5,2.5,0,0,1-2.51-2.51v-40.4a2.42,2.42,0,0,1,.73-1.78,2.49,2.49,0,0,1,1.78-.73h19.57a17,17,0,0,1,11.94,29.13,16.76,16.76,0,0,1-12.13,4.92Zm0-21.44a.56.56,0,0,0-.63.64v7.56a.56.56,0,0,0,.63.63h8.83a4.27,4.27,0,0,0,3.18-1.33,4.17,4.17,0,0,0,1.24-3.18,4.1,4.1,0,0,0-1.37-3,4.3,4.3,0,0,0-3.11-1.27Zm-168.9,84.12a7.81,7.81,0,0,0-3.94-1h-5.14V342.2h5.18a7.87,7.87,0,0,0,3.94-1,6.87,6.87,0,0,0,2.7-2.81,8.74,8.74,0,0,0,1-4.15v-.77a8.71,8.71,0,0,0-1-4.16A6.92,6.92,0,0,0,185.74,326.47Zm.2,7.86a6,6,0,0,1-1.09,3.78,3.74,3.74,0,0,1-3.09,1.32h-1.67V328.27h1.7a3.73,3.73,0,0,1,3.09,1.31,6.06,6.06,0,0,1,1.06,3.86Zm-37-5a2.93,2.93,0,0,1,2.58-1.23,3.34,3.34,0,0,1,2.36.73,3.5,3.5,0,0,1,.9,2.35h3.44a6.36,6.36,0,0,0-2-4.35,7.59,7.59,0,0,0-8.33-.57,6.36,6.36,0,0,0-2.43,2.82,10,10,0,0,0-.85,4.25v1a8.87,8.87,0,0,0,1.84,5.94,6.29,6.29,0,0,0,5.06,2.16,7,7,0,0,0,4.74-1.55,5.92,5.92,0,0,0,2-4.25h-3.44a3.3,3.3,0,0,1-.9,2.26,3.4,3.4,0,0,1-2.38.73,2.87,2.87,0,0,1-2.59-1.25,7.4,7.4,0,0,1-.82-4v-1.26A6.92,6.92,0,0,1,148.89,329.31Zm21.85-3.05a7.37,7.37,0,0,0-7.43,0,6.63,6.63,0,0,0-2.51,2.88,10,10,0,0,0-.89,4.35v.83a9.8,9.8,0,0,0,.91,4.27,6.64,6.64,0,0,0,2.53,2.85,7.38,7.38,0,0,0,7.43,0,6.57,6.57,0,0,0,2.5-2.87,10.1,10.1,0,0,0,.87-4.33v-.75a10,10,0,0,0-.89-4.33A6.63,6.63,0,0,0,170.74,326.25Zm-.09,8a7.08,7.08,0,0,1-.94,4,3.3,3.3,0,0,1-5.37-.05,7.13,7.13,0,0,1-.94-4v-.82a7,7,0,0,1,1-4,3.33,3.33,0,0,1,5.36,0,7,7,0,0,1,.94,4ZM0,303.87v16.25c4.66-.85,21.32-3.8,45.81-7a20.87,20.87,0,0,0,10.82,16l131.64,71.11a20.84,20.84,0,0,0,19.87,0L339.7,329.07a20.87,20.87,0,0,0,10.81-15.94c24,3.16,40.41,6,45.49,6.94V303.82c-20.44-3.57-105.25-17.3-198.67-17.3C104.22,286.52,19.75,300.39,0,303.87Zm330.67,6.81a.9.9,0,0,1-.47.79L198.64,382.59a.89.89,0,0,1-.86,0L66.14,311.48a.9.9,0,0,1-.47-.79v-.08c35.76-4.17,82.47-8.09,131.67-8.09,49.85,0,97.19,4,133.33,8.16Zm20-115.84V92a20.88,20.88,0,0,0-11-18.39L208.15,2.52a20.84,20.84,0,0,0-19.87,0L56.64,73.63A20.88,20.88,0,0,0,45.67,92V194.84H.16v16h396v-16Zm-130.34-140H262.9l5.55,3H250.16a109.42,109.42,0,0,0-11.07.23c2,2.3,3.59,1.67,4.94,1.68,9.33.07,18.67.15,28,0l7.39,4h-.09c-15.62,0-31.23.11-46.86,0-6.59,0-13.07,1.63-19.68,1-1.32-.13-2.67,0-4.07,0-1.22-3.58-2.38-7-3.49-10.2.91-1.36,2.42-.34,3.64-1.47l-4.19-.32c-2.21-3.71-3.18-8.46-7.13-11.57-2,3.69-1.64,8.07-4.39,11.63l-3.92.25c.88,1.52,2.78.07,3.47,1.88a57.51,57.51,0,0,1-5.09,9.61c-4,1-8.09-.51-12.93,1.37,4,1.67,7.21.52,10.48,1.17-.21,3.17-2.89,5-4.58,7.11s-3.92,3.93-5.77,6.19c2.25,1.26,4.21.06,6.65-.52-.6,4.93-3.06,8.52-6.11,11.7-3.65,3.72-7.43,7.31-11.2,11a28.33,28.33,0,0,0-5.9,8.54c5.56-1.47,9.83-3.73,14.69-4.94-5.32,5.73-11.91,10.35-14.66,18,1.83,1.06,2.82-1.64,4.77-.73-1.89,2.57-4.73,4.27-5.93,7.45-4.92-2.9-6.47-7.47-8.15-12.37,3,.1,4.76,3,8.08,2.25a35.88,35.88,0,0,1-8.65-16.64c2.3-2.33,5.52-.3,9-1.83h-9.66c-3.16-8.55-4.28-17.55-11.08-25a71.8,71.8,0,0,1-11.53,24.8c-19.7-2.1-39.67-.75-59.47-1.34V97.05h28c-1.83-2-1.83-2.07-3.54-2.08-7,0-13.91,0-20.87-.07a21,21,0,0,1-3.55-.1l-.07,0v-2.7C67,91.65,68.42,92,69.8,92c7.63-.07,15.28.5,22.89-.18,9.76-.86,19.52-.7,29.36-.89-.25-1.2-1-.93-1.52-.93-16.7,0-33.36-1.5-50.07-1.06L197.78,20.12a.9.9,0,0,1,.86,0l59,31.9a9.25,9.25,0,0,1-1.64-.1c-13.71-.62-27.33,1.64-41.38.94C216.22,55.28,218.36,54.85,220.32,54.85Zm6.32,140a12.64,12.64,0,0,1-1.88-1.57c-7.57-7.56-15.75-14.56-22-23.36-1.5-2.12-3.82-3.6-5.09-5.84-1.63.65-1.15,1.41-.7,2.12a144.32,144.32,0,0,0,12.15,16.94,157.42,157.42,0,0,0,11,11.71H180.24V162.42c-1.42.32-2,.93-2,1.81-1.13,8.7-4.2,16.82-7.74,24.78a65.69,65.69,0,0,1-3.28,5.83h-33c7.85-11.53,43-58.33,46.43-62.51,15.92,5.93,44.25,10,53.27,8.37.8-1.77-1.92-2.22-1.45-4.1,1.24-.14,2.26.81,3.29,1.14,1.11-1.23-.79-1.87-.13-3.11,1.93-.78,4.07-1.66,6.19-2.48.25-.1.63.11,1.52.29l-8.4,8.71c5.68,0,10.56.13,15.43,0,3.06-.12,4.93.72,6.58,3.43,4.3,7.06,9.06,13.84,13.54,20.79a140.93,140.93,0,0,0,23.43,27.82c.72.59,1.46,1.15,2.21,1.7ZM115.93,111.91h0a3.4,3.4,0,0,1-2.74,1,22.05,22.05,0,0,0-4.07,0c-4.15.59-7.25-.6-9-4.54-.18-.4-.74-.65-1.5-1.29-.7,1.67-.87,3.49-2.24,4.64H65.67v-5.86a8,8,0,0,1,4.48-.95c6.61,0,13.24-.15,19.82,0,9.45.23,18.86-.51,28.28-1,1.61-.09,3.23,0,5.83,0C120.89,107,118.38,109.47,115.93,111.91Zm7.42,5.56c-3.06,6.37-8.69,9.7-12.94,14.65l0,0c-4-7.62-4.34-11.84-4.88-13.12C107.89,118.22,120.1,117.15,123.34,117.47ZM88,133.79A23.69,23.69,0,0,1,82.35,144c-3.88,3.92-8.36,7.31-11.2,12.17a3.22,3.22,0,0,0-.07.81L81,153.12c-2.73,5.11-8.09,7.48-9.81,12.45.72.73,1.47-.25,3.2-.32-4.67,5.2-7.92,10.47-8.71,16.63V115.07H95.74c-2.42,8.86-8.29,15.18-15.34,21.72A13.78,13.78,0,0,0,88,133.79Zm-22.31,54c0,.27.05.53.09.8,2.4-3.41,3.71-7.35,8.25-9.69-2.55,5.17-4.37,9.84-7.47,13.89-.11.14-.45.1-.88,0ZM309.1,132.07c1.7-1.14,2.92,1.45,4.56-.1.34-.51-.94-1.23,0-2.09,5.5,1.09,11.18.43,17,.63v6.92c-6.37.37-12.61-.75-18.64,1.32-1.39-2.29-3.18-4.07-2.88-6.64Zm21.57-4.77c-6.09.59-12.19,1.14-18.42.52-.74-1.31-2.28-2.39-1.2-4.67,6.47-.63,13,1.13,19.63,1Zm0-5.26H310.12c-.59-1.32-1.64-2.1-1.31-3.64,7.25-1,14.47,0,21.86.61Zm-1.61,52a35.49,35.49,0,0,0-7-10.35c1.17-1.28,2,.67,3.36,0-1.53-4.63-5.33-7.63-8.94-11.44,3.55.1,6,1.8,9.38,3-3-9.46-9-11.55-10.5-13.5,5.28-1.59,10.25-.47,15.33.07v38.79A21.63,21.63,0,0,0,329.06,174Zm1.13-82.8a.9.9,0,0,1,.47.79v23.77h-22.8c-2-6.31-4.07-12.52-8.71-18.7v0c.43-2.12-7.55,12.87-12.61,22.08.2.2.4.41.61.61a4.45,4.45,0,0,1-1,.11,61.39,61.39,0,0,1-3.58,6.1c-2.42-2.41-3.22-5.43-4.77-8.5,3.17-.44,5.25,2.47,8.34,2.4l.4-.72C281.29,114,279.24,107.44,277,101s-3.83-13.24-6.74-19.52c1.42-.9,3-.42,4.39-.43,10,0,20,.48,30-.17a25.78,25.78,0,0,1,7.77.68ZM305.32,77.78h-36.9c-1-.75-1.42-2.58-3.27-3.39-.61,1.06-1.22,2.15-1.86,3.26-.92.23-1.84.41-2.77.57-1.65,8.62-9,19.94-18.86,29.19,3.12.53,4.94-2,7.84-2.39v0h0c-1,3.78-2.3,7.07-5.08,9.81-4.29,4.24-8.81,8.24-13,13.22-3.17-4.26-7.28-7.61-11.48-12.22,5.55,1.53,9.82,3.79,14.73,6-1.44-5-4.51-8.26-7.41-11.57A52.39,52.39,0,0,0,221.9,105c-5-4.22-8.64-9.19-10.19-16,3.06,1.41,5.81,3.45,10.5,3.9-4.51-5-7.93-9.52-9-15.13a4.74,4.74,0,0,1-.81-2.28,24.2,24.2,0,0,0-1.71-4.81,5.07,5.07,0,0,1,4.39-.32c2,.94,4,.67,6,.68q23.93.08,47.87.07c8.61,0,17.13,1.31,25.78,1.08H295ZM203.12,328.27v-2.79H191.93V342.2h11.21v-2.77h-7.76V335H202v-2.7h-6.61v-4Zm28.26,11.16h-7.76V335h6.61v-2.7h-6.61v-4h7.74v-2.79H220.17V342.2h11.21Zm-22.77-3.35h2.74l3.13,6.12h3.7V342l-3.62-6.83a5,5,0,0,0,2.25-1.82,5.15,5.15,0,0,0,.74-2.85,4.56,4.56,0,0,0-1.61-3.73,7,7,0,0,0-4.57-1.32h-6.21V342.2h3.44Zm0-7.81h2.77a2.79,2.79,0,0,1,2.06.68,2.53,2.53,0,0,1,.67,1.86,2.36,2.36,0,0,1-.71,1.82,2.84,2.84,0,0,1-2,.66H208.6Zm33.91,12.92a6.86,6.86,0,0,0,2.7-2.81,8.74,8.74,0,0,0,1-4.15v-.77a8.71,8.71,0,0,0-1-4.16,6.93,6.93,0,0,0-2.72-2.82,7.81,7.81,0,0,0-3.94-1H233.4V342.2h5.18A7.87,7.87,0,0,0,242.51,341.18Zm-5.67-1.76V328.27h1.7a3.73,3.73,0,0,1,3.09,1.31,6.06,6.06,0,0,1,1.06,3.86v.88a6,6,0,0,1-1.09,3.78,3.74,3.74,0,0,1-3.09,1.32Z" fill="#f2f2f2"/></svg>