<svg xmlns="http://www.w3.org/2000/svg" width="396.17" height="402.7" viewBox="0 0 396.17 402.7"><title>codedojo</title><path d="M148,333.14v1.26a7.4,7.4,0,0,0,.82,4,2.87,2.87,0,0,0,2.59,1.25,3.4,3.4,0,0,0,2.38-.73,3.3,3.3,0,0,0,.9-2.26h3.44a5.92,5.92,0,0,1-2,4.25,7,7,0,0,1-4.74,1.55,6.29,6.29,0,0,1-5.06-2.16,8.87,8.87,0,0,1-1.84-5.94v-1a10,10,0,0,1,.85-4.25,6.36,6.36,0,0,1,2.43-2.82,7.59,7.59,0,0,1,8.33.57,6.36,6.36,0,0,1,2,4.35h-3.44a3.5,3.5,0,0,0-.9-2.35,3.34,3.34,0,0,0-2.36-.73,2.93,2.93,0,0,0-2.58,1.23A6.92,6.92,0,0,0,148,333.14Zm83.36,6.29h-7.76V335h6.61v-2.7h-6.61v-4h7.74v-2.79H220.17V342.2h11.21ZM208.6,342.2h-3.44V325.48h6.21a7,7,0,0,1,4.57,1.32,4.56,4.56,0,0,1,1.61,3.73,5.15,5.15,0,0,1-.74,2.85,5,5,0,0,1-2.25,1.82l3.62,6.83v.16h-3.7l-3.13-6.12H208.6Zm0-8.91h2.78a2.84,2.84,0,0,0,2-.66,2.36,2.36,0,0,0,.71-1.82,2.53,2.53,0,0,0-.67-1.86,2.79,2.79,0,0,0-2.06-.68H208.6Zm-35.35-4.15a10,10,0,0,1,.89,4.33v.75a10.1,10.1,0,0,1-.87,4.33,6.57,6.57,0,0,1-2.5,2.87,7.38,7.38,0,0,1-7.43,0,6.64,6.64,0,0,1-2.53-2.85,9.8,9.8,0,0,1-.91-4.27v-.83a10,10,0,0,1,.89-4.35,6.63,6.63,0,0,1,2.51-2.88,7.37,7.37,0,0,1,7.43,0A6.63,6.63,0,0,1,173.26,329.13Zm-2.6,4.32a7,7,0,0,0-.94-4,3.33,3.33,0,0,0-5.36,0,7,7,0,0,0-1,4v.82a7.13,7.13,0,0,0,.94,4,3.3,3.3,0,0,0,5.37.05,7.08,7.08,0,0,0,.94-4Zm17.8-4.16a8.71,8.71,0,0,1,1,4.16v.77a8.74,8.74,0,0,1-1,4.15,6.87,6.87,0,0,1-2.7,2.81,7.87,7.87,0,0,1-3.94,1h-5.18V325.48h5.14a7.81,7.81,0,0,1,3.94,1A6.92,6.92,0,0,1,188.45,329.3Zm-2.51,4.15a6.06,6.06,0,0,0-1.06-3.86,3.73,3.73,0,0,0-3.09-1.31h-1.7v11.16h1.67a3.74,3.74,0,0,0,3.09-1.32,6,6,0,0,0,1.09-3.78Zm17.18-5.18v-2.79H191.93V342.2h11.21v-2.77h-7.76V335H202v-2.7h-6.61v-4Zm35.46,13.93H233.4V325.48h5.14a7.81,7.81,0,0,1,3.94,1,6.93,6.93,0,0,1,2.72,2.82,8.71,8.71,0,0,1,1,4.16v.77a8.74,8.74,0,0,1-1,4.15,6.86,6.86,0,0,1-2.7,2.81A7.87,7.87,0,0,1,238.57,342.2Zm-.07-2.77a3.74,3.74,0,0,0,3.09-1.32,6,6,0,0,0,1.09-3.78v-.88a6.06,6.06,0,0,0-1.06-3.86,3.73,3.73,0,0,0-3.09-1.31h-1.7v11.16Zm-41.17-52.91c93.42,0,178.23,13.74,198.67,17.3v16.25c-5.08-.92-21.53-3.78-45.49-6.94a20.87,20.87,0,0,1-10.81,15.94L208.15,400.18a20.84,20.84,0,0,1-19.87,0L56.64,329.07a20.87,20.87,0,0,1-10.82-16c-24.5,3.25-41.16,6.2-45.81,7V303.87C19.75,300.39,104.22,286.52,197.33,286.52Zm133.33,24.16c-36.14-4.19-83.49-8.16-133.33-8.16-49.2,0-95.91,3.92-131.67,8.09v.08a.9.9,0,0,0,.47.79l131.64,71.11a.89.89,0,0,0,.86,0l131.55-71.11a.9.9,0,0,0,.47-.79Zm65.5-115.84v16H.16v-16h45.5V92a20.88,20.88,0,0,1,11-18.39L188.28,2.52a20.84,20.84,0,0,1,19.87,0L339.7,73.63a20.88,20.88,0,0,1,11,18.39V194.84ZM103,71.34l.17,1.21c63.87,10.74,191.58.29,191.58.29l.7-.41L198.64,20.12a.9.9,0,0,0-.86,0Zm135.56,57.79c0-3.93-1.35-4.69-4.91-4.63-11,.18-22,.08-32.93.08-11.31,0-22.62.09-34-.07-3.19,0-4.34.83-4.32,4.19q.19,31.46,0,62.92c0,1.61.27,2.62,1,3.23H237.4c.85-.7,1.13-1.9,1.11-3.79C238.39,170.42,238.35,149.77,238.52,129.13ZM164.33,106c2.67,4,6.84,4.44,10.88,4.54,3.65.1,7.31-.13,11,.07,3.25.17,3.29-1.74,3.33-4.11s-.33-4.11-3.46-4c-4.8.2-9.63.18-14.43,0-2.77-.09-4.87.71-7.35,3.5ZM215,110.66c7.49.37,18.29.11,20.77-5.51h0a6.81,6.81,0,0,0-5.69-2.63c-5,.13-10,.21-14.93,0-3.35-.16-3.76,1.48-3.75,4.22S212,110.51,215,110.66ZM65.67,194.84h76.86c.79-.68,1-1.83,1-3.58-.15-12-.26-24,0-36a22.91,22.91,0,0,0-5.1-15.18c-2.3-3-1.82-4.35,1.82-5.34,1-.25,2-.09,3-.32,5-1.19,2.83-5.25,3.12-8.22.31-3.22-2.27-2.63-4.16-2.64-6.5,0-13,.06-19.5,0-11.39-.16-11.33,2.72-11.33-11.73,0-3.8,2-4.91,5-4.14,6.11,1.54,12.26.44,18.37.93,5.92.39,8-.79,11.14-3.24l.05,0a7.37,7.37,0,0,0-6.49-2.88c-6.5.15-13,.11-19.5,0-3.19,0-6.91-.3-8.11-3.65-1.51-4.19-4.79-5.21-8.24-6.29-5.83-1.8-11.34-3.77-12.65-10.89C90.63,80,89.77,79,88.33,79.24l-22.19,12a.9.9,0,0,0-.47.79ZM330.67,92a.9.9,0,0,0-.47-.79L311.56,81.15c-.74.14-1.31.85-1.71,2.46-1.07,4.25-4.37,6.5-8.3,7.87-2.34.82-4.75,1.45-7.09,2.26-1.9.66-4.34,1.44-4.61,3.44-.73,5.44-4.66,5.32-8.45,5.41q-9,.21-18,0a12.4,12.4,0,0,0-9.17,3.16v0c3.43,2.58,6.26,2.85,9.53,2.81,5.49-.06,11-.1,16.48,0,2.91.06,6.3-2.8,8.48-.23,2,2.34.63,6.08.68,9.2.11,6,0,6-6.22,6h-25c-1.57,0-3.28-.42-3.77,2.09-1.1,5.51.17,7.71,5.61,9,4.21,1,4.84,2.38,2.33,6s-4.12,7.32-4,12q.38,18.72,0,37.45c-.05,2.33.21,3.87,1.21,4.75h71.1ZM54.24,271.64a2.68,2.68,0,0,0,1.06-2,2.73,2.73,0,0,0-.79-2.12l-5.86-5.86a2.47,2.47,0,0,0-3.43-.31,10.69,10.69,0,0,1-7.06,1.71,10.86,10.86,0,0,1-6.65-18.5,10.88,10.88,0,0,1,13.7-1.4,2.47,2.47,0,0,0,3.43-.31L54.52,237a2.62,2.62,0,0,0,.79-2.09,2.71,2.71,0,0,0-1.06-2,23.79,23.79,0,0,0-16.48-5.07A23.7,23.7,0,0,0,21.9,235a24.52,24.52,0,0,0,0,34.63,23.61,23.61,0,0,0,17.33,7.16A23.81,23.81,0,0,0,54.24,271.64Zm40.87-2.05a24.49,24.49,0,0,0-17.3-41.79,24.49,24.49,0,1,0,17.3,41.79Zm-9.59-25a10.92,10.92,0,1,1-7.71-3.19A10.58,10.58,0,0,1,85.52,244.58ZM144,235a23.93,23.93,0,0,0-17.4-7.19h-17.5a2.69,2.69,0,0,0-1.92.79,2.61,2.61,0,0,0-.79,1.92v43.57a2.69,2.69,0,0,0,2.71,2.71h17.71A24.39,24.39,0,0,0,144,235Zm-17.33,6.41a10.75,10.75,0,0,1,7.74,3.15,10.86,10.86,0,0,1-7.6,18.64H120.7a.61.61,0,0,1-.69-.69V242.08a.61.61,0,0,1,.69-.68Zm43,21.79a.61.61,0,0,1-.69-.69v-4.08a.61.61,0,0,1,.69-.69h16.1a2.61,2.61,0,0,0,1.92-.79,2.67,2.67,0,0,0,.82-2v-5.41a2.67,2.67,0,0,0-.82-2,2.61,2.61,0,0,0-1.92-.79h-16.1a.6.6,0,0,1-.69-.68v-4.08a.61.61,0,0,1,.69-.68H194.9a2.69,2.69,0,0,0,2.71-2.71V230.5a2.69,2.69,0,0,0-2.71-2.71H158.14a2.69,2.69,0,0,0-1.92.79,2.61,2.61,0,0,0-.79,1.92v43.57a2.69,2.69,0,0,0,2.71,2.71H194.9a2.61,2.61,0,0,0,1.92-.79,2.69,2.69,0,0,0,.79-1.92v-8.19a2.69,2.69,0,0,0-2.71-2.71ZM239.33,235a23.93,23.93,0,0,0-17.4-7.19h-17.5a2.69,2.69,0,0,0-1.92.79,2.61,2.61,0,0,0-.79,1.92v43.57a2.69,2.69,0,0,0,2.71,2.71h17.71A24.39,24.39,0,0,0,239.33,235ZM222,241.39a10.75,10.75,0,0,1,7.74,3.15,10.86,10.86,0,0,1-7.6,18.64H216a.61.61,0,0,1-.68-.69V242.08a.6.6,0,0,1,.68-.68Zm70.53,28.19a24.4,24.4,0,1,0-17.3,7.19A23.51,23.51,0,0,0,292.53,269.59Zm-9.59-25a10.92,10.92,0,1,1-7.71-3.19A10.58,10.58,0,0,1,282.94,244.58Zm45.39-14.08a2.69,2.69,0,0,0-2.71-2.71h-8.19a2.69,2.69,0,0,0-2.71,2.71v27.23a5.5,5.5,0,0,1-5.45,5.45h-2.74a2.68,2.68,0,0,0-1.92.79,2.61,2.61,0,0,0-.79,1.92v8.19a2.69,2.69,0,0,0,2.71,2.71h2.74a19.06,19.06,0,0,0,19-19Zm45.9,39.09a24.4,24.4,0,1,0-17.3,7.19A23.51,23.51,0,0,0,374.23,269.59Zm-9.59-25a10.92,10.92,0,1,1-7.71-3.19A10.58,10.58,0,0,1,364.64,244.58Z" fill="#f2f2f2"/></svg>