<svg xmlns="http://www.w3.org/2000/svg" width="337.33" height="432.71" viewBox="0 0 337.33 432.71"><title>fundo</title><path d="M169.46,432.71a35.53,35.53,0,0,1-16.69-4.17L18.87,357.36A35.49,35.49,0,0,1,0,326V107A35.49,35.49,0,0,1,18.83,75.58L152.74,4.19a35.48,35.48,0,0,1,33.6.07L318.64,75.55a35.52,35.52,0,0,1,18.69,31.3v219.2a35.51,35.51,0,0,1-18.73,31.33L186.29,428.47A35.54,35.54,0,0,1,169.46,432.71Z" fill="#586371"/><path d="M169.46,432.71a35.53,35.53,0,0,1-16.69-4.17L18.87,357.36A35.49,35.49,0,0,1,0,326V107A35.49,35.49,0,0,1,18.83,75.58L152.74,4.19a35.48,35.48,0,0,1,33.6.07L318.64,75.55a35.52,35.52,0,0,1,18.69,31.3v219.2a35.51,35.51,0,0,1-18.73,31.33L186.29,428.47A35.54,35.54,0,0,1,169.46,432.71ZM169.46,6a29.53,29.53,0,0,0-13.91,3.48L21.65,80.87A29.5,29.5,0,0,0,6,107V326a29.5,29.5,0,0,0,15.69,26.1l133.9,71.18a29.5,29.5,0,0,0,27.86-.06L315.76,352.1a29.52,29.52,0,0,0,15.57-26V106.86a29.52,29.52,0,0,0-15.54-26L183.49,9.55A29.54,29.54,0,0,0,169.46,6Z" fill="#c6c6c6"/></svg>