<svg xmlns="http://www.w3.org/2000/svg" width="295.96" height="232.49" viewBox="0 0 295.96 232.49"><title>hackthon-texto</title><path d="M12.75,18.82h-2L12,11.59H4.35L3.1,18.82h-2L3.79,3.18h2L4.64,9.9h7.63l1.17-6.72h2Z" transform="translate(0 -2.32)" fill="#f2f2f2"/><path d="M23.21,18.82a2.59,2.59,0,0,1-.08-.61l0-.61A4.77,4.77,0,0,1,19.77,19a3.47,3.47,0,0,1-2.5-1,2.94,2.94,0,0,1-.88-2.38A3.58,3.58,0,0,1,18,12.8a6.88,6.88,0,0,1,4-1h2l.13-.92a2.13,2.13,0,0,0-.4-1.65,2,2,0,0,0-1.53-.63,3,3,0,0,0-1.77.49,2.08,2.08,0,0,0-.94,1.35h-2a3.11,3.11,0,0,1,.79-1.81,4.62,4.62,0,0,1,1.79-1.22A5.8,5.8,0,0,1,22.4,7a3.86,3.86,0,0,1,2.83,1.1,3.42,3.42,0,0,1,.85,2.81l-.95,5.76-.05.83a4,4,0,0,0,.13,1.17l0,.18Zm-3.05-1.5a3.39,3.39,0,0,0,1.77-.45,4.48,4.48,0,0,0,1.43-1.29l.42-2.4H22.3a5.57,5.57,0,0,0-2.81.58,2.14,2.14,0,0,0-1.11,1.64,1.66,1.66,0,0,0,.38,1.36A1.81,1.81,0,0,0,20.16,17.32Z" transform="translate(0 -2.32)" fill="#f2f2f2"/><path d="M32.72,17.42a3,3,0,0,0,1.88-.61,2.89,2.89,0,0,0,1.1-1.65h1.84a4.15,4.15,0,0,1-.88,2,5.06,5.06,0,0,1-4,1.88,4.15,4.15,0,0,1-2.45-.76,4.23,4.23,0,0,1-1.48-2.05,6.83,6.83,0,0,1-.32-3l.05-.54a7.7,7.7,0,0,1,1-3,5.65,5.65,0,0,1,2-2.06A5,5,0,0,1,34.18,7a3.93,3.93,0,0,1,2.92,1.22,4.24,4.24,0,0,1,1.1,3H36.39a2.79,2.79,0,0,0-.63-1.84A2.21,2.21,0,0,0,34.1,8.6a3.1,3.1,0,0,0-2.52,1.13A5.9,5.9,0,0,0,30.33,13l0,.28a9.3,9.3,0,0,0,0,1.42,3.23,3.23,0,0,0,.71,2A2.28,2.28,0,0,0,32.72,17.42Z" transform="translate(0 -2.32)" fill="#f2f2f2"/><path d="M43.26,13.46l-1.53,1.36-.69,4H39.1L42,2.32h1.94L42.2,12.18,43.39,11,47.52,7.2H50l-5.34,5,3.67,6.67H46.25Z" transform="translate(0 -2.32)" fill="#f2f2f2"/><path d="M57.13,18.82a2.59,2.59,0,0,1-.08-.61l0-.61A4.77,4.77,0,0,1,53.69,19a3.47,3.47,0,0,1-2.5-1,2.94,2.94,0,0,1-.88-2.38,3.58,3.58,0,0,1,1.62-2.88,6.88,6.88,0,0,1,4-1h2l.13-.92a2.13,2.13,0,0,0-.4-1.65,2,2,0,0,0-1.53-.63,3,3,0,0,0-1.77.49,2.08,2.08,0,0,0-.94,1.35h-2a3.11,3.11,0,0,1,.79-1.81,4.62,4.62,0,0,1,1.79-1.22A5.8,5.8,0,0,1,56.32,7a3.86,3.86,0,0,1,2.83,1.1A3.42,3.42,0,0,1,60,10.88l-.95,5.76-.05.83a4,4,0,0,0,.13,1.17l0,.18Zm-3.05-1.5a3.39,3.39,0,0,0,1.77-.45,4.48,4.48,0,0,0,1.43-1.29l.42-2.4H56.23a5.57,5.57,0,0,0-2.81.58,2.14,2.14,0,0,0-1.11,1.64,1.66,1.66,0,0,0,.38,1.36A1.81,1.81,0,0,0,54.08,17.32Z" transform="translate(0 -2.32)" fill="#f2f2f2"/><path d="M66.87,4.38,66.38,7.2H68.5l-.27,1.54H66.12L64.91,16a2.5,2.5,0,0,0,0,.52.82.82,0,0,0,.91.84,5.55,5.55,0,0,0,.95-.11l-.15,1.62a5.29,5.29,0,0,1-1.42.19,2,2,0,0,1-1.74-.85A3.3,3.3,0,0,1,63,15.93l1.18-7.2H62.13l.27-1.54h2.05l.49-2.81Z" transform="translate(0 -2.32)" fill="#f2f2f2"/><path d="M72.45,8.62A4.5,4.5,0,0,1,76,7a2.83,2.83,0,0,1,2.42,1.12A4.43,4.43,0,0,1,79,11.2L77.7,18.82H75.76L77,11.17a4.09,4.09,0,0,0,0-1,1.61,1.61,0,0,0-1.77-1.54,3.58,3.58,0,0,0-3.07,1.87l-1.44,8.29H68.82l2.87-16.5h1.94Z" transform="translate(0 -2.32)" fill="#f2f2f2"/><path d="M87.13,7a4.19,4.19,0,0,1,2.5.79,4.52,4.52,0,0,1,1.54,2.13,6.6,6.6,0,0,1,.34,3l0,.24a7.82,7.82,0,0,1-1,3.07,5.92,5.92,0,0,1-2.08,2.13,5.09,5.09,0,0,1-2.8.72,4.2,4.2,0,0,1-2.5-.79,4.41,4.41,0,0,1-1.53-2.11,6.78,6.78,0,0,1-.34-2.93,7.92,7.92,0,0,1,1-3.24,6.06,6.06,0,0,1,2.1-2.23A5,5,0,0,1,87.13,7Zm-4,6.23a6.58,6.58,0,0,0,0,1.41,3.44,3.44,0,0,0,.76,2,2.27,2.27,0,0,0,1.73.78,3.1,3.1,0,0,0,1.78-.48,4,4,0,0,0,1.38-1.54,6.5,6.5,0,0,0,.72-2.29,10.34,10.34,0,0,0,0-1.67A3.58,3.58,0,0,0,88.8,9.4a2.33,2.33,0,0,0-1.74-.79A3.17,3.17,0,0,0,84.5,9.79,5.83,5.83,0,0,0,83.2,13Z" transform="translate(0 -2.32)" fill="#f2f2f2"/><path d="M96.81,7.19l-.28,1.47A4.58,4.58,0,0,1,100.1,7a2.88,2.88,0,0,1,2.43,1.14,4.43,4.43,0,0,1,.58,3.08l-1.27,7.62H99.89l1.28-7.64a4.08,4.08,0,0,0,0-1,1.61,1.61,0,0,0-1.77-1.53,3.66,3.66,0,0,0-3.07,1.87L94.9,18.82H93L95,7.2Z" transform="translate(0 -2.32)" fill="#f2f2f2"/><path d="M118.06,13a9.47,9.47,0,0,1,1-3.3A5.36,5.36,0,0,1,121,7.61,4.33,4.33,0,0,1,123.37,7a3.58,3.58,0,0,1,3.05,1.53l.39-1.3h1.78l-1.93,11.38a5.66,5.66,0,0,1-1.8,3.56,5.08,5.08,0,0,1-3.68,1.27,5.24,5.24,0,0,1-2.26-.56,4.3,4.3,0,0,1-1.7-1.47l1.11-1.19a3.49,3.49,0,0,0,5.13.83,4,4,0,0,0,1.27-2.32l.21-1A4.4,4.4,0,0,1,121.61,19a3.41,3.41,0,0,1-1.89-.59,3.56,3.56,0,0,1-1.24-1.6,6.53,6.53,0,0,1-.48-2.34A11.89,11.89,0,0,1,118.06,13Zm1.88,1.1a4.09,4.09,0,0,0,.53,2.38,2,2,0,0,0,1.7.89,3.52,3.52,0,0,0,3-1.71l.91-5.33a2.44,2.44,0,0,0-2.33-1.65,3,3,0,0,0-2.59,1.29,6.71,6.71,0,0,0-1.2,3.59Z" transform="translate(0 -2.32)" fill="#f2f2f2"/><path d="M131.68,18.82h-1.93l2-11.62h1.93ZM133.29,3a1.07,1.07,0,0,1,.82.3,1.11,1.11,0,0,1,.33.83,1.15,1.15,0,0,1-1.15,1.17,1.07,1.07,0,0,1-.83-.29,1,1,0,0,1-.31-.82,1.22,1.22,0,0,1,.32-.84A1.14,1.14,0,0,1,133.29,3Z" transform="translate(0 -2.32)" fill="#f2f2f2"/><path d="M142.09,9l-.91-.1a3.33,3.33,0,0,0-2.94,1.69l-1.43,8.26h-1.94l2-11.62h1.88l-.29,1.35A3.48,3.48,0,0,1,141.38,7a3.57,3.57,0,0,1,.92.16Z" transform="translate(0 -2.32)" fill="#f2f2f2"/><path d="M148.87,18.82a2.62,2.62,0,0,1-.08-.61l0-.61A4.76,4.76,0,0,1,145.43,19a3.47,3.47,0,0,1-2.5-1,2.94,2.94,0,0,1-.88-2.38,3.58,3.58,0,0,1,1.62-2.88,6.89,6.89,0,0,1,4-1h2l.13-.92a2.13,2.13,0,0,0-.4-1.65,2,2,0,0,0-1.53-.63,3,3,0,0,0-1.77.49,2.08,2.08,0,0,0-.94,1.35h-2A3.11,3.11,0,0,1,144,8.61a4.63,4.63,0,0,1,1.79-1.22A5.8,5.8,0,0,1,148.07,7a3.86,3.86,0,0,1,2.83,1.1,3.42,3.42,0,0,1,.85,2.81l-.95,5.76-.05.83a4,4,0,0,0,.13,1.17l0,.18Zm-3.05-1.5a3.39,3.39,0,0,0,1.77-.45A4.47,4.47,0,0,0,149,15.58l.42-2.4H148a5.57,5.57,0,0,0-2.81.58A2.14,2.14,0,0,0,144,15.39a1.66,1.66,0,0,0,.38,1.36A1.82,1.82,0,0,0,145.82,17.32Z" transform="translate(0 -2.32)" fill="#f2f2f2"/><path d="M171.17,19a4.19,4.19,0,0,1-3.39-1.6,5.51,5.51,0,0,1-1-4l.05-.46a7.75,7.75,0,0,1,1-3.16,6,6,0,0,1,2.06-2.15A4.8,4.8,0,0,1,172.5,7a3.7,3.7,0,0,1,2.81,1.19,4.9,4.9,0,0,1,1.12,3.12,9.14,9.14,0,0,1,0,1.4l-.12.89h-7.59a3.93,3.93,0,0,0,.52,2.69,2.47,2.47,0,0,0,2.13,1.15,4.13,4.13,0,0,0,3.18-1.55l1.12.95a5.11,5.11,0,0,1-1.88,1.65A5.35,5.35,0,0,1,171.17,19ZM172.4,8.6a2.84,2.84,0,0,0-2.1.82,5.79,5.79,0,0,0-1.42,2.52h5.65l0-.17a3.18,3.18,0,0,0-.44-2.25A2,2,0,0,0,172.4,8.6Z" transform="translate(0 -2.32)" fill="#f2f2f2"/><path d="M181.38,7.19l-.25,1.3A4.55,4.55,0,0,1,184.67,7a3.59,3.59,0,0,1,1.88.5,2.48,2.48,0,0,1,1.06,1.36A4.8,4.8,0,0,1,191.46,7,3.07,3.07,0,0,1,194,8.15a4.18,4.18,0,0,1,.61,3l-1.28,7.64h-1.93l1.27-7.66a4,4,0,0,0,0-1q-.2-1.46-1.91-1.49a2.94,2.94,0,0,0-1.93.66,3.06,3.06,0,0,0-1.11,1.79l-1.32,7.72h-2l1.29-7.65a2.45,2.45,0,0,0-.36-1.84,1.89,1.89,0,0,0-1.55-.67A3.18,3.18,0,0,0,181,10.32l-1.47,8.5h-1.94l2-11.62Z" transform="translate(0 -2.32)" fill="#f2f2f2"/><path d="M214.15,4.38l-.49,2.81h2.12l-.27,1.54H213.4L212.18,16a2.5,2.5,0,0,0,0,.52.82.82,0,0,0,.91.84,5.55,5.55,0,0,0,.95-.11l-.15,1.62a5.29,5.29,0,0,1-1.42.19,2,2,0,0,1-1.74-.85,3.3,3.3,0,0,1-.45-2.24l1.18-7.2H209.4l.27-1.54h2.05l.49-2.81Z" transform="translate(0 -2.32)" fill="#f2f2f2"/><path d="M222.33,7a4.19,4.19,0,0,1,2.5.79,4.53,4.53,0,0,1,1.54,2.13,6.62,6.62,0,0,1,.34,3l0,.24a7.81,7.81,0,0,1-1,3.07,5.92,5.92,0,0,1-2.08,2.13,5.09,5.09,0,0,1-2.8.72,4.2,4.2,0,0,1-2.5-.79,4.41,4.41,0,0,1-1.53-2.11,6.78,6.78,0,0,1-.34-2.93,7.93,7.93,0,0,1,1-3.24,6.06,6.06,0,0,1,2.1-2.23A5,5,0,0,1,222.33,7Zm-4,6.23a6.64,6.64,0,0,0,0,1.41,3.44,3.44,0,0,0,.76,2,2.27,2.27,0,0,0,1.73.78,3.1,3.1,0,0,0,1.78-.48A4,4,0,0,0,224,15.4a6.5,6.5,0,0,0,.72-2.29,10.23,10.23,0,0,0,0-1.67A3.58,3.58,0,0,0,224,9.4a2.32,2.32,0,0,0-1.74-.79,3.17,3.17,0,0,0-2.56,1.18A5.84,5.84,0,0,0,218.4,13Z" transform="translate(0 -2.32)" fill="#f2f2f2"/><path d="M235.39,9l-.91-.1a3.33,3.33,0,0,0-2.94,1.69l-1.43,8.26h-1.94l2-11.62h1.88l-.29,1.35A3.48,3.48,0,0,1,234.68,7a3.57,3.57,0,0,1,.92.16Z" transform="translate(0 -2.32)" fill="#f2f2f2"/><path d="M239.34,7.19l-.28,1.47A4.58,4.58,0,0,1,242.63,7a2.88,2.88,0,0,1,2.43,1.14,4.43,4.43,0,0,1,.58,3.08l-1.27,7.62h-1.94l1.28-7.64a4.05,4.05,0,0,0,0-1,1.61,1.61,0,0,0-1.77-1.53,3.66,3.66,0,0,0-3.07,1.87l-1.44,8.28h-1.94l2-11.62Z" transform="translate(0 -2.32)" fill="#f2f2f2"/><path d="M253.82,7a4.19,4.19,0,0,1,2.5.79,4.53,4.53,0,0,1,1.54,2.13,6.62,6.62,0,0,1,.34,3l0,.24a7.81,7.81,0,0,1-1,3.07,5.92,5.92,0,0,1-2.08,2.13,5.09,5.09,0,0,1-2.8.72,4.2,4.2,0,0,1-2.5-.79,4.41,4.41,0,0,1-1.53-2.11,6.78,6.78,0,0,1-.34-2.93,7.93,7.93,0,0,1,1-3.24A6.06,6.06,0,0,1,251,7.73,5,5,0,0,1,253.82,7Zm-4,6.23a6.64,6.64,0,0,0,0,1.41,3.44,3.44,0,0,0,.76,2,2.27,2.27,0,0,0,1.73.78,3.1,3.1,0,0,0,1.78-.48,4,4,0,0,0,1.38-1.54,6.5,6.5,0,0,0,.72-2.29,10.23,10.23,0,0,0,0-1.67,3.58,3.58,0,0,0-.78-2.05,2.32,2.32,0,0,0-1.74-.79,3.17,3.17,0,0,0-2.56,1.18,5.84,5.84,0,0,0-1.3,3.18Z" transform="translate(0 -2.32)" fill="#f2f2f2"/><path d="M272.86,13a9,9,0,0,1,1-3.2,5.54,5.54,0,0,1,1.88-2.14A4.3,4.3,0,0,1,278.18,7a3.63,3.63,0,0,1,3,1.42l1.12-6.07h1.94l-2.86,16.5h-1.77l.2-1.25A4.28,4.28,0,0,1,276.4,19a3.21,3.21,0,0,1-2.57-1.26,5.49,5.49,0,0,1-1-3.27A10.4,10.4,0,0,1,272.86,13Zm1.87,1.11a4,4,0,0,0,.55,2.38,2,2,0,0,0,1.7.87,3.51,3.51,0,0,0,3-1.7l.92-5.36a2.41,2.41,0,0,0-2.34-1.63,3,3,0,0,0-2,.69,4.47,4.47,0,0,0-1.33,2A8.35,8.35,0,0,0,274.73,14.1Z" transform="translate(0 -2.32)" fill="#f2f2f2"/><path d="M289.47,19a4.19,4.19,0,0,1-3.39-1.6,5.51,5.51,0,0,1-1-4l.05-.46a7.75,7.75,0,0,1,1-3.16,6,6,0,0,1,2.06-2.15A4.8,4.8,0,0,1,290.8,7a3.7,3.7,0,0,1,2.81,1.19,4.9,4.9,0,0,1,1.12,3.12,9.14,9.14,0,0,1,0,1.4l-.12.89H287a3.93,3.93,0,0,0,.52,2.69,2.47,2.47,0,0,0,2.13,1.15,4.13,4.13,0,0,0,3.18-1.55l1.12.95A5.11,5.11,0,0,1,292,18.46,5.35,5.35,0,0,1,289.47,19ZM290.7,8.6a2.84,2.84,0,0,0-2.1.82,5.79,5.79,0,0,0-1.42,2.52h5.65l0-.17a3.18,3.18,0,0,0-.44-2.25A2,2,0,0,0,290.7,8.6Z" transform="translate(0 -2.32)" fill="#f2f2f2"/><path d="M11.3,39.46a9.23,9.23,0,0,1-1,3.19,5.43,5.43,0,0,1-1.84,2.12,4.21,4.21,0,0,1-2.43.67A3.87,3.87,0,0,1,3,44.08l-1,5.61H0L2.8,33.6H4.56l-.21,1.3a4.41,4.41,0,0,1,3.45-1.5,3.24,3.24,0,0,1,2.61,1.24,5.44,5.44,0,0,1,1,3.29,11.64,11.64,0,0,1-.05,1.33Zm-1.91-.22.05-.9a4.08,4.08,0,0,0-.6-2.4,2.1,2.1,0,0,0-1.72-.87,3.45,3.45,0,0,0-2.91,1.6l-1,5.57a2.43,2.43,0,0,0,2.35,1.59,3.06,3.06,0,0,0,2.47-1.13A6.57,6.57,0,0,0,9.39,39.24Z" transform="translate(0 -2.32)" fill="#f2f2f2"/><path d="M20.09,35.37l-.91-.1A3.33,3.33,0,0,0,16.23,37l-1.43,8.26H12.86l2-11.62h1.88l-.29,1.35a3.48,3.48,0,0,1,2.91-1.58,3.57,3.57,0,0,1,.92.16Z" transform="translate(0 -2.32)" fill="#f2f2f2"/><path d="M26.43,33.38a4.19,4.19,0,0,1,2.5.79,4.52,4.52,0,0,1,1.54,2.13,6.6,6.6,0,0,1,.34,3l0,.24a7.82,7.82,0,0,1-1,3.07,5.92,5.92,0,0,1-2.08,2.13,5.09,5.09,0,0,1-2.8.72,4.2,4.2,0,0,1-2.5-.79,4.41,4.41,0,0,1-1.53-2.11,6.78,6.78,0,0,1-.34-2.93,7.92,7.92,0,0,1,1-3.24,6.06,6.06,0,0,1,2.1-2.23A5,5,0,0,1,26.43,33.38Zm-4,6.23a6.58,6.58,0,0,0,0,1.41,3.44,3.44,0,0,0,.76,2,2.27,2.27,0,0,0,1.73.78,3.1,3.1,0,0,0,1.78-.48,4,4,0,0,0,1.38-1.54,6.5,6.5,0,0,0,.72-2.29,10.34,10.34,0,0,0,0-1.67,3.58,3.58,0,0,0-.78-2.05A2.33,2.33,0,0,0,26.35,35a3.17,3.17,0,0,0-2.56,1.18,5.83,5.83,0,0,0-1.3,3.18Z" transform="translate(0 -2.32)" fill="#f2f2f2"/><path d="M42.8,39.46a9.06,9.06,0,0,1-1,3.21A5.48,5.48,0,0,1,40,44.79a4.21,4.21,0,0,1-2.41.66,3.59,3.59,0,0,1-3.13-1.58L34,45.22H32.25l2.87-16.5h1.94l-1.17,6.17a4.27,4.27,0,0,1,3.39-1.5,3.24,3.24,0,0,1,2.61,1.24,5.44,5.44,0,0,1,1,3.29,10.24,10.24,0,0,1-.06,1.33ZM41,38.34a4.14,4.14,0,0,0-.53-2.4,2,2,0,0,0-1.71-.87,3.54,3.54,0,0,0-3.07,1.82l-.87,5.05a2.47,2.47,0,0,0,2.42,1.81,2.83,2.83,0,0,0,2-.68,4.42,4.42,0,0,0,1.29-2A9,9,0,0,0,41,38.34Z" transform="translate(0 -2.32)" fill="#f2f2f2"/><path d="M46.44,45.22H44.51l2.86-16.5h1.94Z" transform="translate(0 -2.32)" fill="#f2f2f2"/><path d="M54.65,45.44a4.19,4.19,0,0,1-3.39-1.6,5.51,5.51,0,0,1-1-4l.05-.46a7.73,7.73,0,0,1,1-3.16,6,6,0,0,1,2.06-2.15A4.8,4.8,0,0,1,56,33.38a3.7,3.7,0,0,1,2.81,1.19,4.91,4.91,0,0,1,1.12,3.12,9.14,9.14,0,0,1,0,1.4l-.12.89H52.16a3.92,3.92,0,0,0,.52,2.69,2.47,2.47,0,0,0,2.13,1.15A4.13,4.13,0,0,0,58,42.27l1.12.95a5.11,5.11,0,0,1-1.89,1.65A5.35,5.35,0,0,1,54.65,45.44ZM55.88,35a2.84,2.84,0,0,0-2.1.82,5.8,5.8,0,0,0-1.42,2.52H58l0-.17a3.18,3.18,0,0,0-.44-2.25A2,2,0,0,0,55.88,35Z" transform="translate(0 -2.32)" fill="#f2f2f2"/><path d="M64.86,33.59l-.25,1.3a4.55,4.55,0,0,1,3.53-1.5,3.59,3.59,0,0,1,1.87.5,2.48,2.48,0,0,1,1.06,1.36,4.8,4.8,0,0,1,3.86-1.87,3.07,3.07,0,0,1,2.57,1.17,4.18,4.18,0,0,1,.61,3l-1.28,7.64H74.91l1.27-7.66a4,4,0,0,0,0-1Q76,35.08,74.26,35a2.94,2.94,0,0,0-1.93.66,3.06,3.06,0,0,0-1.11,1.79L69.9,45.22h-2l1.29-7.65a2.46,2.46,0,0,0-.36-1.84,1.89,1.89,0,0,0-1.55-.67,3.18,3.18,0,0,0-2.89,1.65L63,45.22H61L63,33.6Z" transform="translate(0 -2.32)" fill="#f2f2f2"/><path d="M87,45.22a2.59,2.59,0,0,1-.08-.61l0-.61a4.77,4.77,0,0,1-3.39,1.44,3.47,3.47,0,0,1-2.5-1,2.94,2.94,0,0,1-.88-2.38,3.58,3.58,0,0,1,1.62-2.88,6.88,6.88,0,0,1,4-1h2l.13-.92a2.13,2.13,0,0,0-.4-1.65A2,2,0,0,0,86,35a3,3,0,0,0-1.77.49,2.08,2.08,0,0,0-.94,1.35h-2A3.11,3.11,0,0,1,82.08,35a4.62,4.62,0,0,1,1.79-1.22,5.8,5.8,0,0,1,2.27-.41A3.86,3.86,0,0,1,89,34.47a3.42,3.42,0,0,1,.85,2.81L88.87,43l-.05.83A4,4,0,0,0,88.95,45l0,.18Zm-3.05-1.5a3.39,3.39,0,0,0,1.77-.45A4.48,4.48,0,0,0,87.1,42l.42-2.4H86a5.57,5.57,0,0,0-2.81.58,2.14,2.14,0,0,0-1.11,1.64,1.66,1.66,0,0,0,.38,1.36A1.81,1.81,0,0,0,83.9,43.72Z" transform="translate(0 -2.32)" fill="#f2f2f2"/><path d="M98.76,42.07q.16-1.2-1.32-1.7l-2-.59q-2.56-.88-2.47-2.92a3.22,3.22,0,0,1,1.4-2.52,5,5,0,0,1,3.12-1,4.17,4.17,0,0,1,2.86,1A3.25,3.25,0,0,1,101.39,37H99.45a1.81,1.81,0,0,0-.55-1.42A2.17,2.17,0,0,0,97.39,35a2.83,2.83,0,0,0-1.74.49,1.81,1.81,0,0,0-.78,1.27q-.14,1,1.24,1.47l1,.27a6.3,6.3,0,0,1,2.84,1.34,2.56,2.56,0,0,1,.77,2.05,3.26,3.26,0,0,1-.71,1.89A4.05,4.05,0,0,1,98.26,45a5.75,5.75,0,0,1-2.29.39,4.53,4.53,0,0,1-3.05-1.08,3.34,3.34,0,0,1-1.16-2.72h1.94a2.06,2.06,0,0,0,.62,1.57A2.38,2.38,0,0,0,96,43.8a3.35,3.35,0,0,0,1.84-.45A1.72,1.72,0,0,0,98.76,42.07Z" transform="translate(0 -2.32)" fill="#f2f2f2"/><path d="M143.31,42.07q.16-1.2-1.32-1.7l-2-.59q-2.56-.88-2.47-2.92a3.22,3.22,0,0,1,1.4-2.52,5,5,0,0,1,3.12-1,4.16,4.16,0,0,1,2.86,1A3.25,3.25,0,0,1,145.94,37H144a1.81,1.81,0,0,0-.55-1.42,2.17,2.17,0,0,0-1.51-.57,2.83,2.83,0,0,0-1.74.49,1.81,1.81,0,0,0-.78,1.27q-.14,1,1.24,1.47l1,.27a6.3,6.3,0,0,1,2.84,1.34,2.56,2.56,0,0,1,.77,2.05,3.26,3.26,0,0,1-.71,1.89A4.05,4.05,0,0,1,142.81,45a5.75,5.75,0,0,1-2.29.39,4.53,4.53,0,0,1-3.05-1.08,3.34,3.34,0,0,1-1.16-2.72h1.94a2.06,2.06,0,0,0,.62,1.57,2.38,2.38,0,0,0,1.71.59,3.35,3.35,0,0,0,1.84-.45A1.71,1.71,0,0,0,143.31,42.07Z" transform="translate(0 -2.32)" fill="#f2f2f2"/><path d="M154.6,44.07a4.49,4.49,0,0,1-3.47,1.36,2.9,2.9,0,0,1-2.47-1.19,4.57,4.57,0,0,1-.6-3.14l1.25-7.51h1.94L150,41.14a5,5,0,0,0,0,.92,1.92,1.92,0,0,0,.46,1.21,1.57,1.57,0,0,0,1.14.47,3.49,3.49,0,0,0,3.22-1.69l1.46-8.46h1.94l-2,11.62h-1.84Z" transform="translate(0 -2.32)" fill="#f2f2f2"/><path d="M159.65,39.39a9.48,9.48,0,0,1,1-3.3A5.38,5.38,0,0,1,162.55,34a4.34,4.34,0,0,1,2.41-.64A3.58,3.58,0,0,1,168,34.9l.39-1.3h1.78L168.25,45a5.66,5.66,0,0,1-1.8,3.56,5.08,5.08,0,0,1-3.68,1.27,5.23,5.23,0,0,1-2.26-.56,4.29,4.29,0,0,1-1.7-1.47l1.11-1.19a3.49,3.49,0,0,0,5.13.83,4,4,0,0,0,1.27-2.32l.21-1a4.4,4.4,0,0,1-3.32,1.38,3.41,3.41,0,0,1-1.88-.59,3.56,3.56,0,0,1-1.24-1.6,6.53,6.53,0,0,1-.48-2.34A11.89,11.89,0,0,1,159.65,39.39Zm1.88,1.1a4.08,4.08,0,0,0,.53,2.38,2,2,0,0,0,1.7.89,3.52,3.52,0,0,0,3-1.71l.91-5.33a2.44,2.44,0,0,0-2.33-1.65,3,3,0,0,0-2.59,1.29,6.7,6.7,0,0,0-1.2,3.59Z" transform="translate(0 -2.32)" fill="#f2f2f2"/><path d="M176.2,45.44a4.19,4.19,0,0,1-3.39-1.6,5.51,5.51,0,0,1-1-4l.05-.46a7.75,7.75,0,0,1,1-3.16,6,6,0,0,1,2.06-2.15,4.8,4.8,0,0,1,2.62-.69,3.7,3.7,0,0,1,2.81,1.19,4.9,4.9,0,0,1,1.12,3.12,9.14,9.14,0,0,1,0,1.4l-.12.89h-7.59a3.93,3.93,0,0,0,.52,2.69,2.47,2.47,0,0,0,2.13,1.15,4.13,4.13,0,0,0,3.18-1.55l1.12.95a5.11,5.11,0,0,1-1.88,1.65A5.35,5.35,0,0,1,176.2,45.44ZM177.43,35a2.84,2.84,0,0,0-2.1.82,5.79,5.79,0,0,0-1.42,2.52h5.65l0-.17a3.18,3.18,0,0,0-.44-2.25A2,2,0,0,0,177.43,35Z" transform="translate(0 -2.32)" fill="#f2f2f2"/><path d="M189.81,35.37l-.91-.1A3.33,3.33,0,0,0,186,37l-1.43,8.26h-1.94l2-11.62h1.88l-.29,1.35a3.48,3.48,0,0,1,2.91-1.58,3.57,3.57,0,0,1,.92.16Z" transform="translate(0 -2.32)" fill="#f2f2f2"/><path d="M192,45.22h-1.93l2-11.62H194Zm1.6-15.87a1.07,1.07,0,0,1,.82.3,1.11,1.11,0,0,1,.33.83,1.15,1.15,0,0,1-1.15,1.17,1.07,1.07,0,0,1-.83-.29,1.05,1.05,0,0,1-.31-.82,1.22,1.22,0,0,1,.32-.84A1.14,1.14,0,0,1,193.61,29.35Z" transform="translate(0 -2.32)" fill="#f2f2f2"/><path d="M195.75,39.39a9,9,0,0,1,1-3.2A5.54,5.54,0,0,1,198.61,34a4.3,4.3,0,0,1,2.46-.68,3.63,3.63,0,0,1,3,1.42l1.12-6.07h1.94l-2.86,16.5h-1.77l.2-1.25a4.28,4.28,0,0,1-3.39,1.46,3.21,3.21,0,0,1-2.57-1.26,5.49,5.49,0,0,1-1-3.27A10.4,10.4,0,0,1,195.75,39.39Zm1.87,1.11a4,4,0,0,0,.55,2.38,2,2,0,0,0,1.7.87,3.51,3.51,0,0,0,3-1.7l.92-5.36a2.41,2.41,0,0,0-2.34-1.63,3,3,0,0,0-2,.69,4.47,4.47,0,0,0-1.33,2A8.35,8.35,0,0,0,197.62,40.5Z" transform="translate(0 -2.32)" fill="#f2f2f2"/><path d="M213.78,33.38a4.19,4.19,0,0,1,2.5.79,4.53,4.53,0,0,1,1.54,2.13,6.62,6.62,0,0,1,.34,3l0,.24a7.81,7.81,0,0,1-1,3.07,5.92,5.92,0,0,1-2.08,2.13,5.09,5.09,0,0,1-2.8.72,4.2,4.2,0,0,1-2.5-.79,4.41,4.41,0,0,1-1.53-2.11,6.78,6.78,0,0,1-.34-2.93,7.93,7.93,0,0,1,1-3.24,6.06,6.06,0,0,1,2.1-2.23A5,5,0,0,1,213.78,33.38Zm-4,6.23a6.64,6.64,0,0,0,0,1.41,3.44,3.44,0,0,0,.76,2,2.27,2.27,0,0,0,1.73.78,3.1,3.1,0,0,0,1.78-.48,4,4,0,0,0,1.38-1.54,6.5,6.5,0,0,0,.72-2.29,10.23,10.23,0,0,0,0-1.67,3.58,3.58,0,0,0-.78-2.05,2.32,2.32,0,0,0-1.74-.79,3.17,3.17,0,0,0-2.56,1.18,5.84,5.84,0,0,0-1.3,3.18Z" transform="translate(0 -2.32)" fill="#f2f2f2"/><path d="M226.8,42.07q.16-1.2-1.32-1.7l-2-.59q-2.56-.88-2.47-2.92a3.22,3.22,0,0,1,1.4-2.52,5,5,0,0,1,3.12-1,4.16,4.16,0,0,1,2.86,1A3.25,3.25,0,0,1,229.44,37H227.5A1.81,1.81,0,0,0,227,35.6a2.17,2.17,0,0,0-1.51-.57,2.83,2.83,0,0,0-1.74.49,1.81,1.81,0,0,0-.78,1.27q-.14,1,1.24,1.47l1,.27A6.3,6.3,0,0,1,228,39.87a2.56,2.56,0,0,1,.77,2.05,3.26,3.26,0,0,1-.71,1.89A4.05,4.05,0,0,1,226.31,45a5.75,5.75,0,0,1-2.29.39A4.54,4.54,0,0,1,221,44.36a3.34,3.34,0,0,1-1.16-2.72h1.94a2.06,2.06,0,0,0,.62,1.57,2.38,2.38,0,0,0,1.71.59,3.35,3.35,0,0,0,1.84-.45A1.71,1.71,0,0,0,226.8,42.07Z" transform="translate(0 -2.32)" fill="#f2f2f2"/><path d="M274.68,39.46a9.23,9.23,0,0,1-1,3.19,5.43,5.43,0,0,1-1.84,2.12,4.21,4.21,0,0,1-2.43.67,3.87,3.87,0,0,1-3.09-1.36l-1,5.61h-1.94l2.79-16.09h1.76l-.21,1.3a4.41,4.41,0,0,1,3.45-1.5,3.24,3.24,0,0,1,2.61,1.24,5.44,5.44,0,0,1,1,3.29,11.64,11.64,0,0,1-.05,1.33Zm-1.91-.22.05-.9a4.09,4.09,0,0,0-.6-2.4,2.1,2.1,0,0,0-1.72-.87,3.45,3.45,0,0,0-2.91,1.6l-1,5.57A2.43,2.43,0,0,0,269,43.82a3.06,3.06,0,0,0,2.47-1.13A6.58,6.58,0,0,0,272.77,39.24Z" transform="translate(0 -2.32)" fill="#f2f2f2"/><path d="M282.7,33.38a4.19,4.19,0,0,1,2.5.79,4.53,4.53,0,0,1,1.54,2.13,6.62,6.62,0,0,1,.34,3l0,.24a7.81,7.81,0,0,1-1,3.07A5.92,5.92,0,0,1,284,44.72a5.09,5.09,0,0,1-2.8.72,4.2,4.2,0,0,1-2.5-.79,4.41,4.41,0,0,1-1.53-2.11,6.78,6.78,0,0,1-.34-2.93,7.93,7.93,0,0,1,1-3.24,6.06,6.06,0,0,1,2.1-2.23A5,5,0,0,1,282.7,33.38Zm-4,6.23a6.64,6.64,0,0,0,0,1.41,3.44,3.44,0,0,0,.76,2,2.27,2.27,0,0,0,1.73.78,3.1,3.1,0,0,0,1.78-.48,4,4,0,0,0,1.38-1.54,6.5,6.5,0,0,0,.72-2.29,10.23,10.23,0,0,0,0-1.67,3.58,3.58,0,0,0-.78-2.05,2.32,2.32,0,0,0-1.74-.79,3.17,3.17,0,0,0-2.56,1.18,5.84,5.84,0,0,0-1.3,3.18Z" transform="translate(0 -2.32)" fill="#f2f2f2"/><path d="M295.75,35.37l-.91-.1A3.33,3.33,0,0,0,291.89,37l-1.43,8.26h-1.94l2-11.62h1.88l-.29,1.35A3.48,3.48,0,0,1,295,33.36a3.57,3.57,0,0,1,.92.16Z" transform="translate(0 -2.32)" fill="#f2f2f2"/><path d="M5.8,71.83a4.19,4.19,0,0,1-3.39-1.6,5.51,5.51,0,0,1-1-4l.05-.46a7.73,7.73,0,0,1,1-3.16,6,6,0,0,1,2.06-2.15,4.8,4.8,0,0,1,2.62-.69A3.7,3.7,0,0,1,10,61a4.91,4.91,0,0,1,1.12,3.12,9.14,9.14,0,0,1,0,1.4l-.12.89H3.31a3.92,3.92,0,0,0,.52,2.69A2.47,2.47,0,0,0,6,70.21a4.13,4.13,0,0,0,3.18-1.55l1.12.95a5.11,5.11,0,0,1-1.89,1.65A5.35,5.35,0,0,1,5.8,71.83ZM7,61.4a2.84,2.84,0,0,0-2.1.82,5.8,5.8,0,0,0-1.42,2.52H9.17l0-.17a3.18,3.18,0,0,0-.44-2.25A2,2,0,0,0,7,61.4Z" transform="translate(0 -2.32)" fill="#f2f2f2"/><path d="M16,60l-.25,1.3a4.55,4.55,0,0,1,3.53-1.5,3.59,3.59,0,0,1,1.87.5,2.48,2.48,0,0,1,1.06,1.36,4.8,4.8,0,0,1,3.86-1.87A3.07,3.07,0,0,1,28.66,61a4.18,4.18,0,0,1,.61,3L28,71.62H26.06L27.33,64a4,4,0,0,0,0-1q-.2-1.46-1.91-1.49a2.94,2.94,0,0,0-1.93.66,3.06,3.06,0,0,0-1.11,1.79l-1.32,7.72h-2L20.39,64A2.46,2.46,0,0,0,20,62.13a1.89,1.89,0,0,0-1.55-.67,3.18,3.18,0,0,0-2.89,1.65l-1.47,8.5H12.17l2-11.62Z" transform="translate(0 -2.32)" fill="#f2f2f2"/><path d="M41.52,65.86a9.23,9.23,0,0,1-1,3.19,5.43,5.43,0,0,1-1.84,2.12,4.21,4.21,0,0,1-2.43.67,3.87,3.87,0,0,1-3.09-1.36l-1,5.61H30.22L33,60h1.76l-.21,1.3A4.41,4.41,0,0,1,38,59.78,3.24,3.24,0,0,1,40.62,61a5.44,5.44,0,0,1,1,3.29,11.64,11.64,0,0,1-.05,1.33Zm-1.91-.22.05-.9a4.08,4.08,0,0,0-.6-2.4,2.1,2.1,0,0,0-1.72-.87,3.45,3.45,0,0,0-2.91,1.6l-1,5.57a2.43,2.43,0,0,0,2.35,1.59,3.06,3.06,0,0,0,2.47-1.13A6.57,6.57,0,0,0,39.61,65.64Z" transform="translate(0 -2.32)" fill="#f2f2f2"/><path d="M50.31,61.77l-.91-.1a3.33,3.33,0,0,0-2.94,1.69L45,71.62H43.08L45.1,60H47l-.29,1.35a3.48,3.48,0,0,1,2.91-1.58,3.57,3.57,0,0,1,.92.16Z" transform="translate(0 -2.32)" fill="#f2f2f2"/><path d="M55.23,71.83a4.19,4.19,0,0,1-3.39-1.6,5.51,5.51,0,0,1-1-4l.05-.46a7.73,7.73,0,0,1,1-3.16,6,6,0,0,1,2.06-2.15,4.8,4.8,0,0,1,2.62-.69A3.7,3.7,0,0,1,59.38,61a4.91,4.91,0,0,1,1.12,3.12,9.14,9.14,0,0,1,0,1.4l-.12.89H52.74a3.92,3.92,0,0,0,.52,2.69,2.47,2.47,0,0,0,2.13,1.15,4.13,4.13,0,0,0,3.18-1.55l1.12.95a5.11,5.11,0,0,1-1.89,1.65A5.35,5.35,0,0,1,55.23,71.83ZM56.46,61.4a2.84,2.84,0,0,0-2.1.82,5.8,5.8,0,0,0-1.42,2.52h5.65l0-.17a3.18,3.18,0,0,0-.44-2.25A2,2,0,0,0,56.46,61.4Z" transform="translate(0 -2.32)" fill="#f2f2f2"/><path d="M68.81,68.47q.16-1.2-1.32-1.7l-2-.59Q62.91,65.3,63,63.26a3.22,3.22,0,0,1,1.4-2.52,5,5,0,0,1,3.12-1,4.17,4.17,0,0,1,2.86,1,3.25,3.25,0,0,1,1.06,2.62H69.5A1.81,1.81,0,0,0,69,62a2.17,2.17,0,0,0-1.51-.57,2.83,2.83,0,0,0-1.74.49,1.81,1.81,0,0,0-.78,1.27q-.14,1,1.24,1.47l1,.27A6.3,6.3,0,0,1,70,66.27a2.56,2.56,0,0,1,.77,2.05A3.26,3.26,0,0,1,70,70.21a4.05,4.05,0,0,1-1.72,1.23,5.75,5.75,0,0,1-2.29.39A4.53,4.53,0,0,1,63,70.76,3.34,3.34,0,0,1,61.81,68h1.94a2.06,2.06,0,0,0,.62,1.57,2.38,2.38,0,0,0,1.71.59,3.35,3.35,0,0,0,1.84-.45A1.72,1.72,0,0,0,68.81,68.47Z" transform="translate(0 -2.32)" fill="#f2f2f2"/><path d="M79.83,71.62a2.59,2.59,0,0,1-.08-.61l0-.61a4.77,4.77,0,0,1-3.39,1.44,3.47,3.47,0,0,1-2.5-1A2.94,2.94,0,0,1,73,68.48a3.58,3.58,0,0,1,1.62-2.88,6.88,6.88,0,0,1,4-1h2l.13-.92a2.13,2.13,0,0,0-.4-1.65,2,2,0,0,0-1.53-.63,3,3,0,0,0-1.77.49,2.08,2.08,0,0,0-.94,1.35h-2A3.11,3.11,0,0,1,75,61.41a4.62,4.62,0,0,1,1.79-1.22A5.8,5.8,0,0,1,79,59.77a3.86,3.86,0,0,1,2.83,1.1,3.42,3.42,0,0,1,.85,2.81l-.95,5.76-.05.83a4,4,0,0,0,.13,1.17l0,.18Zm-3.05-1.5a3.39,3.39,0,0,0,1.77-.45A4.48,4.48,0,0,0,80,68.38L80.4,66H78.93a5.57,5.57,0,0,0-2.81.58A2.14,2.14,0,0,0,75,68.19a1.66,1.66,0,0,0,.38,1.36A1.81,1.81,0,0,0,76.78,70.12Z" transform="translate(0 -2.32)" fill="#f2f2f2"/><path d="M91.63,68.47q.16-1.2-1.32-1.7l-2-.59q-2.56-.88-2.47-2.92a3.22,3.22,0,0,1,1.4-2.52,5,5,0,0,1,3.12-1,4.17,4.17,0,0,1,2.86,1,3.25,3.25,0,0,1,1.06,2.62H92.33A1.81,1.81,0,0,0,91.78,62a2.17,2.17,0,0,0-1.51-.57,2.83,2.83,0,0,0-1.74.49,1.81,1.81,0,0,0-.78,1.27q-.14,1,1.24,1.47l1,.27a6.3,6.3,0,0,1,2.84,1.34,2.56,2.56,0,0,1,.77,2.05,3.26,3.26,0,0,1-.71,1.89,4.05,4.05,0,0,1-1.72,1.23,5.75,5.75,0,0,1-2.29.39,4.53,4.53,0,0,1-3.05-1.08A3.34,3.34,0,0,1,84.64,68h1.94a2.06,2.06,0,0,0,.62,1.57,2.38,2.38,0,0,0,1.71.59,3.35,3.35,0,0,0,1.84-.45A1.72,1.72,0,0,0,91.63,68.47Z" transform="translate(0 -2.32)" fill="#f2f2f2"/><path d="M126.85,59.78a4.19,4.19,0,0,1,2.5.79,4.52,4.52,0,0,1,1.54,2.13,6.6,6.6,0,0,1,.34,3l0,.24a7.82,7.82,0,0,1-1,3.07,5.92,5.92,0,0,1-2.08,2.13,5.09,5.09,0,0,1-2.8.72,4.2,4.2,0,0,1-2.5-.79,4.41,4.41,0,0,1-1.53-2.11,6.78,6.78,0,0,1-.34-2.93,7.92,7.92,0,0,1,1-3.24,6.06,6.06,0,0,1,2.1-2.23A5,5,0,0,1,126.85,59.78Zm-4,6.23a6.58,6.58,0,0,0,0,1.41,3.44,3.44,0,0,0,.76,2,2.27,2.27,0,0,0,1.73.78,3.1,3.1,0,0,0,1.78-.48,4,4,0,0,0,1.37-1.54,6.5,6.5,0,0,0,.72-2.29,10.34,10.34,0,0,0,0-1.67,3.58,3.58,0,0,0-.78-2.05,2.33,2.33,0,0,0-1.74-.79,3.17,3.17,0,0,0-2.56,1.18,5.83,5.83,0,0,0-1.3,3.18Z" transform="translate(0 -2.32)" fill="#f2f2f2"/><path d="M136.53,60l-.28,1.47a4.58,4.58,0,0,1,3.57-1.68,2.88,2.88,0,0,1,2.43,1.14,4.42,4.42,0,0,1,.58,3.08l-1.27,7.62h-1.94L140.89,64a4.08,4.08,0,0,0,0-1,1.61,1.61,0,0,0-1.77-1.53,3.66,3.66,0,0,0-3.07,1.87l-1.44,8.28h-1.94l2-11.62Z" transform="translate(0 -2.32)" fill="#f2f2f2"/><path d="M145.11,65.79a9,9,0,0,1,1-3.2A5.54,5.54,0,0,1,148,60.45a4.3,4.3,0,0,1,2.46-.68,3.63,3.63,0,0,1,3,1.42l1.12-6.07h1.94l-2.86,16.5h-1.77l.2-1.25a4.28,4.28,0,0,1-3.39,1.46,3.21,3.21,0,0,1-2.57-1.26,5.49,5.49,0,0,1-1-3.27A10.4,10.4,0,0,1,145.11,65.79ZM147,66.9a4,4,0,0,0,.55,2.38,2,2,0,0,0,1.7.87,3.51,3.51,0,0,0,3-1.7l.92-5.36a2.41,2.41,0,0,0-2.34-1.63,3,3,0,0,0-2,.69,4.47,4.47,0,0,0-1.33,2A8.35,8.35,0,0,0,147,66.9Z" transform="translate(0 -2.32)" fill="#f2f2f2"/><path d="M161.72,71.83a4.19,4.19,0,0,1-3.39-1.6,5.51,5.51,0,0,1-1-4l.05-.46a7.75,7.75,0,0,1,1-3.16,6,6,0,0,1,2.06-2.15,4.8,4.8,0,0,1,2.62-.69A3.7,3.7,0,0,1,165.86,61,4.9,4.9,0,0,1,167,64.09a9.14,9.14,0,0,1,0,1.4l-.12.89h-7.59a3.93,3.93,0,0,0,.52,2.69,2.47,2.47,0,0,0,2.13,1.15,4.13,4.13,0,0,0,3.18-1.55l1.12.95a5.11,5.11,0,0,1-1.88,1.65A5.35,5.35,0,0,1,161.72,71.83ZM163,61.4a2.84,2.84,0,0,0-2.1.82,5.79,5.79,0,0,0-1.42,2.52h5.65l0-.17a3.18,3.18,0,0,0-.44-2.25A2,2,0,0,0,163,61.4Z" transform="translate(0 -2.32)" fill="#f2f2f2"/><path d="M198.08,57.18,197.59,60h2.12l-.27,1.54h-2.11l-1.21,7.23a2.5,2.5,0,0,0,0,.52.82.82,0,0,0,.91.84A5.55,5.55,0,0,0,198,70l-.15,1.62a5.29,5.29,0,0,1-1.42.19,2,2,0,0,1-1.74-.85,3.3,3.3,0,0,1-.45-2.24l1.18-7.2h-2.05L193.6,60h2.05l.49-2.81Z" transform="translate(0 -2.32)" fill="#f2f2f2"/><path d="M206.27,59.78a4.19,4.19,0,0,1,2.5.79,4.53,4.53,0,0,1,1.54,2.13,6.62,6.62,0,0,1,.34,3l0,.24a7.81,7.81,0,0,1-1,3.07,5.92,5.92,0,0,1-2.08,2.13,5.09,5.09,0,0,1-2.8.72,4.2,4.2,0,0,1-2.5-.79,4.41,4.41,0,0,1-1.53-2.11,6.78,6.78,0,0,1-.34-2.93,7.93,7.93,0,0,1,1-3.24,6.06,6.06,0,0,1,2.1-2.23A5,5,0,0,1,206.27,59.78Zm-4,6.23a6.64,6.64,0,0,0,0,1.41,3.44,3.44,0,0,0,.76,2,2.27,2.27,0,0,0,1.73.78,3.1,3.1,0,0,0,1.78-.48A4,4,0,0,0,208,68.2a6.5,6.5,0,0,0,.72-2.29,10.23,10.23,0,0,0,0-1.67,3.58,3.58,0,0,0-.78-2.05,2.32,2.32,0,0,0-1.74-.79,3.17,3.17,0,0,0-2.56,1.18,5.84,5.84,0,0,0-1.3,3.18Z" transform="translate(0 -2.32)" fill="#f2f2f2"/><path d="M212.65,65.79a9,9,0,0,1,1-3.2,5.54,5.54,0,0,1,1.88-2.14,4.3,4.3,0,0,1,2.46-.68,3.63,3.63,0,0,1,3,1.42l1.12-6.07H224l-2.86,16.5h-1.77l.2-1.25a4.28,4.28,0,0,1-3.39,1.46,3.21,3.21,0,0,1-2.57-1.26,5.49,5.49,0,0,1-1-3.27A10.4,10.4,0,0,1,212.65,65.79Zm1.87,1.11a4,4,0,0,0,.55,2.38,2,2,0,0,0,1.7.87,3.51,3.51,0,0,0,3-1.7l.92-5.36a2.41,2.41,0,0,0-2.34-1.63,3,3,0,0,0-2,.69,4.47,4.47,0,0,0-1.33,2A8.35,8.35,0,0,0,214.52,66.9Z" transform="translate(0 -2.32)" fill="#f2f2f2"/><path d="M230.68,59.78a4.19,4.19,0,0,1,2.5.79,4.53,4.53,0,0,1,1.54,2.13,6.62,6.62,0,0,1,.34,3l0,.24A7.81,7.81,0,0,1,234,69,5.92,5.92,0,0,1,232,71.12a5.09,5.09,0,0,1-2.8.72,4.2,4.2,0,0,1-2.5-.79,4.41,4.41,0,0,1-1.53-2.11,6.78,6.78,0,0,1-.34-2.93,7.93,7.93,0,0,1,1-3.24,6.06,6.06,0,0,1,2.1-2.23A5,5,0,0,1,230.68,59.78Zm-4,6.23a6.64,6.64,0,0,0,0,1.41,3.44,3.44,0,0,0,.76,2,2.27,2.27,0,0,0,1.73.78,3.1,3.1,0,0,0,1.78-.48,4,4,0,0,0,1.38-1.54,6.5,6.5,0,0,0,.72-2.29,10.23,10.23,0,0,0,0-1.67,3.58,3.58,0,0,0-.78-2.05,2.32,2.32,0,0,0-1.74-.79,3.17,3.17,0,0,0-2.56,1.18,5.84,5.84,0,0,0-1.3,3.18Z" transform="translate(0 -2.32)" fill="#f2f2f2"/><path d="M243.7,68.47q.16-1.2-1.32-1.7l-2-.59q-2.56-.88-2.47-2.92a3.22,3.22,0,0,1,1.4-2.52,5,5,0,0,1,3.12-1,4.16,4.16,0,0,1,2.86,1,3.25,3.25,0,0,1,1.06,2.62H244.4a1.81,1.81,0,0,0-.55-1.42,2.17,2.17,0,0,0-1.51-.57,2.83,2.83,0,0,0-1.74.49,1.81,1.81,0,0,0-.78,1.27q-.14,1,1.24,1.47l1,.27a6.3,6.3,0,0,1,2.84,1.34,2.56,2.56,0,0,1,.77,2.05,3.26,3.26,0,0,1-.71,1.89,4.05,4.05,0,0,1-1.72,1.23,5.75,5.75,0,0,1-2.29.39,4.54,4.54,0,0,1-3.05-1.08A3.34,3.34,0,0,1,236.71,68h1.94a2.06,2.06,0,0,0,.62,1.57,2.38,2.38,0,0,0,1.71.59,3.35,3.35,0,0,0,1.84-.45A1.71,1.71,0,0,0,243.7,68.47Z" transform="translate(0 -2.32)" fill="#f2f2f2"/><path d="M278.92,59.78a4.19,4.19,0,0,1,2.5.79A4.53,4.53,0,0,1,283,62.71a6.62,6.62,0,0,1,.34,3l0,.24a7.81,7.81,0,0,1-1,3.07,5.92,5.92,0,0,1-2.08,2.13,5.09,5.09,0,0,1-2.8.72,4.2,4.2,0,0,1-2.5-.79,4.41,4.41,0,0,1-1.53-2.11A6.78,6.78,0,0,1,273,66a7.93,7.93,0,0,1,1-3.24,6.06,6.06,0,0,1,2.1-2.23A5,5,0,0,1,278.92,59.78ZM275,66a6.64,6.64,0,0,0,0,1.41,3.44,3.44,0,0,0,.76,2,2.27,2.27,0,0,0,1.73.78,3.1,3.1,0,0,0,1.78-.48,4,4,0,0,0,1.38-1.54,6.5,6.5,0,0,0,.72-2.29,10.23,10.23,0,0,0,0-1.67,3.58,3.58,0,0,0-.78-2.05,2.32,2.32,0,0,0-1.74-.79,3.17,3.17,0,0,0-2.56,1.18,5.84,5.84,0,0,0-1.3,3.18Z" transform="translate(0 -2.32)" fill="#f2f2f2"/><path d="M291.94,68.47q.16-1.2-1.32-1.7l-2-.59q-2.56-.88-2.47-2.92a3.22,3.22,0,0,1,1.4-2.52,5,5,0,0,1,3.12-1,4.16,4.16,0,0,1,2.86,1,3.25,3.25,0,0,1,1.06,2.62h-1.93a1.81,1.81,0,0,0-.55-1.42,2.17,2.17,0,0,0-1.51-.57,2.83,2.83,0,0,0-1.74.49,1.81,1.81,0,0,0-.78,1.27q-.14,1,1.24,1.47l1,.27a6.3,6.3,0,0,1,2.84,1.34,2.56,2.56,0,0,1,.77,2.05,3.26,3.26,0,0,1-.71,1.89,4.05,4.05,0,0,1-1.72,1.23,5.75,5.75,0,0,1-2.29.39,4.54,4.54,0,0,1-3.05-1.08A3.34,3.34,0,0,1,284.94,68h1.94a2.06,2.06,0,0,0,.62,1.57,2.38,2.38,0,0,0,1.71.59,3.35,3.35,0,0,0,1.84-.45A1.71,1.71,0,0,0,291.94,68.47Z" transform="translate(0 -2.32)" fill="#f2f2f2"/><path d="M11.3,92.26a9.23,9.23,0,0,1-1,3.19,5.43,5.43,0,0,1-1.84,2.12,4.21,4.21,0,0,1-2.43.67A3.87,3.87,0,0,1,3,96.88l-1,5.61H0L2.8,86.4H4.56l-.21,1.3a4.41,4.41,0,0,1,3.45-1.5,3.24,3.24,0,0,1,2.61,1.24,5.44,5.44,0,0,1,1,3.29A11.64,11.64,0,0,1,11.34,92ZM9.39,92l.05-.9a4.08,4.08,0,0,0-.6-2.4,2.1,2.1,0,0,0-1.72-.87,3.45,3.45,0,0,0-2.91,1.6L3.24,95a2.43,2.43,0,0,0,2.35,1.59,3.06,3.06,0,0,0,2.47-1.13A6.57,6.57,0,0,0,9.39,92Z" transform="translate(0 -2.32)" fill="#f2f2f2"/><path d="M20,98a2.59,2.59,0,0,1-.08-.61l0-.61a4.77,4.77,0,0,1-3.39,1.44,3.47,3.47,0,0,1-2.5-1,2.94,2.94,0,0,1-.88-2.38A3.58,3.58,0,0,1,14.78,92a6.88,6.88,0,0,1,4-1h2l.13-.92a2.13,2.13,0,0,0-.4-1.65A2,2,0,0,0,19,87.77a3,3,0,0,0-1.77.49,2.08,2.08,0,0,0-.94,1.35h-2a3.11,3.11,0,0,1,.79-1.81,4.62,4.62,0,0,1,1.79-1.22,5.8,5.8,0,0,1,2.27-.41A3.86,3.86,0,0,1,22,87.27a3.42,3.42,0,0,1,.85,2.81l-.95,5.76-.05.83A4,4,0,0,0,22,97.84l0,.18Zm-3.05-1.5a3.39,3.39,0,0,0,1.77-.45,4.48,4.48,0,0,0,1.43-1.29l.42-2.4H19.07a5.57,5.57,0,0,0-2.81.58,2.14,2.14,0,0,0-1.11,1.64A1.66,1.66,0,0,0,15.53,96,1.81,1.81,0,0,0,16.92,96.52Z" transform="translate(0 -2.32)" fill="#f2f2f2"/><path d="M31.81,88.17l-.91-.1A3.33,3.33,0,0,0,28,89.76L26.53,98H24.58l2-11.62h1.88l-.29,1.35a3.48,3.48,0,0,1,2.91-1.58,3.57,3.57,0,0,1,.92.16Z" transform="translate(0 -2.32)" fill="#f2f2f2"/><path d="M37.58,83.58l-.49,2.81H39.2l-.27,1.54H36.83l-1.21,7.23a2.5,2.5,0,0,0,0,.52.82.82,0,0,0,.91.84,5.55,5.55,0,0,0,.95-.11L37.31,98a5.29,5.29,0,0,1-1.42.19,2,2,0,0,1-1.74-.85,3.3,3.3,0,0,1-.45-2.24l1.18-7.2H32.83l.27-1.54h2.05l.49-2.81Z" transform="translate(0 -2.32)" fill="#f2f2f2"/><path d="M41.63,98H39.7l2-11.62h1.93Zm1.6-15.87a1.07,1.07,0,0,1,.82.3,1.11,1.11,0,0,1,.33.83,1.15,1.15,0,0,1-1.15,1.17,1.07,1.07,0,0,1-.83-.29,1,1,0,0,1-.31-.82,1.22,1.22,0,0,1,.32-.84A1.14,1.14,0,0,1,43.23,82.15Z" transform="translate(0 -2.32)" fill="#f2f2f2"/><path d="M49.72,96.62A3,3,0,0,0,51.6,96a2.89,2.89,0,0,0,1.1-1.65h1.84a4.15,4.15,0,0,1-.88,2,5.06,5.06,0,0,1-4,1.88,4.15,4.15,0,0,1-2.45-.76,4.23,4.23,0,0,1-1.48-2.05,6.83,6.83,0,0,1-.32-3l.05-.54a7.7,7.7,0,0,1,1-3,5.65,5.65,0,0,1,2-2.06,5,5,0,0,1,2.75-.69,3.93,3.93,0,0,1,2.92,1.22,4.24,4.24,0,0,1,1.1,3H53.38a2.79,2.79,0,0,0-.63-1.84,2.21,2.21,0,0,0-1.65-.75,3.1,3.1,0,0,0-2.52,1.13,5.9,5.9,0,0,0-1.25,3.24l0,.28a9.3,9.3,0,0,0,0,1.42,3.23,3.23,0,0,0,.71,2A2.28,2.28,0,0,0,49.72,96.62Z" transform="translate(0 -2.32)" fill="#f2f2f2"/><path d="M58.19,98H56.26l2-11.62h1.93Zm1.6-15.87a1.07,1.07,0,0,1,.82.3,1.11,1.11,0,0,1,.33.83,1.15,1.15,0,0,1-1.15,1.17,1.07,1.07,0,0,1-.83-.29,1,1,0,0,1-.31-.82,1.22,1.22,0,0,1,.32-.84A1.14,1.14,0,0,1,59.79,82.15Z" transform="translate(0 -2.32)" fill="#f2f2f2"/><path d="M71.9,92.26a9.23,9.23,0,0,1-1,3.19,5.43,5.43,0,0,1-1.84,2.12,4.21,4.21,0,0,1-2.43.67,3.87,3.87,0,0,1-3.09-1.36l-1,5.61H60.6L63.39,86.4h1.76l-.21,1.3a4.41,4.41,0,0,1,3.45-1.5A3.24,3.24,0,0,1,71,87.42a5.44,5.44,0,0,1,1,3.29A11.64,11.64,0,0,1,71.93,92ZM70,92l.05-.9a4.08,4.08,0,0,0-.6-2.4,2.1,2.1,0,0,0-1.72-.87,3.45,3.45,0,0,0-2.91,1.6l-1,5.57a2.43,2.43,0,0,0,2.35,1.59,3.06,3.06,0,0,0,2.47-1.13A6.57,6.57,0,0,0,70,92Z" transform="translate(0 -2.32)" fill="#f2f2f2"/><path d="M80.57,98a2.59,2.59,0,0,1-.08-.61l0-.61a4.77,4.77,0,0,1-3.39,1.44,3.47,3.47,0,0,1-2.5-1,2.94,2.94,0,0,1-.88-2.38A3.58,3.58,0,0,1,75.38,92a6.88,6.88,0,0,1,4-1h2L81.5,90a2.13,2.13,0,0,0-.4-1.65,2,2,0,0,0-1.53-.63,3,3,0,0,0-1.77.49,2.08,2.08,0,0,0-.94,1.35h-2a3.11,3.11,0,0,1,.79-1.81,4.62,4.62,0,0,1,1.79-1.22,5.8,5.8,0,0,1,2.27-.41,3.86,3.86,0,0,1,2.83,1.1,3.42,3.42,0,0,1,.85,2.81l-.95,5.76-.05.83a4,4,0,0,0,.13,1.17l0,.18Zm-3.05-1.5a3.39,3.39,0,0,0,1.77-.45,4.48,4.48,0,0,0,1.43-1.29l.42-2.4H79.67a5.57,5.57,0,0,0-2.81.58,2.14,2.14,0,0,0-1.11,1.64A1.66,1.66,0,0,0,76.13,96,1.81,1.81,0,0,0,77.52,96.52Z" transform="translate(0 -2.32)" fill="#f2f2f2"/><path d="M89,86.39l-.28,1.47a4.58,4.58,0,0,1,3.57-1.68,2.88,2.88,0,0,1,2.43,1.14,4.43,4.43,0,0,1,.58,3.08L94.06,98H92.12l1.28-7.64a4.08,4.08,0,0,0,0-1,1.61,1.61,0,0,0-1.77-1.53,3.66,3.66,0,0,0-3.07,1.87L87.12,98H85.18l2-11.62Z" transform="translate(0 -2.32)" fill="#f2f2f2"/><path d="M102.19,83.58l-.49,2.81h2.12l-.27,1.54h-2.11l-1.21,7.23a2.5,2.5,0,0,0,0,.52.82.82,0,0,0,.91.84,5.55,5.55,0,0,0,.95-.11L101.92,98a5.29,5.29,0,0,1-1.42.19,2,2,0,0,1-1.74-.85,3.3,3.3,0,0,1-.45-2.24l1.18-7.2H97.45l.27-1.54h2.05l.49-2.81Z" transform="translate(0 -2.32)" fill="#f2f2f2"/><path d="M109.17,98.24a4.19,4.19,0,0,1-3.39-1.6,5.51,5.51,0,0,1-1-4l.05-.46a7.73,7.73,0,0,1,1-3.16,6,6,0,0,1,2.06-2.15,4.8,4.8,0,0,1,2.62-.69,3.7,3.7,0,0,1,2.81,1.19,4.91,4.91,0,0,1,1.12,3.12,9.14,9.14,0,0,1,0,1.4l-.12.89h-7.59a3.92,3.92,0,0,0,.52,2.69,2.47,2.47,0,0,0,2.13,1.15,4.13,4.13,0,0,0,3.18-1.55l1.12.95a5.11,5.11,0,0,1-1.89,1.65A5.35,5.35,0,0,1,109.17,98.24ZM110.4,87.8a2.84,2.84,0,0,0-2.1.82,5.8,5.8,0,0,0-1.42,2.52h5.65l0-.17a3.18,3.18,0,0,0-.44-2.25A2,2,0,0,0,110.4,87.8Z" transform="translate(0 -2.32)" fill="#f2f2f2"/><path d="M122.74,94.87q.16-1.2-1.32-1.7l-2-.59q-2.56-.88-2.47-2.92a3.22,3.22,0,0,1,1.4-2.52,5,5,0,0,1,3.12-1,4.17,4.17,0,0,1,2.86,1,3.25,3.25,0,0,1,1.06,2.62h-1.93a1.81,1.81,0,0,0-.55-1.42,2.17,2.17,0,0,0-1.51-.57,2.83,2.83,0,0,0-1.74.49,1.81,1.81,0,0,0-.78,1.27q-.14,1,1.24,1.47l1,.27a6.3,6.3,0,0,1,2.84,1.34,2.56,2.56,0,0,1,.77,2.05,3.26,3.26,0,0,1-.71,1.89,4.05,4.05,0,0,1-1.72,1.23,5.75,5.75,0,0,1-2.29.39,4.53,4.53,0,0,1-3.05-1.08,3.34,3.34,0,0,1-1.16-2.72h1.94a2.06,2.06,0,0,0,.62,1.57,2.38,2.38,0,0,0,1.71.59,3.35,3.35,0,0,0,1.84-.45A1.72,1.72,0,0,0,122.74,94.87Z" transform="translate(0 -2.32)" fill="#f2f2f2"/><path d="M267.94,94.87q.16-1.2-1.32-1.7l-2-.59q-2.56-.88-2.47-2.92a3.22,3.22,0,0,1,1.4-2.52,5,5,0,0,1,3.12-1,4.16,4.16,0,0,1,2.86,1,3.25,3.25,0,0,1,1.06,2.62h-1.93a1.81,1.81,0,0,0-.55-1.42,2.17,2.17,0,0,0-1.51-.57,2.83,2.83,0,0,0-1.74.49,1.81,1.81,0,0,0-.78,1.27q-.14,1,1.24,1.47l1,.27a6.3,6.3,0,0,1,2.84,1.34,2.56,2.56,0,0,1,.77,2.05,3.26,3.26,0,0,1-.71,1.89,4.05,4.05,0,0,1-1.72,1.23,5.75,5.75,0,0,1-2.29.39,4.54,4.54,0,0,1-3.05-1.08,3.34,3.34,0,0,1-1.16-2.72h1.94a2.06,2.06,0,0,0,.62,1.57,2.38,2.38,0,0,0,1.71.59,3.35,3.35,0,0,0,1.84-.45A1.71,1.71,0,0,0,267.94,94.87Z" transform="translate(0 -2.32)" fill="#f2f2f2"/><path d="M279,98a2.62,2.62,0,0,1-.08-.61l0-.61a4.77,4.77,0,0,1-3.39,1.44,3.47,3.47,0,0,1-2.5-1,2.94,2.94,0,0,1-.88-2.38A3.58,3.58,0,0,1,273.77,92a6.89,6.89,0,0,1,4-1h2l.13-.92a2.13,2.13,0,0,0-.4-1.65,2,2,0,0,0-1.53-.63,3,3,0,0,0-1.77.49,2.08,2.08,0,0,0-.94,1.35h-2a3.11,3.11,0,0,1,.79-1.81,4.63,4.63,0,0,1,1.79-1.22,5.8,5.8,0,0,1,2.27-.41,3.86,3.86,0,0,1,2.83,1.1,3.42,3.42,0,0,1,.85,2.81l-.95,5.76-.05.83a4,4,0,0,0,.13,1.17l0,.18Zm-3.05-1.5a3.39,3.39,0,0,0,1.77-.45,4.47,4.47,0,0,0,1.43-1.29l.42-2.4h-1.47a5.57,5.57,0,0,0-2.81.58,2.14,2.14,0,0,0-1.11,1.64,1.66,1.66,0,0,0,.38,1.36A1.82,1.82,0,0,0,275.91,96.52Zm7-14.66a3.28,3.28,0,0,1-.78,1.91,2.14,2.14,0,0,1-1.65.72,1.57,1.57,0,0,1-.72-.17q-.33-.17-.65-.37a6.69,6.69,0,0,0-.66-.37,1.53,1.53,0,0,0-.72-.15q-.91,0-1.25,1.2l-1.31-.08a3.36,3.36,0,0,1,.8-1.93,2.08,2.08,0,0,1,1.67-.73,1.6,1.6,0,0,1,.54.09,5.44,5.44,0,0,1,.82.44,5.47,5.47,0,0,0,.83.45,1.43,1.43,0,0,0,.55.09q.92,0,1.27-1.21Z" transform="translate(0 -2.32)" fill="#f2f2f2"/><path d="M290,86.18a4.19,4.19,0,0,1,2.5.79,4.53,4.53,0,0,1,1.54,2.13,6.62,6.62,0,0,1,.34,3l0,.24a7.81,7.81,0,0,1-1,3.07,5.92,5.92,0,0,1-2.08,2.13,5.09,5.09,0,0,1-2.8.72,4.2,4.2,0,0,1-2.5-.79,4.41,4.41,0,0,1-1.53-2.11,6.78,6.78,0,0,1-.34-2.93,7.93,7.93,0,0,1,1-3.24,6.06,6.06,0,0,1,2.1-2.23A5,5,0,0,1,290,86.18Zm-4,6.23a6.64,6.64,0,0,0,0,1.41,3.44,3.44,0,0,0,.76,2,2.27,2.27,0,0,0,1.73.78,3.1,3.1,0,0,0,1.78-.48,4,4,0,0,0,1.38-1.54,6.5,6.5,0,0,0,.72-2.29,10.23,10.23,0,0,0,0-1.67,3.58,3.58,0,0,0-.78-2.05,2.32,2.32,0,0,0-1.74-.79A3.17,3.17,0,0,0,287.39,89a5.84,5.84,0,0,0-1.3,3.18Z" transform="translate(0 -2.32)" fill="#f2f2f2"/><path d="M5.8,124.64A4.19,4.19,0,0,1,2.41,123a5.51,5.51,0,0,1-1-4l.05-.46a7.72,7.72,0,0,1,1-3.16,6,6,0,0,1,2.06-2.15,4.8,4.8,0,0,1,2.62-.69A3.69,3.69,0,0,1,10,113.77a4.91,4.91,0,0,1,1.12,3.12,9.14,9.14,0,0,1,0,1.4l-.12.89H3.31a3.92,3.92,0,0,0,.52,2.69A2.47,2.47,0,0,0,6,123a4.14,4.14,0,0,0,3.18-1.55l1.12.95a5.11,5.11,0,0,1-1.89,1.65A5.35,5.35,0,0,1,5.8,124.64ZM7,114.2a2.84,2.84,0,0,0-2.1.82,5.8,5.8,0,0,0-1.42,2.52H9.17l0-.17a3.19,3.19,0,0,0-.44-2.25A2,2,0,0,0,7,114.2Z" transform="translate(0 -2.32)" fill="#f2f2f2"/><path d="M16,112.79l-.28,1.47a4.58,4.58,0,0,1,3.57-1.68,2.88,2.88,0,0,1,2.43,1.14,4.43,4.43,0,0,1,.58,3.08l-1.27,7.62H19.12l1.28-7.64a4.08,4.08,0,0,0,0-1,1.61,1.61,0,0,0-1.77-1.53,3.66,3.66,0,0,0-3.07,1.87l-1.44,8.28H12.18l2-11.62Z" transform="translate(0 -2.32)" fill="#f2f2f2"/><path d="M29,123a3,3,0,0,0,1.88-.61,2.88,2.88,0,0,0,1.1-1.65h1.84a4.15,4.15,0,0,1-.88,2,5.06,5.06,0,0,1-4,1.88,4.15,4.15,0,0,1-2.45-.76A4.23,4.23,0,0,1,25,121.83a6.82,6.82,0,0,1-.32-3l.05-.54a7.7,7.7,0,0,1,1-3,5.66,5.66,0,0,1,2-2.06,5,5,0,0,1,2.75-.69,3.93,3.93,0,0,1,2.92,1.22,4.24,4.24,0,0,1,1.1,3H32.64A2.79,2.79,0,0,0,32,115a2.21,2.21,0,0,0-1.65-.75,3.1,3.1,0,0,0-2.52,1.13,5.9,5.9,0,0,0-1.25,3.24l0,.28a9.29,9.29,0,0,0,0,1.42,3.24,3.24,0,0,0,.71,2A2.28,2.28,0,0,0,29,123Z" transform="translate(0 -2.32)" fill="#f2f2f2"/><path d="M42.46,124.42a2.6,2.6,0,0,1-.08-.61l0-.61A4.77,4.77,0,0,1,39,124.64a3.47,3.47,0,0,1-2.5-1,2.94,2.94,0,0,1-.88-2.38,3.58,3.58,0,0,1,1.62-2.88,6.89,6.89,0,0,1,4-1h2l.13-.92a2.13,2.13,0,0,0-.4-1.65,2,2,0,0,0-1.53-.63,3,3,0,0,0-1.77.49,2.08,2.08,0,0,0-.94,1.35h-2a3.11,3.11,0,0,1,.79-1.81A4.62,4.62,0,0,1,39.38,113a5.79,5.79,0,0,1,2.27-.41,3.85,3.85,0,0,1,2.83,1.1,3.42,3.42,0,0,1,.85,2.81l-.95,5.76-.05.83a4,4,0,0,0,.13,1.17l0,.18Zm-3.05-1.5a3.39,3.39,0,0,0,1.77-.45,4.48,4.48,0,0,0,1.43-1.29l.42-2.4H41.55a5.57,5.57,0,0,0-2.81.58A2.14,2.14,0,0,0,37.63,121a1.66,1.66,0,0,0,.38,1.36A1.81,1.81,0,0,0,39.41,122.92Z" transform="translate(0 -2.32)" fill="#f2f2f2"/><path d="M54.29,114.57l-.91-.1a3.33,3.33,0,0,0-2.94,1.69L49,124.42H47.06l2-11.62H51l-.29,1.35a3.48,3.48,0,0,1,2.91-1.58,3.57,3.57,0,0,1,.92.16Z" transform="translate(0 -2.32)" fill="#f2f2f2"/><path d="M61.62,114.57l-.91-.1a3.33,3.33,0,0,0-2.94,1.69l-1.43,8.26H54.39l2-11.62h1.88L58,114.14a3.48,3.48,0,0,1,2.91-1.58,3.57,3.57,0,0,1,.92.16Z" transform="translate(0 -2.32)" fill="#f2f2f2"/><path d="M66.54,124.64a4.19,4.19,0,0,1-3.39-1.6,5.51,5.51,0,0,1-1-4l.05-.46a7.72,7.72,0,0,1,1-3.16,6,6,0,0,1,2.06-2.15,4.8,4.8,0,0,1,2.62-.69,3.69,3.69,0,0,1,2.81,1.19,4.91,4.91,0,0,1,1.12,3.12,9.14,9.14,0,0,1,0,1.4l-.12.89H64a3.92,3.92,0,0,0,.52,2.69A2.47,2.47,0,0,0,66.7,123a4.14,4.14,0,0,0,3.18-1.55l1.12.95a5.11,5.11,0,0,1-1.89,1.65A5.35,5.35,0,0,1,66.54,124.64Zm1.24-10.43a2.84,2.84,0,0,0-2.1.82,5.8,5.8,0,0,0-1.42,2.52H69.9l0-.17a3.19,3.19,0,0,0-.44-2.25A2,2,0,0,0,67.78,114.2Z" transform="translate(0 -2.32)" fill="#f2f2f2"/><path d="M73.49,118.59a9.47,9.47,0,0,1,1-3.3,5.37,5.37,0,0,1,1.87-2.07,4.33,4.33,0,0,1,2.41-.64,3.58,3.58,0,0,1,3.05,1.53l.39-1.3H84l-1.93,11.38a5.66,5.66,0,0,1-1.8,3.56A5.08,5.08,0,0,1,76.59,129a5.24,5.24,0,0,1-2.26-.56,4.3,4.3,0,0,1-1.7-1.47l1.11-1.19a3.49,3.49,0,0,0,5.13.83,4,4,0,0,0,1.27-2.32l.21-1A4.4,4.4,0,0,1,77,124.64a3.41,3.41,0,0,1-1.89-.59,3.55,3.55,0,0,1-1.24-1.6,6.53,6.53,0,0,1-.48-2.34A11.89,11.89,0,0,1,73.49,118.59Zm1.88,1.1a4.09,4.09,0,0,0,.53,2.38,2,2,0,0,0,1.7.89,3.52,3.52,0,0,0,3-1.71l.91-5.33a2.44,2.44,0,0,0-2.33-1.65,3,3,0,0,0-2.59,1.29,6.71,6.71,0,0,0-1.2,3.59Z" transform="translate(0 -2.32)" fill="#f2f2f2"/><path d="M92.12,124.42a2.6,2.6,0,0,1-.08-.61l0-.61a4.77,4.77,0,0,1-3.39,1.44,3.47,3.47,0,0,1-2.5-1,2.94,2.94,0,0,1-.88-2.38,3.58,3.58,0,0,1,1.62-2.88,6.89,6.89,0,0,1,4-1h2l.13-.92a2.13,2.13,0,0,0-.4-1.65,2,2,0,0,0-1.53-.63,3,3,0,0,0-1.77.49,2.08,2.08,0,0,0-.94,1.35h-2a3.11,3.11,0,0,1,.79-1.81A4.62,4.62,0,0,1,89,113a5.79,5.79,0,0,1,2.27-.41,3.85,3.85,0,0,1,2.83,1.1,3.42,3.42,0,0,1,.85,2.81L94,122.24l-.05.83a4,4,0,0,0,.13,1.17l0,.18Zm-3.05-1.5a3.39,3.39,0,0,0,1.77-.45,4.48,4.48,0,0,0,1.43-1.29l.42-2.4H91.21a5.57,5.57,0,0,0-2.81.58A2.14,2.14,0,0,0,87.29,121a1.66,1.66,0,0,0,.38,1.36A1.81,1.81,0,0,0,89.07,122.92Z" transform="translate(0 -2.32)" fill="#f2f2f2"/><path d="M97.28,118.59a9,9,0,0,1,1-3.2,5.54,5.54,0,0,1,1.88-2.14,4.3,4.3,0,0,1,2.46-.68,3.63,3.63,0,0,1,3,1.42l1.12-6.07h1.94l-2.86,16.5H104l.2-1.25a4.29,4.29,0,0,1-3.39,1.46,3.21,3.21,0,0,1-2.57-1.26,5.49,5.49,0,0,1-1-3.27A10.4,10.4,0,0,1,97.28,118.59Zm1.87,1.11a4,4,0,0,0,.55,2.38,2,2,0,0,0,1.7.87,3.52,3.52,0,0,0,3-1.7l.92-5.36a2.41,2.41,0,0,0-2.34-1.63,3,3,0,0,0-2,.69,4.48,4.48,0,0,0-1.33,2A8.34,8.34,0,0,0,99.15,119.7Z" transform="translate(0 -2.32)" fill="#f2f2f2"/><path d="M115.32,112.58a4.19,4.19,0,0,1,2.5.79,4.52,4.52,0,0,1,1.54,2.13,6.61,6.61,0,0,1,.34,3l0,.24a7.82,7.82,0,0,1-1,3.07,5.93,5.93,0,0,1-2.08,2.13,5.09,5.09,0,0,1-2.8.72,4.2,4.2,0,0,1-2.5-.79,4.42,4.42,0,0,1-1.53-2.11,6.78,6.78,0,0,1-.34-2.93,7.92,7.92,0,0,1,1-3.24,6.06,6.06,0,0,1,2.1-2.23A5,5,0,0,1,115.32,112.58Zm-4,6.23a6.58,6.58,0,0,0,0,1.41,3.44,3.44,0,0,0,.76,2,2.27,2.27,0,0,0,1.73.78,3.09,3.09,0,0,0,1.78-.48A4,4,0,0,0,117,121a6.5,6.5,0,0,0,.72-2.29,10.34,10.34,0,0,0,0-1.67A3.58,3.58,0,0,0,117,115a2.32,2.32,0,0,0-1.74-.79,3.17,3.17,0,0,0-2.56,1.18,5.83,5.83,0,0,0-1.3,3.18Z" transform="translate(0 -2.32)" fill="#f2f2f2"/><path d="M128.34,121.27q.16-1.2-1.32-1.7l-2-.59q-2.56-.88-2.47-2.92a3.22,3.22,0,0,1,1.4-2.52,5,5,0,0,1,3.12-1,4.17,4.17,0,0,1,2.86,1,3.25,3.25,0,0,1,1.06,2.62H129a1.81,1.81,0,0,0-.55-1.42,2.17,2.17,0,0,0-1.51-.57,2.83,2.83,0,0,0-1.74.49,1.81,1.81,0,0,0-.78,1.27q-.14,1,1.24,1.47l1,.27a6.29,6.29,0,0,1,2.84,1.34,2.56,2.56,0,0,1,.77,2.05,3.26,3.26,0,0,1-.71,1.89,4,4,0,0,1-1.72,1.23,5.74,5.74,0,0,1-2.29.39,4.53,4.53,0,0,1-3.05-1.08,3.33,3.33,0,0,1-1.16-2.72h1.94a2.06,2.06,0,0,0,.62,1.57,2.38,2.38,0,0,0,1.71.59,3.35,3.35,0,0,0,1.84-.45A1.72,1.72,0,0,0,128.34,121.27Z" transform="translate(0 -2.32)" fill="#f2f2f2"/><path d="M145.42,118.59a9,9,0,0,1,1-3.2,5.55,5.55,0,0,1,1.88-2.14,4.3,4.3,0,0,1,2.46-.68,3.63,3.63,0,0,1,3,1.42l1.12-6.07h1.94l-2.86,16.5h-1.77l.2-1.25a4.28,4.28,0,0,1-3.39,1.46,3.21,3.21,0,0,1-2.57-1.26,5.49,5.49,0,0,1-1-3.27A10.4,10.4,0,0,1,145.42,118.59Zm1.87,1.11a4,4,0,0,0,.55,2.38,2,2,0,0,0,1.7.87,3.52,3.52,0,0,0,3-1.7l.92-5.36a2.41,2.41,0,0,0-2.34-1.63,3,3,0,0,0-2,.69,4.47,4.47,0,0,0-1.33,2A8.35,8.35,0,0,0,147.29,119.7Z" transform="translate(0 -2.32)" fill="#f2f2f2"/><path d="M162,124.64a4.19,4.19,0,0,1-3.39-1.6,5.51,5.51,0,0,1-1-4l.05-.46a7.74,7.74,0,0,1,1-3.16,6,6,0,0,1,2.06-2.15,4.8,4.8,0,0,1,2.62-.69,3.69,3.69,0,0,1,2.81,1.19,4.9,4.9,0,0,1,1.12,3.12,9.14,9.14,0,0,1,0,1.4l-.12.89h-7.59a3.93,3.93,0,0,0,.52,2.69,2.47,2.47,0,0,0,2.13,1.15,4.14,4.14,0,0,0,3.18-1.55l1.12.95a5.11,5.11,0,0,1-1.88,1.65A5.35,5.35,0,0,1,162,124.64Zm1.24-10.43a2.84,2.84,0,0,0-2.1.82,5.79,5.79,0,0,0-1.42,2.52h5.65l0-.17a3.18,3.18,0,0,0-.44-2.25A2,2,0,0,0,163.26,114.2Z" transform="translate(0 -2.32)" fill="#f2f2f2"/><path d="M181.58,118.59a9,9,0,0,1,1-3.2,5.54,5.54,0,0,1,1.88-2.14,4.3,4.3,0,0,1,2.46-.68,3.63,3.63,0,0,1,3,1.42l1.12-6.07h1.94l-2.86,16.5h-1.77l.2-1.25a4.28,4.28,0,0,1-3.39,1.46,3.21,3.21,0,0,1-2.57-1.26,5.49,5.49,0,0,1-1-3.27A10.4,10.4,0,0,1,181.58,118.59Zm1.87,1.11a4,4,0,0,0,.55,2.38,2,2,0,0,0,1.7.87,3.52,3.52,0,0,0,3-1.7l.92-5.36a2.41,2.41,0,0,0-2.34-1.63,3,3,0,0,0-2,.69,4.47,4.47,0,0,0-1.33,2A8.35,8.35,0,0,0,183.45,119.7Z" transform="translate(0 -2.32)" fill="#f2f2f2"/><path d="M198.19,124.64a4.19,4.19,0,0,1-3.39-1.6,5.51,5.51,0,0,1-1-4l.05-.46a7.74,7.74,0,0,1,1-3.16,6,6,0,0,1,2.06-2.15,4.8,4.8,0,0,1,2.62-.69,3.69,3.69,0,0,1,2.81,1.19,4.9,4.9,0,0,1,1.12,3.12,9.14,9.14,0,0,1,0,1.4l-.12.89H195.7a3.93,3.93,0,0,0,.52,2.69,2.47,2.47,0,0,0,2.13,1.15,4.14,4.14,0,0,0,3.18-1.55l1.12.95a5.11,5.11,0,0,1-1.88,1.65A5.35,5.35,0,0,1,198.19,124.64Zm1.24-10.43a2.84,2.84,0,0,0-2.1.82,5.79,5.79,0,0,0-1.42,2.52h5.65l0-.17a3.18,3.18,0,0,0-.44-2.25A2,2,0,0,0,199.42,114.2Z" transform="translate(0 -2.32)" fill="#f2f2f2"/><path d="M211.77,121.27q.16-1.2-1.32-1.7l-2-.59q-2.56-.88-2.47-2.92a3.22,3.22,0,0,1,1.4-2.52,5,5,0,0,1,3.12-1,4.16,4.16,0,0,1,2.86,1,3.25,3.25,0,0,1,1.06,2.62h-1.93a1.81,1.81,0,0,0-.55-1.42,2.17,2.17,0,0,0-1.51-.57,2.83,2.83,0,0,0-1.74.49,1.81,1.81,0,0,0-.78,1.27q-.14,1,1.24,1.47l1,.27a6.29,6.29,0,0,1,2.84,1.34,2.56,2.56,0,0,1,.77,2.05A3.26,3.26,0,0,1,213,123a4,4,0,0,1-1.72,1.23,5.74,5.74,0,0,1-2.29.39,4.53,4.53,0,0,1-3.05-1.08,3.34,3.34,0,0,1-1.16-2.72h1.94a2.06,2.06,0,0,0,.62,1.57A2.38,2.38,0,0,0,209,123a3.35,3.35,0,0,0,1.84-.45A1.71,1.71,0,0,0,211.77,121.27Z" transform="translate(0 -2.32)" fill="#f2f2f2"/><path d="M220.7,124.64a4.19,4.19,0,0,1-3.39-1.6,5.51,5.51,0,0,1-1-4l.05-.46a7.74,7.74,0,0,1,1-3.16,6,6,0,0,1,2.06-2.15,4.8,4.8,0,0,1,2.62-.69,3.69,3.69,0,0,1,2.81,1.19,4.9,4.9,0,0,1,1.12,3.12,9.14,9.14,0,0,1,0,1.4l-.12.89h-7.59a3.93,3.93,0,0,0,.52,2.69,2.47,2.47,0,0,0,2.13,1.15,4.14,4.14,0,0,0,3.18-1.55l1.12.95a5.11,5.11,0,0,1-1.88,1.65A5.35,5.35,0,0,1,220.7,124.64Zm1.24-10.43a2.84,2.84,0,0,0-2.1.82,5.79,5.79,0,0,0-1.42,2.52h5.65l0-.17a3.18,3.18,0,0,0-.44-2.25A2,2,0,0,0,221.94,114.2Z" transform="translate(0 -2.32)" fill="#f2f2f2"/><path d="M230.94,112.79l-.28,1.47a4.58,4.58,0,0,1,3.57-1.68,2.88,2.88,0,0,1,2.43,1.14,4.43,4.43,0,0,1,.58,3.08L236,124.42H234l1.28-7.64a4.06,4.06,0,0,0,0-1,1.61,1.61,0,0,0-1.77-1.53,3.66,3.66,0,0,0-3.07,1.87L229,124.42h-1.94l2-11.62Z" transform="translate(0 -2.32)" fill="#f2f2f2"/><path d="M243.19,121.7l4.19-8.91h2.05l-5.85,11.62h-1.48l-2.28-11.62h1.91Z" transform="translate(0 -2.32)" fill="#f2f2f2"/><path d="M255.7,112.58a4.19,4.19,0,0,1,2.5.79,4.53,4.53,0,0,1,1.54,2.13,6.62,6.62,0,0,1,.34,3l0,.24a7.81,7.81,0,0,1-1,3.07,5.93,5.93,0,0,1-2.08,2.13,5.09,5.09,0,0,1-2.8.72,4.2,4.2,0,0,1-2.5-.79,4.41,4.41,0,0,1-1.53-2.11,6.78,6.78,0,0,1-.34-2.93,7.93,7.93,0,0,1,1-3.24,6.05,6.05,0,0,1,2.1-2.23A5,5,0,0,1,255.7,112.58Zm-4,6.23a6.64,6.64,0,0,0,0,1.41,3.44,3.44,0,0,0,.76,2,2.27,2.27,0,0,0,1.73.78,3.09,3.09,0,0,0,1.78-.48A4,4,0,0,0,257.4,121a6.5,6.5,0,0,0,.72-2.29,10.23,10.23,0,0,0,0-1.67,3.58,3.58,0,0,0-.78-2.05,2.32,2.32,0,0,0-1.74-.79,3.17,3.17,0,0,0-2.56,1.18,5.84,5.84,0,0,0-1.3,3.18Z" transform="translate(0 -2.32)" fill="#f2f2f2"/><path d="M263.63,124.42H261.7l2.86-16.5h1.94Z" transform="translate(0 -2.32)" fill="#f2f2f2"/><path d="M271,121.7l4.19-8.91h2.05l-5.85,11.62h-1.48l-2.28-11.62h1.91Z" transform="translate(0 -2.32)" fill="#f2f2f2"/><path d="M282.14,124.64a4.19,4.19,0,0,1-3.39-1.6,5.51,5.51,0,0,1-1-4l.05-.46a7.74,7.74,0,0,1,1-3.16,6,6,0,0,1,2.06-2.15,4.8,4.8,0,0,1,2.62-.69,3.69,3.69,0,0,1,2.81,1.19,4.9,4.9,0,0,1,1.12,3.12,9.14,9.14,0,0,1,0,1.4l-.12.89h-7.59a3.93,3.93,0,0,0,.52,2.69A2.47,2.47,0,0,0,282.3,123a4.14,4.14,0,0,0,3.18-1.55l1.12.95a5.11,5.11,0,0,1-1.88,1.65A5.35,5.35,0,0,1,282.14,124.64Zm1.24-10.43a2.84,2.84,0,0,0-2.1.82,5.79,5.79,0,0,0-1.42,2.52h5.65l0-.17a3.18,3.18,0,0,0-.44-2.25A2,2,0,0,0,283.37,114.2Z" transform="translate(0 -2.32)" fill="#f2f2f2"/><path d="M295.75,114.57l-.91-.1a3.33,3.33,0,0,0-2.94,1.69l-1.43,8.26h-1.94l2-11.62h1.88l-.29,1.35a3.48,3.48,0,0,1,2.91-1.58,3.57,3.57,0,0,1,.92.16Z" transform="translate(0 -2.32)" fill="#f2f2f2"/><path d="M8,147.67q.16-1.2-1.32-1.7l-2-.59q-2.56-.88-2.47-2.92a3.22,3.22,0,0,1,1.4-2.52,5,5,0,0,1,3.12-1,4.16,4.16,0,0,1,2.86,1,3.25,3.25,0,0,1,1.06,2.62H8.67a1.81,1.81,0,0,0-.55-1.42,2.17,2.17,0,0,0-1.51-.57,2.83,2.83,0,0,0-1.74.49,1.81,1.81,0,0,0-.78,1.27q-.14,1,1.24,1.47l1,.27a6.29,6.29,0,0,1,2.84,1.34,2.56,2.56,0,0,1,.77,2.05,3.26,3.26,0,0,1-.71,1.89,4,4,0,0,1-1.72,1.23,5.74,5.74,0,0,1-2.29.39A4.53,4.53,0,0,1,2.14,150,3.33,3.33,0,0,1,1,147.23H2.92a2.06,2.06,0,0,0,.62,1.57,2.38,2.38,0,0,0,1.71.59A3.35,3.35,0,0,0,7.09,149,1.72,1.72,0,0,0,8,147.67Z" transform="translate(0 -2.32)" fill="#f2f2f2"/><path d="M16.91,151a4.19,4.19,0,0,1-3.39-1.6,5.51,5.51,0,0,1-1-4l.05-.46a7.73,7.73,0,0,1,1-3.16,6,6,0,0,1,2.06-2.15,4.8,4.8,0,0,1,2.62-.69,3.7,3.7,0,0,1,2.81,1.19,4.91,4.91,0,0,1,1.12,3.12,9.14,9.14,0,0,1,0,1.4l-.12.89H14.42a3.92,3.92,0,0,0,.52,2.69,2.47,2.47,0,0,0,2.13,1.15,4.14,4.14,0,0,0,3.18-1.55l1.12.95a5.12,5.12,0,0,1-1.89,1.65A5.35,5.35,0,0,1,16.91,151Zm1.24-10.43a2.84,2.84,0,0,0-2.1.82,5.8,5.8,0,0,0-1.42,2.52h5.65l0-.17a3.18,3.18,0,0,0-.44-2.25A2,2,0,0,0,18.15,140.6Z" transform="translate(0 -2.32)" fill="#f2f2f2"/><path d="M30.67,149.67A4.49,4.49,0,0,1,27.2,151a2.89,2.89,0,0,1-2.47-1.19,4.56,4.56,0,0,1-.6-3.14l1.25-7.51h1.94l-1.26,7.54a5,5,0,0,0,0,.92,1.92,1.92,0,0,0,.46,1.21,1.57,1.57,0,0,0,1.14.47,3.49,3.49,0,0,0,3.22-1.69l1.46-8.46h1.94l-2,11.62H30.42Z" transform="translate(0 -2.32)" fill="#f2f2f2"/><path d="M42.36,147.67q.16-1.2-1.32-1.7l-2-.59q-2.56-.88-2.47-2.92a3.22,3.22,0,0,1,1.4-2.52,5,5,0,0,1,3.12-1,4.16,4.16,0,0,1,2.86,1A3.25,3.25,0,0,1,45,142.62H43.06a1.81,1.81,0,0,0-.55-1.42,2.17,2.17,0,0,0-1.51-.57,2.83,2.83,0,0,0-1.74.49,1.81,1.81,0,0,0-.78,1.27q-.14,1,1.24,1.47l1,.27a6.29,6.29,0,0,1,2.84,1.34,2.56,2.56,0,0,1,.77,2.05,3.26,3.26,0,0,1-.71,1.89,4,4,0,0,1-1.72,1.23,5.74,5.74,0,0,1-2.29.39A4.53,4.53,0,0,1,36.53,150a3.33,3.33,0,0,1-1.16-2.72h1.94a2.06,2.06,0,0,0,.62,1.57,2.38,2.38,0,0,0,1.71.59,3.35,3.35,0,0,0,1.84-.45A1.72,1.72,0,0,0,42.36,147.67Z" transform="translate(0 -2.32)" fill="#f2f2f2"/><path d="M65.17,145.06a9.23,9.23,0,0,1-1,3.19,5.44,5.44,0,0,1-1.84,2.12A4.21,4.21,0,0,1,60,151a3.87,3.87,0,0,1-3.09-1.36l-1,5.61H53.87l2.79-16.09h1.76l-.21,1.3a4.41,4.41,0,0,1,3.45-1.5,3.24,3.24,0,0,1,2.61,1.24,5.44,5.44,0,0,1,1,3.29,11.64,11.64,0,0,1-.05,1.33Zm-1.91-.22.05-.9a4.08,4.08,0,0,0-.6-2.4,2.1,2.1,0,0,0-1.72-.87,3.45,3.45,0,0,0-2.91,1.6l-1,5.57a2.43,2.43,0,0,0,2.35,1.59,3.06,3.06,0,0,0,2.47-1.13A6.57,6.57,0,0,0,63.26,144.84Z" transform="translate(0 -2.32)" fill="#f2f2f2"/><path d="M74,141l-.91-.1a3.33,3.33,0,0,0-2.94,1.69l-1.43,8.26H66.73l2-11.62h1.88l-.29,1.35A3.48,3.48,0,0,1,73.25,139a3.57,3.57,0,0,1,.92.16Z" transform="translate(0 -2.32)" fill="#f2f2f2"/><path d="M80.3,139a4.19,4.19,0,0,1,2.5.79,4.52,4.52,0,0,1,1.54,2.13,6.6,6.6,0,0,1,.34,3l0,.24a7.83,7.83,0,0,1-1,3.07,5.94,5.94,0,0,1-2.08,2.13,5.08,5.08,0,0,1-2.8.72,4.2,4.2,0,0,1-2.5-.79,4.42,4.42,0,0,1-1.53-2.11,6.78,6.78,0,0,1-.34-2.93,7.92,7.92,0,0,1,1-3.24,6.06,6.06,0,0,1,2.1-2.23A5,5,0,0,1,80.3,139Zm-4,6.23a6.58,6.58,0,0,0,0,1.41,3.44,3.44,0,0,0,.76,2,2.27,2.27,0,0,0,1.73.78,3.09,3.09,0,0,0,1.78-.48A4,4,0,0,0,82,147.4a6.5,6.5,0,0,0,.72-2.29,10.34,10.34,0,0,0,0-1.67A3.58,3.58,0,0,0,82,141.4a2.33,2.33,0,0,0-1.74-.79,3.17,3.17,0,0,0-2.56,1.18,5.83,5.83,0,0,0-1.3,3.18Z" transform="translate(0 -2.32)" fill="#f2f2f2"/><path d="M91.26,136.38l-.49,2.81h2.12l-.27,1.54H90.5L89.29,148a2.5,2.5,0,0,0,0,.52.82.82,0,0,0,.91.84,5.6,5.6,0,0,0,.95-.11L91,150.83a5.29,5.29,0,0,1-1.42.19,2,2,0,0,1-1.74-.85,3.3,3.3,0,0,1-.45-2.24l1.18-7.2H86.51l.27-1.54h2.05l.49-2.81Z" transform="translate(0 -2.32)" fill="#f2f2f2"/><path d="M99.44,139a4.19,4.19,0,0,1,2.5.79,4.52,4.52,0,0,1,1.54,2.13,6.6,6.6,0,0,1,.34,3l0,.24a7.83,7.83,0,0,1-1,3.07,5.94,5.94,0,0,1-2.08,2.13,5.08,5.08,0,0,1-2.8.72,4.2,4.2,0,0,1-2.5-.79,4.42,4.42,0,0,1-1.53-2.11,6.78,6.78,0,0,1-.34-2.93,7.92,7.92,0,0,1,1-3.24,6.06,6.06,0,0,1,2.1-2.23A5,5,0,0,1,99.44,139Zm-4,6.23a6.58,6.58,0,0,0,0,1.41,3.44,3.44,0,0,0,.76,2,2.27,2.27,0,0,0,1.73.78,3.09,3.09,0,0,0,1.78-.48,4,4,0,0,0,1.38-1.54,6.5,6.5,0,0,0,.72-2.29,10.34,10.34,0,0,0,0-1.67,3.58,3.58,0,0,0-.78-2.05,2.33,2.33,0,0,0-1.74-.79,3.17,3.17,0,0,0-2.56,1.18,5.83,5.83,0,0,0-1.3,3.18Zm5.61-10.89h2.48l-3.29,3.16H98.58Z" transform="translate(0 -2.32)" fill="#f2f2f2"/><path d="M110.4,136.38l-.49,2.81H112l-.27,1.54h-2.11L108.43,148a2.5,2.5,0,0,0,0,.52.82.82,0,0,0,.91.84,5.6,5.6,0,0,0,.95-.11l-.15,1.62a5.29,5.29,0,0,1-1.42.19,2,2,0,0,1-1.74-.85,3.3,3.3,0,0,1-.45-2.24l1.18-7.2h-2.05l.27-1.54H108l.49-2.81Z" transform="translate(0 -2.32)" fill="#f2f2f2"/><path d="M114.45,150.82h-1.93l2-11.62h1.93ZM116,135a1.07,1.07,0,0,1,.82.3,1.1,1.1,0,0,1,.33.83,1.15,1.15,0,0,1-1.15,1.17,1.07,1.07,0,0,1-.83-.29,1,1,0,0,1-.31-.82,1.22,1.22,0,0,1,.32-.84A1.14,1.14,0,0,1,116,135Z" transform="translate(0 -2.32)" fill="#f2f2f2"/><path d="M128.15,145.06a9.23,9.23,0,0,1-1,3.19,5.44,5.44,0,0,1-1.84,2.12,4.21,4.21,0,0,1-2.43.67,3.87,3.87,0,0,1-3.09-1.36l-1,5.61h-1.94l2.79-16.09h1.76l-.21,1.3a4.41,4.41,0,0,1,3.45-1.5,3.24,3.24,0,0,1,2.61,1.24,5.44,5.44,0,0,1,1,3.29,11.64,11.64,0,0,1-.05,1.33Zm-1.91-.22.05-.9a4.08,4.08,0,0,0-.6-2.4,2.1,2.1,0,0,0-1.72-.87,3.45,3.45,0,0,0-2.91,1.6l-1,5.57a2.43,2.43,0,0,0,2.35,1.59,3.06,3.06,0,0,0,2.47-1.13A6.57,6.57,0,0,0,126.24,144.84Z" transform="translate(0 -2.32)" fill="#f2f2f2"/><path d="M136.17,139a4.19,4.19,0,0,1,2.5.79,4.52,4.52,0,0,1,1.54,2.13,6.6,6.6,0,0,1,.34,3l0,.24a7.83,7.83,0,0,1-1,3.07,5.94,5.94,0,0,1-2.08,2.13,5.08,5.08,0,0,1-2.8.72,4.2,4.2,0,0,1-2.5-.79,4.42,4.42,0,0,1-1.53-2.11,6.78,6.78,0,0,1-.34-2.93,7.92,7.92,0,0,1,1-3.24,6.06,6.06,0,0,1,2.1-2.23A5,5,0,0,1,136.17,139Zm-4,6.23a6.58,6.58,0,0,0,0,1.41,3.44,3.44,0,0,0,.76,2,2.27,2.27,0,0,0,1.73.78,3.09,3.09,0,0,0,1.78-.48,4,4,0,0,0,1.38-1.54,6.5,6.5,0,0,0,.72-2.29,10.34,10.34,0,0,0,0-1.67,3.58,3.58,0,0,0-.78-2.05,2.33,2.33,0,0,0-1.74-.79,3.17,3.17,0,0,0-2.56,1.18,5.83,5.83,0,0,0-1.3,3.18Z" transform="translate(0 -2.32)" fill="#f2f2f2"/><path d="M149.19,147.67q.16-1.2-1.32-1.7l-2-.59q-2.55-.88-2.47-2.92a3.22,3.22,0,0,1,1.4-2.52,5,5,0,0,1,3.12-1,4.16,4.16,0,0,1,2.86,1,3.25,3.25,0,0,1,1.06,2.62h-1.93a1.81,1.81,0,0,0-.55-1.42,2.17,2.17,0,0,0-1.52-.57,2.84,2.84,0,0,0-1.74.49,1.8,1.8,0,0,0-.78,1.27q-.14,1,1.23,1.47l1,.27a6.29,6.29,0,0,1,2.84,1.34,2.56,2.56,0,0,1,.77,2.05,3.26,3.26,0,0,1-.71,1.89,4.06,4.06,0,0,1-1.72,1.23,5.74,5.74,0,0,1-2.29.39,4.54,4.54,0,0,1-3.05-1.08,3.34,3.34,0,0,1-1.16-2.72h1.95a2.06,2.06,0,0,0,.62,1.57,2.38,2.38,0,0,0,1.71.59,3.36,3.36,0,0,0,1.84-.45A1.72,1.72,0,0,0,149.19,147.67Z" transform="translate(0 -2.32)" fill="#f2f2f2"/><path d="M154.53,148.56a1.17,1.17,0,0,1,.87.32,1.11,1.11,0,0,1,.33.86,1.16,1.16,0,0,1-.35.85,1.28,1.28,0,0,1-.86.35,1.08,1.08,0,0,1-1.18-1.14,1.22,1.22,0,0,1,.33-.87A1.21,1.21,0,0,1,154.53,148.56Z" transform="translate(0 -2.32)" fill="#f2f2f2"/><path d="M173.24,151a5,5,0,0,1-2.59-.72,4.67,4.67,0,0,1-1.73-2,7.63,7.63,0,0,1-.7-3,14.26,14.26,0,0,1,.29-3.21,11,11,0,0,1,1.22-3.45,7.78,7.78,0,0,1,2.12-2.46,6.1,6.1,0,0,1,3.85-1.2,4.63,4.63,0,0,1,3.61,1.58,6.59,6.59,0,0,1,1.42,4.17,15.32,15.32,0,0,1-.23,2.87,11.85,11.85,0,0,1-1,3.23,8.08,8.08,0,0,1-1.79,2.5A6.15,6.15,0,0,1,173.24,151Zm5.49-9.82a5.42,5.42,0,0,0-.74-3.28,2.82,2.82,0,0,0-2.4-1.21,4.07,4.07,0,0,0-2.57.77,5.87,5.87,0,0,0-1.86,2.44,12.62,12.62,0,0,0-.92,4.12l0,.7a5.47,5.47,0,0,0,.75,3.3,2.8,2.8,0,0,0,2.37,1.24,4.13,4.13,0,0,0,3.37-1.47,8.32,8.32,0,0,0,1.78-4.27A19.17,19.17,0,0,0,178.73,141.22Z" transform="translate(0 -2.32)" fill="#f2f2f2"/><path d="M192.46,150.82h-1.93l2-11.62h1.93Zm1.6-15.87a1.07,1.07,0,0,1,.82.3,1.11,1.11,0,0,1,.33.83,1.15,1.15,0,0,1-1.15,1.17,1.07,1.07,0,0,1-.83-.29,1.05,1.05,0,0,1-.31-.82,1.22,1.22,0,0,1,.32-.84A1.14,1.14,0,0,1,194.06,135Z" transform="translate(0 -2.32)" fill="#f2f2f2"/><path d="M199.48,139.19l-.25,1.3a4.55,4.55,0,0,1,3.53-1.5,3.59,3.59,0,0,1,1.88.5,2.48,2.48,0,0,1,1.06,1.36,4.8,4.8,0,0,1,3.86-1.87,3.08,3.08,0,0,1,2.57,1.17,4.18,4.18,0,0,1,.61,3l-1.28,7.64h-1.93l1.27-7.66a4,4,0,0,0,0-1q-.2-1.46-1.91-1.49a2.94,2.94,0,0,0-1.93.66,3.06,3.06,0,0,0-1.11,1.79l-1.32,7.72h-2l1.29-7.65a2.45,2.45,0,0,0-.36-1.84,1.89,1.89,0,0,0-1.55-.67,3.18,3.18,0,0,0-2.89,1.65l-1.47,8.5h-1.94l2-11.62Z" transform="translate(0 -2.32)" fill="#f2f2f2"/><path d="M225,145.06a9.23,9.23,0,0,1-1,3.19,5.44,5.44,0,0,1-1.84,2.12,4.21,4.21,0,0,1-2.43.67,3.87,3.87,0,0,1-3.09-1.36l-1,5.61h-1.94l2.79-16.09h1.76l-.21,1.3a4.41,4.41,0,0,1,3.45-1.5,3.24,3.24,0,0,1,2.61,1.24,5.44,5.44,0,0,1,1,3.29,11.64,11.64,0,0,1-.05,1.33Zm-1.91-.22.05-.9a4.09,4.09,0,0,0-.6-2.4,2.1,2.1,0,0,0-1.72-.87,3.45,3.45,0,0,0-2.91,1.6l-1,5.57a2.43,2.43,0,0,0,2.35,1.59,3.06,3.06,0,0,0,2.47-1.13A6.58,6.58,0,0,0,223.07,144.84Z" transform="translate(0 -2.32)" fill="#f2f2f2"/><path d="M233,139a4.19,4.19,0,0,1,2.5.79,4.53,4.53,0,0,1,1.54,2.13,6.62,6.62,0,0,1,.34,3l0,.24a7.82,7.82,0,0,1-1,3.07,5.93,5.93,0,0,1-2.08,2.13,5.08,5.08,0,0,1-2.8.72,4.2,4.2,0,0,1-2.5-.79,4.41,4.41,0,0,1-1.53-2.11,6.78,6.78,0,0,1-.34-2.93,7.93,7.93,0,0,1,1-3.24,6.06,6.06,0,0,1,2.1-2.23A5,5,0,0,1,233,139Zm-4,6.23a6.64,6.64,0,0,0,0,1.41,3.44,3.44,0,0,0,.76,2,2.27,2.27,0,0,0,1.73.78,3.09,3.09,0,0,0,1.78-.48,4,4,0,0,0,1.38-1.54,6.5,6.5,0,0,0,.72-2.29,10.23,10.23,0,0,0,0-1.67,3.58,3.58,0,0,0-.78-2.05,2.33,2.33,0,0,0-1.74-.79,3.17,3.17,0,0,0-2.56,1.18,5.84,5.84,0,0,0-1.3,3.18Z" transform="translate(0 -2.32)" fill="#f2f2f2"/><path d="M246,141l-.91-.1a3.33,3.33,0,0,0-2.94,1.69l-1.43,8.26h-1.94l2-11.62h1.88l-.29,1.35a3.48,3.48,0,0,1,2.91-1.58,3.57,3.57,0,0,1,.92.16Z" transform="translate(0 -2.32)" fill="#f2f2f2"/><path d="M251.81,136.38l-.49,2.81h2.12l-.27,1.54h-2.11L249.85,148a2.5,2.5,0,0,0,0,.52.82.82,0,0,0,.91.84,5.6,5.6,0,0,0,.95-.11l-.15,1.62a5.29,5.29,0,0,1-1.42.19,2,2,0,0,1-1.74-.85,3.3,3.3,0,0,1-.45-2.24l1.18-7.2h-2.05l.27-1.54h2.05l.49-2.81Z" transform="translate(0 -2.32)" fill="#f2f2f2"/><path d="M260.87,150.82a2.62,2.62,0,0,1-.08-.61l0-.61a4.77,4.77,0,0,1-3.39,1.44,3.47,3.47,0,0,1-2.5-1,2.94,2.94,0,0,1-.88-2.38,3.58,3.58,0,0,1,1.62-2.88,6.89,6.89,0,0,1,4-1h2l.13-.92a2.13,2.13,0,0,0-.4-1.65,2,2,0,0,0-1.53-.63,3,3,0,0,0-1.77.49,2.08,2.08,0,0,0-.94,1.35h-2a3.11,3.11,0,0,1,.79-1.81,4.63,4.63,0,0,1,1.79-1.22,5.81,5.81,0,0,1,2.27-.41,3.86,3.86,0,0,1,2.83,1.1,3.41,3.41,0,0,1,.85,2.81l-.95,5.76-.05.83a4,4,0,0,0,.13,1.17l0,.18Zm-3.05-1.5a3.39,3.39,0,0,0,1.77-.45,4.48,4.48,0,0,0,1.43-1.29l.42-2.4H260a5.57,5.57,0,0,0-2.81.58,2.14,2.14,0,0,0-1.11,1.64,1.66,1.66,0,0,0,.38,1.36A1.82,1.82,0,0,0,257.82,149.32Z" transform="translate(0 -2.32)" fill="#f2f2f2"/><path d="M269.33,139.19l-.28,1.47a4.58,4.58,0,0,1,3.57-1.68,2.88,2.88,0,0,1,2.43,1.14,4.43,4.43,0,0,1,.58,3.08l-1.27,7.62h-1.94l1.28-7.64a4,4,0,0,0,0-1,1.61,1.61,0,0,0-1.77-1.54,3.66,3.66,0,0,0-3.07,1.87l-1.44,8.28h-1.94l2-11.62Z" transform="translate(0 -2.32)" fill="#f2f2f2"/><path d="M282.49,136.38,282,139.2h2.12l-.27,1.54h-2.11L280.53,148a2.5,2.5,0,0,0,0,.52.82.82,0,0,0,.91.84,5.6,5.6,0,0,0,.95-.11l-.15,1.62a5.29,5.29,0,0,1-1.42.19,2,2,0,0,1-1.74-.85,3.3,3.3,0,0,1-.45-2.24l1.18-7.2h-2.05l.27-1.54h2.05l.49-2.81Z" transform="translate(0 -2.32)" fill="#f2f2f2"/><path d="M289.47,151a4.19,4.19,0,0,1-3.39-1.6,5.51,5.51,0,0,1-1-4l.05-.46a7.75,7.75,0,0,1,1-3.16,6,6,0,0,1,2.06-2.15,4.8,4.8,0,0,1,2.62-.69,3.7,3.7,0,0,1,2.81,1.19,4.9,4.9,0,0,1,1.12,3.12,9.14,9.14,0,0,1,0,1.4l-.12.89H287a3.93,3.93,0,0,0,.52,2.69,2.47,2.47,0,0,0,2.13,1.15,4.14,4.14,0,0,0,3.18-1.55l1.12.95a5.12,5.12,0,0,1-1.88,1.65A5.35,5.35,0,0,1,289.47,151Zm1.24-10.43a2.84,2.84,0,0,0-2.1.82,5.8,5.8,0,0,0-1.42,2.52h5.65l0-.17a3.18,3.18,0,0,0-.44-2.25A2,2,0,0,0,290.7,140.6Z" transform="translate(0 -2.32)" fill="#f2f2f2"/><path d="M5.8,177.44a4.19,4.19,0,0,1-3.39-1.6,5.51,5.51,0,0,1-1-4l.05-.46a7.72,7.72,0,0,1,1-3.16,6,6,0,0,1,2.06-2.15,4.79,4.79,0,0,1,2.62-.69A3.69,3.69,0,0,1,10,166.57a4.91,4.91,0,0,1,1.12,3.12,9.14,9.14,0,0,1,0,1.4l-.12.89H3.31a3.92,3.92,0,0,0,.52,2.69A2.47,2.47,0,0,0,6,175.81a4.14,4.14,0,0,0,3.18-1.55l1.12.95a5.12,5.12,0,0,1-1.89,1.65A5.35,5.35,0,0,1,5.8,177.44ZM7,167a2.84,2.84,0,0,0-2.1.82,5.8,5.8,0,0,0-1.42,2.52H9.17l0-.17a3.19,3.19,0,0,0-.44-2.25A2,2,0,0,0,7,167Zm1.75-6.28h2.48L8,163.88H6.28Z" transform="translate(0 -2.32)" fill="#f2f2f2"/><path d="M36.6,174.07q.16-1.2-1.32-1.7l-2-.59q-2.56-.88-2.47-2.92a3.22,3.22,0,0,1,1.4-2.52,5,5,0,0,1,3.12-1,4.17,4.17,0,0,1,2.86,1A3.25,3.25,0,0,1,39.23,169H37.3a1.81,1.81,0,0,0-.55-1.42,2.17,2.17,0,0,0-1.51-.57,2.83,2.83,0,0,0-1.74.49,1.81,1.81,0,0,0-.78,1.27q-.14,1,1.24,1.47l1,.27a6.29,6.29,0,0,1,2.84,1.34,2.56,2.56,0,0,1,.77,2.05,3.26,3.26,0,0,1-.71,1.89A4,4,0,0,1,36.11,177a5.74,5.74,0,0,1-2.29.39,4.53,4.53,0,0,1-3.05-1.08,3.33,3.33,0,0,1-1.16-2.72h1.94a2.06,2.06,0,0,0,.62,1.57,2.38,2.38,0,0,0,1.71.59,3.35,3.35,0,0,0,1.84-.45A1.72,1.72,0,0,0,36.6,174.07Z" transform="translate(0 -2.32)" fill="#f2f2f2"/><path d="M47,165.38a4.19,4.19,0,0,1,2.5.79A4.52,4.52,0,0,1,51,168.31a6.6,6.6,0,0,1,.34,3l0,.24a7.83,7.83,0,0,1-1,3.07,5.94,5.94,0,0,1-2.08,2.13,5.08,5.08,0,0,1-2.8.72,4.2,4.2,0,0,1-2.5-.79,4.42,4.42,0,0,1-1.53-2.11,6.78,6.78,0,0,1-.34-2.93,7.92,7.92,0,0,1,1-3.24,6.07,6.07,0,0,1,2.1-2.23A5,5,0,0,1,47,165.38Zm-4,6.23A6.58,6.58,0,0,0,43,173a3.44,3.44,0,0,0,.76,2,2.27,2.27,0,0,0,1.73.78,3.09,3.09,0,0,0,1.78-.48,4,4,0,0,0,1.38-1.54,6.5,6.5,0,0,0,.72-2.29,10.34,10.34,0,0,0,0-1.67,3.58,3.58,0,0,0-.78-2.05,2.32,2.32,0,0,0-1.74-.79,3.17,3.17,0,0,0-2.56,1.18,5.83,5.83,0,0,0-1.3,3.18Z" transform="translate(0 -2.32)" fill="#f2f2f2"/><path d="M54.9,177.22H53l2.86-16.5h1.94Z" transform="translate(0 -2.32)" fill="#f2f2f2"/><path d="M65.46,176.07A4.49,4.49,0,0,1,62,177.44a2.89,2.89,0,0,1-2.47-1.19,4.56,4.56,0,0,1-.6-3.14l1.25-7.51h1.94l-1.26,7.54a5,5,0,0,0,0,.92,1.92,1.92,0,0,0,.46,1.21,1.57,1.57,0,0,0,1.14.47,3.49,3.49,0,0,0,3.22-1.69l1.46-8.46h1.94l-2,11.62H65.21Z" transform="translate(0 -2.32)" fill="#f2f2f2"/><path d="M74.86,175.82a2.94,2.94,0,0,0,1.88-.61,2.88,2.88,0,0,0,1.1-1.65h1.84a4.15,4.15,0,0,1-.88,2,5.06,5.06,0,0,1-4,1.88,4.15,4.15,0,0,1-2.45-.76,4.23,4.23,0,0,1-1.48-2.05,6.83,6.83,0,0,1-.32-3l.05-.54a7.7,7.7,0,0,1,1-3,5.65,5.65,0,0,1,2-2.06,5,5,0,0,1,2.75-.69,3.93,3.93,0,0,1,2.92,1.22,4.24,4.24,0,0,1,1.1,3H78.52a2.79,2.79,0,0,0-.63-1.84,2.21,2.21,0,0,0-1.65-.75,3.1,3.1,0,0,0-2.52,1.13,5.9,5.9,0,0,0-1.25,3.24l0,.28a9.29,9.29,0,0,0,0,1.42,3.24,3.24,0,0,0,.71,2A2.28,2.28,0,0,0,74.86,175.82Z" transform="translate(0 -2.32)" fill="#f2f2f2"/><path d="M83.33,177.22H81.4l2-11.62h1.93Zm1.6-15.87a1.06,1.06,0,0,1,.82.3,1.1,1.1,0,0,1,.33.83,1.15,1.15,0,0,1-1.15,1.17,1.07,1.07,0,0,1-.83-.29,1.05,1.05,0,0,1-.31-.82,1.21,1.21,0,0,1,.32-.84A1.14,1.14,0,0,1,84.93,161.35Z" transform="translate(0 -2.32)" fill="#f2f2f2"/><path d="M93,165.38a4.19,4.19,0,0,1,2.5.79A4.52,4.52,0,0,1,97,168.31a6.6,6.6,0,0,1,.34,3l0,.24a7.83,7.83,0,0,1-1,3.07,5.94,5.94,0,0,1-2.08,2.13,5.08,5.08,0,0,1-2.8.72,4.2,4.2,0,0,1-2.5-.79,4.42,4.42,0,0,1-1.53-2.11,6.78,6.78,0,0,1-.34-2.93,7.92,7.92,0,0,1,1-3.24,6.07,6.07,0,0,1,2.1-2.23A5,5,0,0,1,93,165.38Zm-4,6.23A6.58,6.58,0,0,0,89,173a3.44,3.44,0,0,0,.76,2,2.27,2.27,0,0,0,1.73.78,3.09,3.09,0,0,0,1.78-.48,4,4,0,0,0,1.38-1.54,6.5,6.5,0,0,0,.72-2.29,10.34,10.34,0,0,0,0-1.67,3.58,3.58,0,0,0-.78-2.05,2.32,2.32,0,0,0-1.74-.79,3.17,3.17,0,0,0-2.56,1.18,5.83,5.83,0,0,0-1.3,3.18Z" transform="translate(0 -2.32)" fill="#f2f2f2"/><path d="M102.65,165.59l-.28,1.47a4.58,4.58,0,0,1,3.57-1.68,2.88,2.88,0,0,1,2.43,1.14,4.43,4.43,0,0,1,.58,3.08l-1.27,7.62h-1.94l1.28-7.64a4.08,4.08,0,0,0,0-1,1.61,1.61,0,0,0-1.77-1.53,3.66,3.66,0,0,0-3.07,1.87l-1.44,8.28H98.79l2-11.62Z" transform="translate(0 -2.32)" fill="#f2f2f2"/><path d="M117.78,177.22a2.6,2.6,0,0,1-.08-.61l0-.61a4.77,4.77,0,0,1-3.39,1.44,3.47,3.47,0,0,1-2.5-1,2.94,2.94,0,0,1-.88-2.38,3.58,3.58,0,0,1,1.62-2.88,6.89,6.89,0,0,1,4-1h2l.13-.92a2.13,2.13,0,0,0-.4-1.65,1.94,1.94,0,0,0-1.53-.63,3,3,0,0,0-1.77.49,2.08,2.08,0,0,0-.94,1.35h-2a3.12,3.12,0,0,1,.79-1.81,4.64,4.64,0,0,1,1.79-1.22,5.81,5.81,0,0,1,2.27-.41,3.85,3.85,0,0,1,2.83,1.1,3.42,3.42,0,0,1,.85,2.81L119.7,175l-.05.83a4,4,0,0,0,.13,1.17l0,.18Zm-3.05-1.5a3.4,3.4,0,0,0,1.77-.45,4.49,4.49,0,0,0,1.43-1.29l.42-2.4h-1.47a5.57,5.57,0,0,0-2.81.58,2.14,2.14,0,0,0-1.11,1.64,1.66,1.66,0,0,0,.38,1.36A1.81,1.81,0,0,0,114.73,175.72Z" transform="translate(0 -2.32)" fill="#f2f2f2"/><path d="M129.62,167.37l-.91-.1a3.33,3.33,0,0,0-2.94,1.69l-1.43,8.26h-1.94l2-11.62h1.88l-.29,1.35a3.48,3.48,0,0,1,2.91-1.58,3.57,3.57,0,0,1,.92.16Z" transform="translate(0 -2.32)" fill="#f2f2f2"/><path d="M153.39,165.38a4.19,4.19,0,0,1,2.5.79,4.53,4.53,0,0,1,1.54,2.13,6.61,6.61,0,0,1,.34,3l0,.24a7.82,7.82,0,0,1-1,3.07,5.93,5.93,0,0,1-2.08,2.13,5.08,5.08,0,0,1-2.8.72,4.2,4.2,0,0,1-2.5-.79,4.41,4.41,0,0,1-1.53-2.11,6.78,6.78,0,0,1-.34-2.93,7.93,7.93,0,0,1,1-3.24,6.06,6.06,0,0,1,2.1-2.23A5,5,0,0,1,153.39,165.38Zm-4,6.23a6.64,6.64,0,0,0,0,1.41,3.44,3.44,0,0,0,.76,2,2.27,2.27,0,0,0,1.73.78,3.09,3.09,0,0,0,1.78-.48,4,4,0,0,0,1.38-1.54,6.5,6.5,0,0,0,.72-2.29,10.23,10.23,0,0,0,0-1.67,3.58,3.58,0,0,0-.78-2.05,2.32,2.32,0,0,0-1.74-.79,3.17,3.17,0,0,0-2.56,1.18,5.84,5.84,0,0,0-1.3,3.18Z" transform="translate(0 -2.32)" fill="#f2f2f2"/><path d="M187,171.46a9.23,9.23,0,0,1-1,3.19,5.44,5.44,0,0,1-1.84,2.12,4.21,4.21,0,0,1-2.43.67,3.87,3.87,0,0,1-3.09-1.36l-1,5.61h-1.94l2.79-16.09h1.76l-.21,1.3a4.41,4.41,0,0,1,3.45-1.5,3.24,3.24,0,0,1,2.61,1.24,5.44,5.44,0,0,1,1,3.29,11.64,11.64,0,0,1-.05,1.33Zm-1.91-.22.05-.9a4.09,4.09,0,0,0-.6-2.4,2.1,2.1,0,0,0-1.72-.87,3.45,3.45,0,0,0-2.91,1.6l-1,5.57a2.43,2.43,0,0,0,2.35,1.59,3.06,3.06,0,0,0,2.47-1.13A6.58,6.58,0,0,0,185.05,171.24Z" transform="translate(0 -2.32)" fill="#f2f2f2"/><path d="M195.75,167.37l-.91-.1a3.33,3.33,0,0,0-2.94,1.69l-1.43,8.26h-1.94l2-11.62h1.88l-.29,1.35a3.48,3.48,0,0,1,2.91-1.58,3.57,3.57,0,0,1,.92.16Z" transform="translate(0 -2.32)" fill="#f2f2f2"/><path d="M202.09,165.38a4.19,4.19,0,0,1,2.5.79,4.53,4.53,0,0,1,1.54,2.13,6.61,6.61,0,0,1,.34,3l0,.24a7.82,7.82,0,0,1-1,3.07,5.93,5.93,0,0,1-2.08,2.13,5.08,5.08,0,0,1-2.8.72,4.2,4.2,0,0,1-2.5-.79,4.41,4.41,0,0,1-1.53-2.11,6.78,6.78,0,0,1-.34-2.93,7.93,7.93,0,0,1,1-3.24,6.06,6.06,0,0,1,2.1-2.23A5,5,0,0,1,202.09,165.38Zm-4,6.23a6.64,6.64,0,0,0,0,1.41,3.44,3.44,0,0,0,.76,2,2.27,2.27,0,0,0,1.73.78,3.09,3.09,0,0,0,1.78-.48,4,4,0,0,0,1.38-1.54,6.5,6.5,0,0,0,.72-2.29,10.23,10.23,0,0,0,0-1.67,3.58,3.58,0,0,0-.78-2.05A2.32,2.32,0,0,0,202,167a3.17,3.17,0,0,0-2.56,1.18,5.84,5.84,0,0,0-1.3,3.18Z" transform="translate(0 -2.32)" fill="#f2f2f2"/><path d="M218.46,171.46a9.06,9.06,0,0,1-1,3.21,5.48,5.48,0,0,1-1.85,2.12,4.21,4.21,0,0,1-2.41.66,3.59,3.59,0,0,1-3.13-1.58l-.4,1.35h-1.79l2.87-16.5h1.94l-1.17,6.17a4.27,4.27,0,0,1,3.39-1.5,3.24,3.24,0,0,1,2.61,1.24,5.44,5.44,0,0,1,1,3.29,10.24,10.24,0,0,1-.06,1.33Zm-1.85-1.12a4.14,4.14,0,0,0-.53-2.4,2,2,0,0,0-1.71-.87,3.54,3.54,0,0,0-3.07,1.82l-.87,5.05a2.47,2.47,0,0,0,2.42,1.81,2.83,2.83,0,0,0,2-.68,4.42,4.42,0,0,0,1.29-2A9,9,0,0,0,216.61,170.34Z" transform="translate(0 -2.32)" fill="#f2f2f2"/><path d="M222.1,177.22h-1.93l2.86-16.5H225Z" transform="translate(0 -2.32)" fill="#f2f2f2"/><path d="M230.31,177.44a4.19,4.19,0,0,1-3.39-1.6,5.51,5.51,0,0,1-1-4l.05-.46a7.74,7.74,0,0,1,1-3.16,6,6,0,0,1,2.06-2.15,4.79,4.79,0,0,1,2.62-.69,3.69,3.69,0,0,1,2.81,1.19,4.9,4.9,0,0,1,1.12,3.12,9.14,9.14,0,0,1,0,1.4l-.12.89h-7.59a3.93,3.93,0,0,0,.52,2.69,2.47,2.47,0,0,0,2.13,1.15,4.14,4.14,0,0,0,3.18-1.55l1.12.95a5.12,5.12,0,0,1-1.88,1.65A5.35,5.35,0,0,1,230.31,177.44ZM231.54,167a2.84,2.84,0,0,0-2.1.82,5.79,5.79,0,0,0-1.42,2.52h5.65l0-.17a3.18,3.18,0,0,0-.44-2.25A2,2,0,0,0,231.54,167Z" transform="translate(0 -2.32)" fill="#f2f2f2"/><path d="M240.52,165.59l-.25,1.3a4.55,4.55,0,0,1,3.53-1.5,3.59,3.59,0,0,1,1.88.5,2.48,2.48,0,0,1,1.06,1.36,4.8,4.8,0,0,1,3.86-1.87,3.07,3.07,0,0,1,2.57,1.17,4.18,4.18,0,0,1,.61,3l-1.28,7.64h-1.93l1.27-7.66a4,4,0,0,0,0-1q-.2-1.46-1.91-1.49a2.94,2.94,0,0,0-1.93.66,3.06,3.06,0,0,0-1.11,1.79l-1.32,7.72h-2l1.29-7.65a2.45,2.45,0,0,0-.36-1.84,1.89,1.89,0,0,0-1.55-.67,3.18,3.18,0,0,0-2.89,1.65l-1.47,8.5h-1.94l2-11.62Z" transform="translate(0 -2.32)" fill="#f2f2f2"/><path d="M262.61,177.22a2.62,2.62,0,0,1-.08-.61l0-.61a4.77,4.77,0,0,1-3.39,1.44,3.47,3.47,0,0,1-2.5-1,2.94,2.94,0,0,1-.88-2.38,3.58,3.58,0,0,1,1.62-2.88,6.89,6.89,0,0,1,4-1h2l.13-.92a2.13,2.13,0,0,0-.4-1.65,1.94,1.94,0,0,0-1.53-.63,3,3,0,0,0-1.77.49,2.08,2.08,0,0,0-.94,1.35h-2a3.12,3.12,0,0,1,.79-1.81,4.65,4.65,0,0,1,1.79-1.22,5.81,5.81,0,0,1,2.27-.41,3.85,3.85,0,0,1,2.83,1.1,3.42,3.42,0,0,1,.85,2.81l-.95,5.76-.05.83a4,4,0,0,0,.13,1.17l0,.18Zm-3.05-1.5a3.39,3.39,0,0,0,1.77-.45,4.48,4.48,0,0,0,1.43-1.29l.42-2.4h-1.47a5.57,5.57,0,0,0-2.81.58,2.14,2.14,0,0,0-1.11,1.64,1.66,1.66,0,0,0,.38,1.36A1.82,1.82,0,0,0,259.56,175.72Z" transform="translate(0 -2.32)" fill="#f2f2f2"/><path d="M289.47,177.44a4.19,4.19,0,0,1-3.39-1.6,5.51,5.51,0,0,1-1-4l.05-.46a7.74,7.74,0,0,1,1-3.16,6,6,0,0,1,2.06-2.15,4.79,4.79,0,0,1,2.62-.69,3.69,3.69,0,0,1,2.81,1.19,4.9,4.9,0,0,1,1.12,3.12,9.14,9.14,0,0,1,0,1.4l-.12.89H287a3.93,3.93,0,0,0,.52,2.69,2.47,2.47,0,0,0,2.13,1.15,4.14,4.14,0,0,0,3.18-1.55l1.12.95a5.12,5.12,0,0,1-1.88,1.65A5.35,5.35,0,0,1,289.47,177.44ZM290.7,167a2.84,2.84,0,0,0-2.1.82,5.79,5.79,0,0,0-1.42,2.52h5.65l0-.17a3.18,3.18,0,0,0-.44-2.25A2,2,0,0,0,290.7,167Z" transform="translate(0 -2.32)" fill="#f2f2f2"/><path d="M11.3,197.86a9.23,9.23,0,0,1-1,3.19,5.44,5.44,0,0,1-1.84,2.12,4.21,4.21,0,0,1-2.43.67A3.87,3.87,0,0,1,3,202.48l-1,5.61H0L2.8,192H4.56l-.21,1.3a4.41,4.41,0,0,1,3.45-1.5A3.24,3.24,0,0,1,10.4,193a5.44,5.44,0,0,1,1,3.29,11.64,11.64,0,0,1-.05,1.33Zm-1.91-.22.05-.9a4.09,4.09,0,0,0-.6-2.4,2.1,2.1,0,0,0-1.72-.87,3.45,3.45,0,0,0-2.91,1.6l-1,5.57a2.43,2.43,0,0,0,2.35,1.59,3.06,3.06,0,0,0,2.47-1.13A6.57,6.57,0,0,0,9.39,197.64Z" transform="translate(0 -2.32)" fill="#f2f2f2"/><path d="M20,203.62a2.6,2.6,0,0,1-.08-.61l0-.61a4.77,4.77,0,0,1-3.39,1.44,3.47,3.47,0,0,1-2.5-1,2.94,2.94,0,0,1-.88-2.38,3.58,3.58,0,0,1,1.62-2.88,6.89,6.89,0,0,1,4-1h2l.13-.92a2.13,2.13,0,0,0-.4-1.65,1.94,1.94,0,0,0-1.53-.63,3,3,0,0,0-1.77.49,2.08,2.08,0,0,0-.94,1.35h-2a3.12,3.12,0,0,1,.79-1.81,4.64,4.64,0,0,1,1.79-1.22,5.81,5.81,0,0,1,2.27-.41,3.85,3.85,0,0,1,2.83,1.1,3.42,3.42,0,0,1,.85,2.81l-.95,5.76-.05.83a4,4,0,0,0,.13,1.17l0,.18Zm-3.05-1.5a3.4,3.4,0,0,0,1.77-.45,4.49,4.49,0,0,0,1.43-1.29l.42-2.4H19.07a5.57,5.57,0,0,0-2.81.58,2.14,2.14,0,0,0-1.11,1.64,1.66,1.66,0,0,0,.38,1.36A1.81,1.81,0,0,0,16.92,202.12Z" transform="translate(0 -2.32)" fill="#f2f2f2"/><path d="M31.81,193.77l-.91-.1A3.33,3.33,0,0,0,28,195.36l-1.43,8.26H24.58l2-11.62h1.88l-.29,1.35a3.48,3.48,0,0,1,2.91-1.58,3.57,3.57,0,0,1,.92.16Z" transform="translate(0 -2.32)" fill="#f2f2f2"/><path d="M37.58,189.18,37.08,192H39.2l-.27,1.54H36.83l-1.21,7.23a2.5,2.5,0,0,0,0,.52.82.82,0,0,0,.91.84,5.6,5.6,0,0,0,.95-.11l-.15,1.62a5.29,5.29,0,0,1-1.42.19,2,2,0,0,1-1.74-.85,3.3,3.3,0,0,1-.45-2.24l1.18-7.2H32.83L33.1,192h2.05l.49-2.81Z" transform="translate(0 -2.32)" fill="#f2f2f2"/><path d="M41.63,203.62H39.7l2-11.62h1.93Zm1.6-15.87a1.06,1.06,0,0,1,.82.3,1.1,1.1,0,0,1,.33.83,1.15,1.15,0,0,1-1.15,1.17,1.07,1.07,0,0,1-.83-.29,1.05,1.05,0,0,1-.31-.82,1.21,1.21,0,0,1,.32-.84A1.14,1.14,0,0,1,43.23,187.75Z" transform="translate(0 -2.32)" fill="#f2f2f2"/><path d="M49.72,202.22a2.94,2.94,0,0,0,1.88-.61,2.88,2.88,0,0,0,1.1-1.65h1.84a4.15,4.15,0,0,1-.88,2,5.06,5.06,0,0,1-4,1.88,4.15,4.15,0,0,1-2.45-.76A4.23,4.23,0,0,1,45.7,201a6.83,6.83,0,0,1-.32-3l.05-.54a7.7,7.7,0,0,1,1-3,5.65,5.65,0,0,1,2-2.06,5,5,0,0,1,2.75-.69A3.93,3.93,0,0,1,54.1,193a4.24,4.24,0,0,1,1.1,3H53.38a2.79,2.79,0,0,0-.63-1.84,2.21,2.21,0,0,0-1.65-.75,3.1,3.1,0,0,0-2.52,1.13,5.9,5.9,0,0,0-1.25,3.24l0,.28a9.29,9.29,0,0,0,0,1.42,3.24,3.24,0,0,0,.71,2A2.28,2.28,0,0,0,49.72,202.22Z" transform="translate(0 -2.32)" fill="#f2f2f2"/><path d="M58.19,203.62H56.26l2-11.62h1.93Zm1.6-15.87a1.06,1.06,0,0,1,.82.3,1.1,1.1,0,0,1,.33.83,1.15,1.15,0,0,1-1.15,1.17,1.07,1.07,0,0,1-.83-.29,1.05,1.05,0,0,1-.31-.82,1.21,1.21,0,0,1,.32-.84A1.14,1.14,0,0,1,59.79,187.75Z" transform="translate(0 -2.32)" fill="#f2f2f2"/><path d="M71.9,197.86a9.23,9.23,0,0,1-1,3.19,5.44,5.44,0,0,1-1.84,2.12,4.21,4.21,0,0,1-2.43.67,3.87,3.87,0,0,1-3.09-1.36l-1,5.61H60.6L63.39,192h1.76l-.21,1.3a4.41,4.41,0,0,1,3.45-1.5A3.24,3.24,0,0,1,71,193a5.44,5.44,0,0,1,1,3.29,11.64,11.64,0,0,1-.05,1.33ZM70,197.64l.05-.9a4.09,4.09,0,0,0-.6-2.4,2.1,2.1,0,0,0-1.72-.87,3.45,3.45,0,0,0-2.91,1.6l-1,5.57a2.43,2.43,0,0,0,2.35,1.59,3.06,3.06,0,0,0,2.47-1.13A6.57,6.57,0,0,0,70,197.64Z" transform="translate(0 -2.32)" fill="#f2f2f2"/><path d="M80.57,203.62a2.6,2.6,0,0,1-.08-.61l0-.61a4.77,4.77,0,0,1-3.39,1.44,3.47,3.47,0,0,1-2.5-1,2.94,2.94,0,0,1-.88-2.38,3.58,3.58,0,0,1,1.62-2.88,6.89,6.89,0,0,1,4-1h2l.13-.92a2.13,2.13,0,0,0-.4-1.65,1.94,1.94,0,0,0-1.53-.63,3,3,0,0,0-1.77.49,2.08,2.08,0,0,0-.94,1.35h-2a3.12,3.12,0,0,1,.79-1.81,4.64,4.64,0,0,1,1.79-1.22,5.81,5.81,0,0,1,2.27-.41,3.85,3.85,0,0,1,2.83,1.1,3.42,3.42,0,0,1,.85,2.81l-.95,5.76-.05.83a4,4,0,0,0,.13,1.17l0,.18Zm-3.05-1.5a3.4,3.4,0,0,0,1.77-.45,4.49,4.49,0,0,0,1.43-1.29l.42-2.4H79.67a5.57,5.57,0,0,0-2.81.58,2.14,2.14,0,0,0-1.11,1.64,1.66,1.66,0,0,0,.38,1.36A1.81,1.81,0,0,0,77.52,202.12Z" transform="translate(0 -2.32)" fill="#f2f2f2"/><path d="M92.41,193.77l-.91-.1a3.33,3.33,0,0,0-2.94,1.69l-1.43,8.26H85.18l2-11.62h1.88l-.29,1.35a3.48,3.48,0,0,1,2.91-1.58,3.57,3.57,0,0,1,.92.16Z" transform="translate(0 -2.32)" fill="#f2f2f2"/><path d="M115.12,203.83a4.19,4.19,0,0,1-3.39-1.6,5.51,5.51,0,0,1-1-4l.05-.46a7.72,7.72,0,0,1,1-3.16,6,6,0,0,1,2.06-2.15,4.79,4.79,0,0,1,2.62-.69,3.69,3.69,0,0,1,2.81,1.19,4.91,4.91,0,0,1,1.12,3.12,9.14,9.14,0,0,1,0,1.4l-.12.89h-7.59a3.92,3.92,0,0,0,.52,2.69,2.47,2.47,0,0,0,2.13,1.15,4.14,4.14,0,0,0,3.18-1.55l1.12.95a5.12,5.12,0,0,1-1.89,1.65A5.35,5.35,0,0,1,115.12,203.83Zm1.24-10.43a2.84,2.84,0,0,0-2.1.82,5.8,5.8,0,0,0-1.42,2.52h5.65l0-.17a3.19,3.19,0,0,0-.44-2.25A2,2,0,0,0,116.36,193.4Z" transform="translate(0 -2.32)" fill="#f2f2f2"/><path d="M125.34,192l-.25,1.3a4.55,4.55,0,0,1,3.53-1.5,3.59,3.59,0,0,1,1.87.5,2.48,2.48,0,0,1,1.06,1.36,4.8,4.8,0,0,1,3.86-1.87A3.07,3.07,0,0,1,138,193a4.18,4.18,0,0,1,.61,3l-1.28,7.64h-1.93l1.27-7.66a4,4,0,0,0,0-1q-.2-1.46-1.91-1.49a2.93,2.93,0,0,0-1.93.66,3.05,3.05,0,0,0-1.11,1.79l-1.32,7.72h-2l1.29-7.65a2.46,2.46,0,0,0-.36-1.84,1.89,1.89,0,0,0-1.55-.67,3.18,3.18,0,0,0-2.89,1.65l-1.47,8.5h-1.94l2-11.62Z" transform="translate(0 -2.32)" fill="#f2f2f2"/><path d="M165.28,202.47a4.49,4.49,0,0,1-3.47,1.36,2.9,2.9,0,0,1-2.47-1.19,4.56,4.56,0,0,1-.6-3.14L160,192h1.94l-1.26,7.54a5,5,0,0,0,0,.92,1.92,1.92,0,0,0,.46,1.21,1.57,1.57,0,0,0,1.14.47,3.49,3.49,0,0,0,3.22-1.69l1.46-8.46h1.94l-2,11.62H165Z" transform="translate(0 -2.32)" fill="#f2f2f2"/><path d="M173.61,192l-.25,1.3a4.55,4.55,0,0,1,3.53-1.5,3.59,3.59,0,0,1,1.88.5,2.48,2.48,0,0,1,1.06,1.36,4.8,4.8,0,0,1,3.86-1.87,3.07,3.07,0,0,1,2.57,1.17,4.18,4.18,0,0,1,.61,3l-1.28,7.64h-1.93l1.27-7.66a4,4,0,0,0,0-1q-.2-1.46-1.91-1.49a2.94,2.94,0,0,0-1.93.66A3.06,3.06,0,0,0,180,195.9l-1.32,7.72h-2L178,196a2.45,2.45,0,0,0-.36-1.84,1.89,1.89,0,0,0-1.55-.67,3.18,3.18,0,0,0-2.89,1.65l-1.47,8.5h-1.94l2-11.62Z" transform="translate(0 -2.32)" fill="#f2f2f2"/><path d="M213.28,203.62a2.62,2.62,0,0,1-.08-.61l0-.61a4.77,4.77,0,0,1-3.39,1.44,3.47,3.47,0,0,1-2.5-1,2.94,2.94,0,0,1-.88-2.38,3.58,3.58,0,0,1,1.62-2.88,6.89,6.89,0,0,1,4-1h2l.13-.92a2.13,2.13,0,0,0-.4-1.65,1.94,1.94,0,0,0-1.53-.63,3,3,0,0,0-1.77.49,2.08,2.08,0,0,0-.94,1.35h-2a3.12,3.12,0,0,1,.79-1.81,4.65,4.65,0,0,1,1.79-1.22,5.81,5.81,0,0,1,2.27-.41,3.85,3.85,0,0,1,2.83,1.1,3.42,3.42,0,0,1,.85,2.81l-.95,5.76-.05.83a4,4,0,0,0,.13,1.17l0,.18Zm-3.05-1.5a3.39,3.39,0,0,0,1.77-.45,4.48,4.48,0,0,0,1.43-1.29l.42-2.4h-1.47a5.57,5.57,0,0,0-2.81.58,2.14,2.14,0,0,0-1.11,1.64,1.66,1.66,0,0,0,.38,1.36A1.82,1.82,0,0,0,210.23,202.12Z" transform="translate(0 -2.32)" fill="#f2f2f2"/><path d="M221.73,192l-.25,1.3a4.55,4.55,0,0,1,3.53-1.5,3.59,3.59,0,0,1,1.88.5,2.48,2.48,0,0,1,1.06,1.36,4.8,4.8,0,0,1,3.86-1.87,3.07,3.07,0,0,1,2.57,1.17,4.18,4.18,0,0,1,.61,3l-1.28,7.64h-1.93L233,196a4,4,0,0,0,0-1q-.2-1.46-1.91-1.49a2.94,2.94,0,0,0-1.93.66,3.06,3.06,0,0,0-1.11,1.79l-1.32,7.72h-2L226.1,196a2.45,2.45,0,0,0-.36-1.84,1.89,1.89,0,0,0-1.55-.67,3.18,3.18,0,0,0-2.89,1.65l-1.47,8.5h-1.94l2-11.62Z" transform="translate(0 -2.32)" fill="#f2f2f2"/><path d="M247.25,197.86a9.06,9.06,0,0,1-1,3.21,5.48,5.48,0,0,1-1.85,2.12,4.21,4.21,0,0,1-2.41.66,3.59,3.59,0,0,1-3.13-1.58l-.4,1.35H236.7l2.87-16.5h1.94l-1.17,6.17a4.27,4.27,0,0,1,3.39-1.5,3.24,3.24,0,0,1,2.61,1.24,5.44,5.44,0,0,1,1,3.29,10.24,10.24,0,0,1-.06,1.33Zm-1.85-1.12a4.14,4.14,0,0,0-.53-2.4,2,2,0,0,0-1.71-.87,3.54,3.54,0,0,0-3.07,1.82l-.87,5.05a2.47,2.47,0,0,0,2.42,1.81,2.83,2.83,0,0,0,2-.68,4.42,4.42,0,0,0,1.29-2A9,9,0,0,0,245.4,196.74Z" transform="translate(0 -2.32)" fill="#f2f2f2"/><path d="M250.89,203.62H249L251,192h1.93Zm1.6-15.87a1.06,1.06,0,0,1,.82.3,1.11,1.11,0,0,1,.33.83,1.17,1.17,0,0,1-.33.83,1.18,1.18,0,0,1-.82.34,1.07,1.07,0,0,1-.83-.29,1.05,1.05,0,0,1-.31-.82,1.21,1.21,0,0,1,.32-.84A1.14,1.14,0,0,1,252.49,187.75Z" transform="translate(0 -2.32)" fill="#f2f2f2"/><path d="M259.1,203.83a4.19,4.19,0,0,1-3.39-1.6,5.51,5.51,0,0,1-1-4l.05-.46a7.74,7.74,0,0,1,1-3.16,6,6,0,0,1,2.06-2.15,4.79,4.79,0,0,1,2.62-.69,3.69,3.69,0,0,1,2.81,1.19,4.9,4.9,0,0,1,1.12,3.12,9.14,9.14,0,0,1,0,1.4l-.12.89H256.6a3.93,3.93,0,0,0,.52,2.69,2.47,2.47,0,0,0,2.13,1.15,4.14,4.14,0,0,0,3.18-1.55l1.12.95a5.12,5.12,0,0,1-1.88,1.65A5.35,5.35,0,0,1,259.1,203.83Zm1.24-10.43a2.84,2.84,0,0,0-2.1.82,5.79,5.79,0,0,0-1.42,2.52h5.65l0-.17a3.18,3.18,0,0,0-.44-2.25A2,2,0,0,0,260.33,193.4Z" transform="translate(0 -2.32)" fill="#f2f2f2"/><path d="M269.33,192l-.28,1.47a4.58,4.58,0,0,1,3.57-1.68,2.88,2.88,0,0,1,2.43,1.14,4.43,4.43,0,0,1,.58,3.08l-1.27,7.62h-1.94L273.7,196a4.06,4.06,0,0,0,0-1,1.61,1.61,0,0,0-1.77-1.53,3.66,3.66,0,0,0-3.07,1.87l-1.44,8.28h-1.94l2-11.62Z" transform="translate(0 -2.32)" fill="#f2f2f2"/><path d="M282.49,189.18,282,192h2.12l-.27,1.54h-2.11l-1.21,7.23a2.5,2.5,0,0,0,0,.52.82.82,0,0,0,.91.84,5.6,5.6,0,0,0,.95-.11l-.15,1.62a5.29,5.29,0,0,1-1.42.19,2,2,0,0,1-1.74-.85,3.3,3.3,0,0,1-.45-2.24l1.18-7.2h-2.05L278,192h2.05l.49-2.81Z" transform="translate(0 -2.32)" fill="#f2f2f2"/><path d="M289.47,203.83a4.19,4.19,0,0,1-3.39-1.6,5.51,5.51,0,0,1-1-4l.05-.46a7.74,7.74,0,0,1,1-3.16,6,6,0,0,1,2.06-2.15,4.79,4.79,0,0,1,2.62-.69,3.69,3.69,0,0,1,2.81,1.19,4.9,4.9,0,0,1,1.12,3.12,9.14,9.14,0,0,1,0,1.4l-.12.89H287a3.93,3.93,0,0,0,.52,2.69,2.47,2.47,0,0,0,2.13,1.15,4.14,4.14,0,0,0,3.18-1.55l1.12.95a5.12,5.12,0,0,1-1.88,1.65A5.35,5.35,0,0,1,289.47,203.83Zm1.24-10.43a2.84,2.84,0,0,0-2.1.82,5.79,5.79,0,0,0-1.42,2.52h5.65l0-.17a3.18,3.18,0,0,0-.44-2.25A2,2,0,0,0,290.7,193.4Z" transform="translate(0 -2.32)" fill="#f2f2f2"/><path d="M33.92,230a2.6,2.6,0,0,1-.08-.61l0-.61a4.77,4.77,0,0,1-3.39,1.44,3.47,3.47,0,0,1-2.5-1,2.94,2.94,0,0,1-.88-2.38A3.58,3.58,0,0,1,28.72,224a6.89,6.89,0,0,1,4-1h2l.13-.92a2.13,2.13,0,0,0-.4-1.65,1.94,1.94,0,0,0-1.53-.63,3,3,0,0,0-1.77.49,2.08,2.08,0,0,0-.94,1.35h-2a3.12,3.12,0,0,1,.79-1.81,4.64,4.64,0,0,1,1.79-1.22,5.81,5.81,0,0,1,2.27-.41,3.85,3.85,0,0,1,2.83,1.1,3.42,3.42,0,0,1,.85,2.81l-.95,5.76-.05.83a4,4,0,0,0,.13,1.17l0,.18Zm-3.05-1.5a3.4,3.4,0,0,0,1.77-.45,4.49,4.49,0,0,0,1.43-1.29l.42-2.4H33a5.57,5.57,0,0,0-2.81.58,2.14,2.14,0,0,0-1.11,1.64,1.66,1.66,0,0,0,.38,1.36A1.81,1.81,0,0,0,30.87,228.52Z" transform="translate(0 -2.32)" fill="#f2f2f2"/><path d="M42.36,218.39l-.25,1.3a4.55,4.55,0,0,1,3.53-1.5,3.59,3.59,0,0,1,1.87.5,2.48,2.48,0,0,1,1.06,1.36,4.8,4.8,0,0,1,3.86-1.87A3.07,3.07,0,0,1,55,219.35a4.18,4.18,0,0,1,.61,3L54.34,230H52.41l1.27-7.66a4,4,0,0,0,0-1q-.2-1.46-1.91-1.49a2.93,2.93,0,0,0-1.93.66,3.05,3.05,0,0,0-1.11,1.79L47.4,230h-2l1.29-7.65a2.46,2.46,0,0,0-.36-1.84,1.89,1.89,0,0,0-1.55-.67,3.18,3.18,0,0,0-2.89,1.65L40.46,230H38.52l2-11.62Z" transform="translate(0 -2.32)" fill="#f2f2f2"/><path d="M59.44,230H57.51l2-11.62h1.93ZM61,214.15a1.06,1.06,0,0,1,.82.3,1.1,1.1,0,0,1,.33.83A1.15,1.15,0,0,1,61,216.45a1.07,1.07,0,0,1-.83-.29,1.05,1.05,0,0,1-.31-.82,1.21,1.21,0,0,1,.32-.84A1.14,1.14,0,0,1,61,214.15Z" transform="translate(0 -2.32)" fill="#f2f2f2"/><path d="M69.82,226.87q.16-1.2-1.32-1.7l-2-.59q-2.56-.88-2.47-2.92a3.22,3.22,0,0,1,1.4-2.52,5,5,0,0,1,3.12-1,4.17,4.17,0,0,1,2.86,1,3.25,3.25,0,0,1,1.06,2.62H70.52A1.81,1.81,0,0,0,70,220.4a2.17,2.17,0,0,0-1.51-.57,2.83,2.83,0,0,0-1.74.49,1.81,1.81,0,0,0-.78,1.27q-.14,1,1.24,1.47l1,.27A6.29,6.29,0,0,1,71,224.67a2.56,2.56,0,0,1,.77,2.05,3.26,3.26,0,0,1-.71,1.89,4,4,0,0,1-1.72,1.23,5.74,5.74,0,0,1-2.29.39A4.53,4.53,0,0,1,64,229.15a3.33,3.33,0,0,1-1.16-2.72h1.94a2.06,2.06,0,0,0,.62,1.57,2.38,2.38,0,0,0,1.71.59,3.35,3.35,0,0,0,1.84-.45A1.72,1.72,0,0,0,69.82,226.87Z" transform="translate(0 -2.32)" fill="#f2f2f2"/><path d="M78.86,215.58l-.49,2.81h2.12l-.27,1.54H78.11l-1.21,7.23a2.5,2.5,0,0,0,0,.52.82.82,0,0,0,.91.84,5.6,5.6,0,0,0,.95-.11L78.59,230a5.29,5.29,0,0,1-1.42.19,2,2,0,0,1-1.74-.85,3.3,3.3,0,0,1-.45-2.24l1.18-7.2H74.12l.27-1.54h2.05l.49-2.81Z" transform="translate(0 -2.32)" fill="#f2f2f2"/><path d="M87,218.18a4.19,4.19,0,0,1,2.5.79,4.52,4.52,0,0,1,1.54,2.13,6.6,6.6,0,0,1,.34,3l0,.24a7.83,7.83,0,0,1-1,3.07,5.94,5.94,0,0,1-2.08,2.13,5.08,5.08,0,0,1-2.8.72,4.2,4.2,0,0,1-2.5-.79,4.42,4.42,0,0,1-1.53-2.11,6.78,6.78,0,0,1-.34-2.93,7.92,7.92,0,0,1,1-3.24,6.07,6.07,0,0,1,2.1-2.23A5,5,0,0,1,87,218.18Zm-4,6.23a6.58,6.58,0,0,0,0,1.41,3.44,3.44,0,0,0,.76,2,2.27,2.27,0,0,0,1.73.78,3.09,3.09,0,0,0,1.78-.48,4,4,0,0,0,1.38-1.54,6.5,6.5,0,0,0,.72-2.29,10.34,10.34,0,0,0,0-1.67,3.58,3.58,0,0,0-.78-2.05A2.32,2.32,0,0,0,87,219.8,3.17,3.17,0,0,0,84.42,221a5.83,5.83,0,0,0-1.3,3.18Z" transform="translate(0 -2.32)" fill="#f2f2f2"/><path d="M100.07,226.87q.16-1.2-1.32-1.7l-2-.59q-2.56-.88-2.47-2.92a3.22,3.22,0,0,1,1.4-2.52,5,5,0,0,1,3.12-1,4.17,4.17,0,0,1,2.86,1,3.25,3.25,0,0,1,1.06,2.62h-1.93a1.81,1.81,0,0,0-.55-1.42,2.17,2.17,0,0,0-1.51-.57,2.83,2.83,0,0,0-1.74.49,1.81,1.81,0,0,0-.78,1.27q-.14,1,1.24,1.47l1,.27a6.29,6.29,0,0,1,2.84,1.34,2.56,2.56,0,0,1,.77,2.05,3.26,3.26,0,0,1-.71,1.89,4,4,0,0,1-1.72,1.23,5.74,5.74,0,0,1-2.29.39,4.53,4.53,0,0,1-3.05-1.08,3.33,3.33,0,0,1-1.16-2.72H95a2.06,2.06,0,0,0,.62,1.57,2.38,2.38,0,0,0,1.71.59,3.35,3.35,0,0,0,1.84-.45A1.72,1.72,0,0,0,100.07,226.87Z" transform="translate(0 -2.32)" fill="#f2f2f2"/><path d="M110.43,218.18a4.19,4.19,0,0,1,2.5.79,4.52,4.52,0,0,1,1.54,2.13,6.6,6.6,0,0,1,.34,3l0,.24a7.83,7.83,0,0,1-1,3.07,5.94,5.94,0,0,1-2.08,2.13,5.08,5.08,0,0,1-2.8.72,4.2,4.2,0,0,1-2.5-.79,4.42,4.42,0,0,1-1.53-2.11,6.78,6.78,0,0,1-.34-2.93,7.92,7.92,0,0,1,1-3.24,6.07,6.07,0,0,1,2.1-2.23A5,5,0,0,1,110.43,218.18Zm-4,6.23a6.58,6.58,0,0,0,0,1.41,3.44,3.44,0,0,0,.76,2,2.27,2.27,0,0,0,1.73.78,3.09,3.09,0,0,0,1.78-.48,4,4,0,0,0,1.38-1.54,6.5,6.5,0,0,0,.72-2.29,10.34,10.34,0,0,0,0-1.67,3.58,3.58,0,0,0-.78-2.05,2.32,2.32,0,0,0-1.74-.79A3.17,3.17,0,0,0,107.8,221a5.83,5.83,0,0,0-1.3,3.18Z" transform="translate(0 -2.32)" fill="#f2f2f2"/><path d="M122.21,224.19a9,9,0,0,1,1-3.2,5.54,5.54,0,0,1,1.88-2.14,4.3,4.3,0,0,1,2.46-.68,3.63,3.63,0,0,1,3,1.42l1.12-6.07h1.94L130.72,230h-1.77l.2-1.25a4.29,4.29,0,0,1-3.39,1.46,3.21,3.21,0,0,1-2.57-1.26,5.5,5.5,0,0,1-1-3.27A10.4,10.4,0,0,1,122.21,224.19Zm1.87,1.11a4,4,0,0,0,.55,2.38,2,2,0,0,0,1.7.87,3.51,3.51,0,0,0,3-1.7l.92-5.36a2.41,2.41,0,0,0-2.34-1.63,2.94,2.94,0,0,0-2,.69,4.47,4.47,0,0,0-1.33,2A8.34,8.34,0,0,0,124.08,225.3Z" transform="translate(0 -2.32)" fill="#f2f2f2"/><path d="M138.82,230.23a4.19,4.19,0,0,1-3.39-1.6,5.51,5.51,0,0,1-1-4l.05-.46a7.72,7.72,0,0,1,1-3.16,6,6,0,0,1,2.06-2.15,4.79,4.79,0,0,1,2.62-.69,3.69,3.69,0,0,1,2.81,1.19,4.9,4.9,0,0,1,1.12,3.12,9.14,9.14,0,0,1,0,1.4l-.12.89h-7.59a3.92,3.92,0,0,0,.52,2.69,2.47,2.47,0,0,0,2.13,1.15,4.14,4.14,0,0,0,3.18-1.55l1.12.95a5.13,5.13,0,0,1-1.89,1.65A5.35,5.35,0,0,1,138.82,230.23Zm1.24-10.43a2.84,2.84,0,0,0-2.1.82,5.8,5.8,0,0,0-1.42,2.52h5.65l0-.17a3.18,3.18,0,0,0-.44-2.25A2,2,0,0,0,140.05,219.8Z" transform="translate(0 -2.32)" fill="#f2f2f2"/><path d="M155.5,228.62a2.94,2.94,0,0,0,1.88-.61,2.88,2.88,0,0,0,1.1-1.65h1.84a4.15,4.15,0,0,1-.87,2,5.06,5.06,0,0,1-4,1.88,4.15,4.15,0,0,1-2.46-.76,4.24,4.24,0,0,1-1.48-2.05,6.83,6.83,0,0,1-.32-3l.05-.54a7.7,7.7,0,0,1,1-3,5.65,5.65,0,0,1,2-2.06,5,5,0,0,1,2.75-.69,3.93,3.93,0,0,1,2.92,1.22,4.24,4.24,0,0,1,1.1,3h-1.82a2.79,2.79,0,0,0-.63-1.84,2.21,2.21,0,0,0-1.65-.75,3.1,3.1,0,0,0-2.52,1.13,5.91,5.91,0,0,0-1.25,3.24l0,.28a9.36,9.36,0,0,0,0,1.42,3.24,3.24,0,0,0,.71,2A2.28,2.28,0,0,0,155.5,228.62Z" transform="translate(0 -2.32)" fill="#f2f2f2"/><path d="M168.32,218.18a4.19,4.19,0,0,1,2.5.79,4.53,4.53,0,0,1,1.54,2.13,6.61,6.61,0,0,1,.34,3l0,.24a7.82,7.82,0,0,1-1,3.07,5.93,5.93,0,0,1-2.08,2.13,5.08,5.08,0,0,1-2.8.72,4.2,4.2,0,0,1-2.5-.79,4.41,4.41,0,0,1-1.53-2.11,6.78,6.78,0,0,1-.34-2.93,7.93,7.93,0,0,1,1-3.24,6.06,6.06,0,0,1,2.1-2.23A5,5,0,0,1,168.32,218.18Zm-4,6.23a6.64,6.64,0,0,0,0,1.41,3.44,3.44,0,0,0,.76,2,2.27,2.27,0,0,0,1.73.78,3.09,3.09,0,0,0,1.78-.48A4,4,0,0,0,170,226.6a6.5,6.5,0,0,0,.72-2.29,10.23,10.23,0,0,0,0-1.67,3.58,3.58,0,0,0-.78-2.05,2.32,2.32,0,0,0-1.74-.79,3.17,3.17,0,0,0-2.56,1.18,5.84,5.84,0,0,0-1.3,3.18Z" transform="translate(0 -2.32)" fill="#f2f2f2"/><path d="M178,218.39l-.25,1.3a4.55,4.55,0,0,1,3.53-1.5,3.59,3.59,0,0,1,1.88.5,2.48,2.48,0,0,1,1.06,1.36,4.8,4.8,0,0,1,3.86-1.87,3.07,3.07,0,0,1,2.57,1.17,4.18,4.18,0,0,1,.61,3L190,230H188l1.27-7.66a4,4,0,0,0,0-1q-.2-1.46-1.91-1.49a2.94,2.94,0,0,0-1.93.66,3.06,3.06,0,0,0-1.11,1.79L183,230h-2l1.29-7.65a2.45,2.45,0,0,0-.36-1.84,1.89,1.89,0,0,0-1.55-.67,3.18,3.18,0,0,0-2.89,1.65l-1.47,8.5h-1.94l2-11.62Z" transform="translate(0 -2.32)" fill="#f2f2f2"/><path d="M203.48,224.26a9.23,9.23,0,0,1-1,3.19,5.44,5.44,0,0,1-1.84,2.12,4.21,4.21,0,0,1-2.43.67,3.87,3.87,0,0,1-3.09-1.36l-1,5.61h-1.94L195,218.4h1.76l-.21,1.3a4.41,4.41,0,0,1,3.45-1.5,3.24,3.24,0,0,1,2.61,1.24,5.44,5.44,0,0,1,1,3.29,11.64,11.64,0,0,1-.05,1.33Zm-1.91-.22.05-.9a4.09,4.09,0,0,0-.6-2.4,2.1,2.1,0,0,0-1.72-.87,3.45,3.45,0,0,0-2.91,1.6l-1,5.57a2.43,2.43,0,0,0,2.35,1.59,3.06,3.06,0,0,0,2.47-1.13A6.58,6.58,0,0,0,201.57,224Z" transform="translate(0 -2.32)" fill="#f2f2f2"/><path d="M210.07,230.23a4.19,4.19,0,0,1-3.39-1.6,5.51,5.51,0,0,1-1-4l.05-.46a7.74,7.74,0,0,1,1-3.16,6,6,0,0,1,2.06-2.15,4.79,4.79,0,0,1,2.62-.69,3.69,3.69,0,0,1,2.81,1.19,4.9,4.9,0,0,1,1.12,3.12,9.14,9.14,0,0,1,0,1.4l-.12.89h-7.59a3.93,3.93,0,0,0,.52,2.69,2.47,2.47,0,0,0,2.13,1.15,4.14,4.14,0,0,0,3.18-1.55l1.12.95a5.12,5.12,0,0,1-1.88,1.65A5.35,5.35,0,0,1,210.07,230.23Zm1.24-10.43a2.84,2.84,0,0,0-2.1.82,5.79,5.79,0,0,0-1.42,2.52h5.65l0-.17a3.18,3.18,0,0,0-.44-2.25A2,2,0,0,0,211.3,219.8Z" transform="translate(0 -2.32)" fill="#f2f2f2"/><path d="M221.58,215.58l-.49,2.81h2.12l-.27,1.54h-2.11l-1.21,7.23a2.5,2.5,0,0,0,0,.52.82.82,0,0,0,.91.84,5.6,5.6,0,0,0,.95-.11l-.15,1.62a5.29,5.29,0,0,1-1.42.19,2,2,0,0,1-1.74-.85,3.3,3.3,0,0,1-.45-2.24l1.18-7.2h-2.05l.27-1.54h2.05l.49-2.81Z" transform="translate(0 -2.32)" fill="#f2f2f2"/><path d="M225.63,230H223.7l2-11.62h1.93Zm1.6-15.87a1.06,1.06,0,0,1,.82.3,1.11,1.11,0,0,1,.33.83,1.17,1.17,0,0,1-.33.83,1.18,1.18,0,0,1-.82.34,1.07,1.07,0,0,1-.83-.29,1.05,1.05,0,0,1-.31-.82,1.21,1.21,0,0,1,.32-.84A1.14,1.14,0,0,1,227.23,214.15Z" transform="translate(0 -2.32)" fill="#f2f2f2"/><path d="M233.72,228.62a2.94,2.94,0,0,0,1.88-.61,2.88,2.88,0,0,0,1.1-1.65h1.84a4.15,4.15,0,0,1-.87,2,5.06,5.06,0,0,1-4,1.88,4.15,4.15,0,0,1-2.46-.76,4.24,4.24,0,0,1-1.48-2.05,6.83,6.83,0,0,1-.32-3l.05-.54a7.7,7.7,0,0,1,1-3,5.65,5.65,0,0,1,2-2.06,5,5,0,0,1,2.75-.69,3.93,3.93,0,0,1,2.92,1.22,4.24,4.24,0,0,1,1.1,3h-1.82a2.79,2.79,0,0,0-.63-1.84,2.21,2.21,0,0,0-1.65-.75,3.1,3.1,0,0,0-2.52,1.13,5.91,5.91,0,0,0-1.25,3.24l0,.28a9.36,9.36,0,0,0,0,1.42,3.24,3.24,0,0,0,.71,2A2.28,2.28,0,0,0,233.72,228.62Zm0,1.49-.23.59a1.57,1.57,0,0,1,1.34,1.75,2,2,0,0,1-1,1.71,4.78,4.78,0,0,1-2.55.64l0-1.16q1.78-.06,2-1.15.13-.76-1-.89l-.49-.06.49-1.43Z" transform="translate(0 -2.32)" fill="#f2f2f2"/><path d="M247.2,230a2.62,2.62,0,0,1-.08-.61l0-.61a4.77,4.77,0,0,1-3.39,1.44,3.47,3.47,0,0,1-2.5-1,2.94,2.94,0,0,1-.88-2.38A3.58,3.58,0,0,1,242,224a6.89,6.89,0,0,1,4-1h2l.13-.92a2.13,2.13,0,0,0-.4-1.65,1.94,1.94,0,0,0-1.53-.63,3,3,0,0,0-1.77.49,2.08,2.08,0,0,0-.94,1.35h-2a3.12,3.12,0,0,1,.79-1.81,4.65,4.65,0,0,1,1.79-1.22,5.81,5.81,0,0,1,2.27-.41,3.85,3.85,0,0,1,2.83,1.1,3.42,3.42,0,0,1,.85,2.81l-.95,5.76-.05.83a4,4,0,0,0,.13,1.17l0,.18Zm-3.05-1.5a3.39,3.39,0,0,0,1.77-.45,4.48,4.48,0,0,0,1.43-1.29l.42-2.4H246.3a5.57,5.57,0,0,0-2.81.58,2.14,2.14,0,0,0-1.11,1.64,1.66,1.66,0,0,0,.38,1.36A1.82,1.82,0,0,0,244.15,228.52Zm7-14.66a3.28,3.28,0,0,1-.78,1.91,2.14,2.14,0,0,1-1.65.72,1.58,1.58,0,0,1-.72-.17q-.33-.17-.65-.37a6.69,6.69,0,0,0-.66-.37,1.53,1.53,0,0,0-.72-.15q-.91,0-1.25,1.2l-1.31-.08a3.36,3.36,0,0,1,.8-1.93,2.08,2.08,0,0,1,1.67-.73,1.6,1.6,0,0,1,.54.09,5.42,5.42,0,0,1,.82.44,5.5,5.5,0,0,0,.83.45,1.44,1.44,0,0,0,.55.09q.92,0,1.27-1.21Z" transform="translate(0 -2.32)" fill="#f2f2f2"/><path d="M258.27,218.18a4.19,4.19,0,0,1,2.5.79,4.53,4.53,0,0,1,1.54,2.13,6.61,6.61,0,0,1,.34,3l0,.24a7.82,7.82,0,0,1-1,3.07,5.93,5.93,0,0,1-2.08,2.13,5.08,5.08,0,0,1-2.8.72,4.2,4.2,0,0,1-2.5-.79,4.41,4.41,0,0,1-1.53-2.11,6.78,6.78,0,0,1-.34-2.93,7.93,7.93,0,0,1,1-3.24,6.06,6.06,0,0,1,2.1-2.23A5,5,0,0,1,258.27,218.18Zm-4,6.23a6.64,6.64,0,0,0,0,1.41,3.44,3.44,0,0,0,.76,2,2.27,2.27,0,0,0,1.73.78,3.09,3.09,0,0,0,1.78-.48A4,4,0,0,0,260,226.6a6.5,6.5,0,0,0,.72-2.29,10.23,10.23,0,0,0,0-1.67,3.58,3.58,0,0,0-.78-2.05,2.32,2.32,0,0,0-1.74-.79,3.17,3.17,0,0,0-2.56,1.18,5.84,5.84,0,0,0-1.3,3.18Z" transform="translate(0 -2.32)" fill="#f2f2f2"/><path d="M265.52,227.76a1.17,1.17,0,0,1,.87.32,1.11,1.11,0,0,1,.33.86,1.16,1.16,0,0,1-.35.85,1.28,1.28,0,0,1-.86.35,1.08,1.08,0,0,1-1.18-1.14,1.22,1.22,0,0,1,.33-.87A1.21,1.21,0,0,1,265.52,227.76Z" transform="translate(0 -2.32)" fill="#f2f2f2"/></svg>