<svg xmlns="http://www.w3.org/2000/svg" width="396.17" height="402.7" viewBox="0 0 396.17 402.7"><title>hackathon</title><path d="M158.15,336.63a5.92,5.92,0,0,1-2,4.25,7,7,0,0,1-4.74,1.55,6.29,6.29,0,0,1-5.06-2.16,8.87,8.87,0,0,1-1.84-5.94v-1a10,10,0,0,1,.85-4.25,6.36,6.36,0,0,1,2.43-2.82,7.59,7.59,0,0,1,8.33.57,6.36,6.36,0,0,1,2,4.35h-3.44a3.5,3.5,0,0,0-.9-2.35,3.34,3.34,0,0,0-2.36-.73,2.93,2.93,0,0,0-2.58,1.23,6.92,6.92,0,0,0-.88,3.83v1.26a7.4,7.4,0,0,0,.82,4,2.87,2.87,0,0,0,2.59,1.25,3.4,3.4,0,0,0,2.38-.73,3.3,3.3,0,0,0,.9-2.26Zm16-2.41a10.1,10.1,0,0,1-.87,4.33,6.57,6.57,0,0,1-2.5,2.87,7.38,7.38,0,0,1-7.43,0,6.64,6.64,0,0,1-2.53-2.85,9.8,9.8,0,0,1-.91-4.27v-.83a10,10,0,0,1,.89-4.35,6.63,6.63,0,0,1,2.51-2.88,7.37,7.37,0,0,1,7.43,0,6.63,6.63,0,0,1,2.51,2.88,10,10,0,0,1,.89,4.33Zm-3.49-.76a7,7,0,0,0-.94-4,3.33,3.33,0,0,0-5.36,0,7,7,0,0,0-1,4v.82a7.13,7.13,0,0,0,.94,4,3.3,3.3,0,0,0,5.37.05,7.08,7.08,0,0,0,.94-4Zm6,8.74V325.48h5.14a7.81,7.81,0,0,1,3.94,1,6.92,6.92,0,0,1,2.72,2.82,8.71,8.71,0,0,1,1,4.16v.77a8.74,8.74,0,0,1-1,4.15,6.87,6.87,0,0,1-2.7,2.81,7.87,7.87,0,0,1-3.94,1Zm3.44-13.93v11.16h1.67a3.74,3.74,0,0,0,3.09-1.32,6,6,0,0,0,1.09-3.78v-.88a6.06,6.06,0,0,0-1.06-3.86,3.73,3.73,0,0,0-3.09-1.31ZM202,335h-6.61v4.48h7.76v2.77H191.93V325.48h11.18v2.79h-7.74v4H202Zm9.36,1.13H208.6v6.12h-3.44V325.48h6.21a7,7,0,0,1,4.57,1.32,4.56,4.56,0,0,1,1.61,3.73,5.15,5.15,0,0,1-.74,2.85,5,5,0,0,1-2.25,1.82l3.62,6.83v.16h-3.7Zm-2.74-2.79h2.78a2.84,2.84,0,0,0,2-.66,2.36,2.36,0,0,0,.71-1.82,2.53,2.53,0,0,0-.67-1.86,2.79,2.79,0,0,0-2.06-.68H208.6ZM230.23,335h-6.61v4.48h7.76v2.77H220.17V325.48h11.18v2.79h-7.74v4h6.61Zm3.17,7.25V325.48h5.14a7.81,7.81,0,0,1,3.94,1,6.93,6.93,0,0,1,2.72,2.82,8.71,8.71,0,0,1,1,4.16v.77a8.74,8.74,0,0,1-1,4.15,6.86,6.86,0,0,1-2.7,2.81,7.87,7.87,0,0,1-3.94,1Zm3.44-13.93v11.16h1.67a3.74,3.74,0,0,0,3.09-1.32,6,6,0,0,0,1.09-3.78v-.88a6.06,6.06,0,0,0-1.06-3.86,3.73,3.73,0,0,0-3.09-1.31ZM156.69,123.21c-1.91,0-3.09-1.67-4.91-.86-2.74,5.39,1.87,9.08,3.75,13.39-1.3,1.34-3.58-.23-4.4,1.77.62,5.75,5.2,8.4,9.29,11.48-1.54.89-3.44-.18-4.37,1.89.29,1.79,1.81,2.92,3.12,4.1,3,2.71,7.14,2.85,10.69,4.38-1.42.9-3.59,1-3.59,3.39,4.35,5,10.42,3.11,15.8,3.77,0,2.12-3.08,1.94-2.48,4.33,5.92,3.24,11.77,1.07,17.92-1.28-1.33,2.77-4.87,4.43-2,7.51,2.3-.23,3-2.37,4.74-3.17,1.63,1,2.54,3.55,5.09,2.92,1.86-2.2-.92-4-.51-6.2,5.4,1.45,10.76,3.38,15.76.21.25-2.14-2.34-2.5-1.43-4.5,5.42.09,11.06.78,15.16-3.91,0-2-3.19-1.38-2.71-3.6,5.05-1.47,10.41-2.43,12.31-8.1-1-2.06-3-.68-4-2,4.05-3.19,9.14-5.56,9.05-12.13l-4.55-.72c3.18-4.33,6.12-8.16,4.18-12.93-2.2-1.65-3.59.67-5.4.35,3.09-7.23,2.73-11.09-1.27-14.63-7.19,5.24-8,14.22-1.67,18.42-2.46,3.78-3.47,7.72-.93,12.11-3.92,2.63-6.1,6.25-5.92,11-4.17,1.55-7.42,3.73-8.82,7.92-4.69,1-9.06,2.42-11.63,5.86-8.69.37-16.78.7-25.48-.3-2.52-2.35-5.75-5-10.36-4.44h0c-3.11-3.53-5-8.31-10.32-9.05.45-5.36-2.6-8.47-6-11.36,3-3.56,3-3.81-.28-11.73,6.37-5.92,5.3-13.76-2.55-18.08C152.92,113.21,155.69,118.27,156.69,123.21Zm45.81,45.67c-1.46.32-2.31-.22-3.24-1.68h0C201.45,166.73,201.9,167.78,202.5,168.88Zm-32.76-60.82c20.73-15.87,41.12-15.34,61.46.25l4.93-4h0c-18.19-20.64-56.47-18.85-71.59-.11C166,106.06,167.61,107.63,169.74,108.06Zm40.63,14.51c-5.3-1.77-7-9.09-10.25-14.68-2.12,3.63-3.88,6.63-5.9,10.72-1.88,3.82-3.74,3.83-8.1,4.75a109,109,0,0,0-13.79,3.57c5.25,4.21,10.73,5.68,14.79,9.93-1,5.44-3.5,11.37-4,17.44,6.27-3,11.6-6,17-8.37,5.7,2.64,11.22,6,17.14,8.37-1-5.61-3.82-11.54-4-17.25,4.61-3.82,8.87-6,14.37-10.12A134.81,134.81,0,0,1,210.37,122.57ZM23.14,259.14q-.6,0-.6.62V273.5a2.7,2.7,0,0,1-.69,1.84,2.2,2.2,0,0,1-1.68.76H13a2.26,2.26,0,0,1-1.68-.76,2.7,2.7,0,0,1-.69-1.84V231.68a2.63,2.63,0,0,1,.69-1.84,2.26,2.26,0,0,1,1.68-.76h7.19a2.2,2.2,0,0,1,1.68.76,2.63,2.63,0,0,1,.69,1.84v13.71q0,.66.6.66H37.49q.6,0,.6-.66V231.68a2.63,2.63,0,0,1,.69-1.84,2.2,2.2,0,0,1,1.68-.76h7.16a2.29,2.29,0,0,1,1.71.76,2.63,2.63,0,0,1,.69,1.84V273.5a2.7,2.7,0,0,1-.69,1.84,2.29,2.29,0,0,1-1.71.76H40.47a2.2,2.2,0,0,1-1.68-.76,2.7,2.7,0,0,1-.69-1.84V259.76q0-.62-.6-.62Zm45.23,10.42a.55.55,0,0,0-.54.43l-1.59,4.44A2.23,2.23,0,0,1,64,276.1h-7.7a2.23,2.23,0,0,1-2-1.15,2.67,2.67,0,0,1-.24-2.4L69,230.73a2.19,2.19,0,0,1,2.23-1.64H81.7a2.2,2.2,0,0,1,2.23,1.68l14.53,41.79a2.74,2.74,0,0,1-.24,2.43,2.25,2.25,0,0,1-2,1.12H88.56a2.2,2.2,0,0,1-2.23-1.68L84.8,270a.57.57,0,0,0-.57-.43Zm8.6-22a.57.57,0,0,0-.57-.43.54.54,0,0,0-.54.39l-2.92,8.12a.68.68,0,0,0,.09.59.5.5,0,0,0,.48.3h5.71a.56.56,0,0,0,.48-.26.77.77,0,0,0,.09-.63Zm41,28.57a19.88,19.88,0,0,1-15.22-6.87,25.12,25.12,0,0,1,0-33.24,20.06,20.06,0,0,1,13.92-6.84A19.69,19.69,0,0,1,131.17,234a2.68,2.68,0,0,1,.93,1.91,2.65,2.65,0,0,1-.69,2l-5.14,5.66a2,2,0,0,1-3,.3,8.69,8.69,0,0,0-6.2-1.68,9,9,0,0,0-5.83,3,11.14,11.14,0,0,0,0,14.76,9,9,0,0,0,12,1.35,2,2,0,0,1,3,.3l5.14,5.62a2.76,2.76,0,0,1,.69,2,2.65,2.65,0,0,1-.93,1.88A19.79,19.79,0,0,1,118,276.1Zm29.86-12.17a.74.74,0,0,0-.15.46v9.11a2.7,2.7,0,0,1-.69,1.84,2.2,2.2,0,0,1-1.68.76h-7.19a2.26,2.26,0,0,1-1.68-.76,2.7,2.7,0,0,1-.69-1.84V231.68a2.63,2.63,0,0,1,.69-1.84,2.26,2.26,0,0,1,1.68-.76h7.19a2.2,2.2,0,0,1,1.68.76,2.63,2.63,0,0,1,.69,1.84V243a.56.56,0,0,0,.39.59.52.52,0,0,0,.66-.16L160,229.94a2.18,2.18,0,0,1,1.77-.85h9.68a2.21,2.21,0,0,1,2.17,1.55,2.6,2.6,0,0,1-.42,2.83L161.64,247.4a.67.67,0,0,0-.09.79l13,24a2.67,2.67,0,0,1,0,2.63,2.18,2.18,0,0,1-2.07,1.31h-8.33a2.21,2.21,0,0,1-2-1.28l-8.78-16.18a.56.56,0,0,0-.45-.33.58.58,0,0,0-.51.2Zm45.74,5.62a.55.55,0,0,0-.54.43l-1.59,4.44a2.23,2.23,0,0,1-2.23,1.68h-7.7a2.23,2.23,0,0,1-2-1.15,2.67,2.67,0,0,1-.24-2.4l14.95-41.83a2.19,2.19,0,0,1,2.23-1.64h10.44a2.2,2.2,0,0,1,2.23,1.68l14.53,41.79a2.75,2.75,0,0,1-.24,2.43,2.25,2.25,0,0,1-2,1.12h-7.67a2.2,2.2,0,0,1-2.22-1.68L210,270a.57.57,0,0,0-.57-.43Zm8.6-22a.57.57,0,0,0-.57-.43.54.54,0,0,0-.54.39l-2.92,8.12a.68.68,0,0,0,.09.59.5.5,0,0,0,.48.3h5.71a.56.56,0,0,0,.48-.26.77.77,0,0,0,.09-.63Zm30.53,28.57a2.26,2.26,0,0,1-1.68-.76,2.7,2.7,0,0,1-.69-1.84V242.79q0-.66-.6-.66H219.6a2.26,2.26,0,0,1-1.68-.76,2.63,2.63,0,0,1-.69-1.84v-7.86a2.63,2.63,0,0,1,.69-1.84,2.26,2.26,0,0,1,1.68-.76h33.47a2.2,2.2,0,0,1,1.68.76,2.63,2.63,0,0,1,.69,1.84v7.86a2.63,2.63,0,0,1-.69,1.84,2.2,2.2,0,0,1-1.68.76H242.9q-.6,0-.6.66V273.5a2.7,2.7,0,0,1-.69,1.84,2.2,2.2,0,0,1-1.68.76Zm38.86-17q-.6,0-.6.62V273.5a2.7,2.7,0,0,1-.69,1.84,2.2,2.2,0,0,1-1.68.76h-7.19a2.26,2.26,0,0,1-1.68-.76,2.7,2.7,0,0,1-.69-1.84V231.68a2.63,2.63,0,0,1,.69-1.84,2.26,2.26,0,0,1,1.68-.76h7.19a2.2,2.2,0,0,1,1.68.76,2.63,2.63,0,0,1,.69,1.84v13.71q0,.66.6.66h14.35q.6,0,.6-.66V231.68a2.63,2.63,0,0,1,.69-1.84,2.2,2.2,0,0,1,1.68-.76h7.16a2.29,2.29,0,0,1,1.71.76,2.63,2.63,0,0,1,.69,1.84V273.5a2.7,2.7,0,0,1-.69,1.84,2.29,2.29,0,0,1-1.71.76h-7.16a2.2,2.2,0,0,1-1.68-.76,2.7,2.7,0,0,1-.69-1.84V259.76a.54.54,0,0,0-.6-.62Zm52,17a19.81,19.81,0,0,1-15.19-6.9,25,25,0,0,1,0-33.21,20.16,20.16,0,0,1,30.38,0,25,25,0,0,1,0,33.21A19.81,19.81,0,0,1,323.6,276.1Zm0-34a8.9,8.9,0,0,0-6.77,3.06,11.18,11.18,0,0,0,0,14.8,9,9,0,0,0,13.53,0,11.18,11.18,0,0,0,0-14.8A8.9,8.9,0,0,0,323.6,242.14Zm38.14,13.28a.53.53,0,0,0-.66-.26.62.62,0,0,0-.42.62V273.5a2.7,2.7,0,0,1-.69,1.84,2.2,2.2,0,0,1-1.68.76h-7.19a2.26,2.26,0,0,1-1.68-.76,2.7,2.7,0,0,1-.69-1.84V231.68a2.63,2.63,0,0,1,.69-1.84,2.26,2.26,0,0,1,1.68-.76h7.13a2.18,2.18,0,0,1,2,1.12l12.54,19.56a.52.52,0,0,0,.66.26.61.61,0,0,0,.42-.62V231.68a2.63,2.63,0,0,1,.69-1.84,2.29,2.29,0,0,1,1.71-.76h7.16a2.2,2.2,0,0,1,1.68.76,2.63,2.63,0,0,1,.69,1.84V273.5a2.7,2.7,0,0,1-.69,1.84,2.2,2.2,0,0,1-1.68.76h-7.13a2.22,2.22,0,0,1-2-1.12ZM0,303.87v16.25c4.66-.85,21.32-3.8,45.81-7a20.87,20.87,0,0,0,10.82,16l131.64,71.11a20.84,20.84,0,0,0,19.87,0L339.7,329.07a20.87,20.87,0,0,0,10.81-15.94c24,3.16,40.41,6,45.49,6.94V303.82c-20.44-3.57-105.25-17.3-198.67-17.3C104.22,286.52,19.75,300.39,0,303.87Zm330.67,6.81a.9.9,0,0,1-.47.79L198.64,382.59a.89.89,0,0,1-.86,0L66.14,311.48a.9.9,0,0,1-.47-.79v-.08c35.76-4.17,82.47-8.09,131.67-8.09,49.85,0,97.19,4,133.33,8.16Zm20-115.84V92a20.88,20.88,0,0,0-11-18.39L208.15,2.52a20.84,20.84,0,0,0-19.87,0L56.64,73.63A20.88,20.88,0,0,0,45.67,92V194.84H.16v16h396v-16Zm-20,0h-265V92a.9.9,0,0,1,.47-.79L159.1,41c1.09,1.36,14.09,17.5,21.65,25.41h11.38s0,3.6,0,5.34a80.82,80.82,0,0,0-22.75,5.73c-22.13,9.62-39.26,30.36-38.26,55.12.74,19.27,10.58,33.93,26.07,44.84A64.34,64.34,0,0,0,196,189.57c14.48-.12,28.56-.44,41.39-8.31,20.45-12.55,33.35-29.68,31.56-54.68-1.36-19.08-12-33-27.5-43.45-10.15-6.85-21.6-10-33.88-11.3,0-1.81.06-5.36.06-5.36h12.79c-5.64-7-29.83-36.58-33.16-40.64l10.57-5.71a.9.9,0,0,1,.86,0l12.9,7-5,6.94,19.69,24.36,13.42-16.09,90.52,48.93a.9.9,0,0,1,.47.79Zm-86.5-95.75c19.36,19.46,17.11,50.57-4.5,67.57-11.76,9.26-25,13.32-41.3,13.86-21.8-1.36-41.17-9.79-51.66-32.09-7.35-15.62-5-31,5.46-44.55C174.17,75.31,219.6,74.39,244.17,99.09Z" fill="#f2f2f2"/></svg>