<svg xmlns="http://www.w3.org/2000/svg" width="396.14" height="432.46" viewBox="0 0 396.14 432.46"><title>codedojo</title><path d="M197.49,226H6c-5.94,0-6,0-5.94-6,.13-12.62-1.74-10.85,10.72-11,4.66,0,9.34-.19,14,.05,3.28.16,4.38-1,4.29-4.25-.2-7.49-.06-15-.06-22.5,0-25.5.07-51,0-76.49,0-13.66,6.17-23.7,17.79-30.12,20.5-11.3,41.3-22,61.9-33.16,21.79-11.75,43.6-23.46,65.2-35.55,16.4-9.18,32.13-9.5,48.51.36,13.65,8.21,28,15.21,42.07,22.79Q300.22,49.49,336,68.85c6,3.23,12.32,5.72,17.81,9.91C362.48,85.38,367,94,367,104.85c.06,33,.1,66-.07,99,0,4.19,1.17,5.49,5.32,5.28,6.32-.34,12.67,0,19-.14,3.34-.08,4.72,1,4.8,4.55.27,12.45.39,12.45-12,12.45Zm-51-106.19a7.37,7.37,0,0,0-6.49-2.88c-6.5.15-13,.11-19.5,0-3.19-.05-6.91-.3-8.11-3.65-1.51-4.19-4.79-5.21-8.24-6.29-5.83-1.8-11.34-3.77-12.65-10.89-.43-2.35-1.85-3.22-4.36-1.81-5.94,3.34-12,6.49-18,9.64C66.76,105.15,66,107,66,109.6c.14,32.13-.16,64.26.86,96.39.1,3.06,1,4,4.06,4q34.5-.13,69,.05c3.4,0,4.2-1.21,4.16-4.37-.15-12-.26-24,0-36a22.91,22.91,0,0,0-5.1-15.18c-2.3-3-1.82-4.35,1.82-5.34,1-.25,2-.09,3-.32,5-1.19,2.83-5.25,3.12-8.22.31-3.22-2.27-2.63-4.16-2.64-6.5,0-13,.06-19.5,0-11.39-.16-11.33,2.72-11.33-11.73,0-3.8,2-4.91,5-4.14,6.11,1.54,12.26.44,18.37.93a15.88,15.88,0,0,0,11.14-3.24Zm108.3.37c4,.35,6.26,2.85,9.53,2.81,5.49-.06,11-.1,16.48,0,2.91.06,6.3-2.8,8.48-.23,2,2.34.63,6.08.68,9.2.11,6,0,6-6.22,6h-25c-1.57,0-3.28-.42-3.77,2.09-1.1,5.51.17,7.71,5.61,9,4.21,1,4.84,2.38,2.33,6s-4.12,7.32-4,12q.38,18.72,0,37.45c-.1,4.25.83,5.87,5.44,5.65,11.77-.55,23.55.09,35.35-.85,9.21-.74,18.56-.22,27.82.27,2.83.15,3.51-.32,3.51-2.94V108.22a4.31,4.31,0,0,0-2.5-4.39q-6.88-3.5-13.59-7.34c-2.26-1.28-3.72-1.73-4.54,1.53-1.07,4.25-4.37,6.5-8.3,7.87-2.34.82-4.75,1.45-7.09,2.26-1.9.66-4.34,1.44-4.61,3.44-.73,5.44-4.66,5.32-8.45,5.41q-9,.21-18,0a12.4,12.4,0,0,0-9.17,3.16Zm40.47-32.94v-1.3c-9.33-5.08-18.64-10.2-28-15.23-19.92-10.72-40-21.09-59.71-32.26-5.81-3.29-9.92-4-16.07-.53-23.77,13.35-48,26-72,38.86-5.34,2.86-10.64,5.8-16,8.71l.2,1.46c63.87,10.74,127.7,10.13,191.57.29Zm-94,51.74c-11.32,0-22.64.09-34-.07-3.19,0-4.34.83-4.32,4.19q.19,31.46,0,62.92c0,3.06.92,4,4,3.95q33.84-.15,67.68.07c3.58,0,4.47-1.18,4.45-4.58-.13-20.64-.17-41.29,0-61.93,0-3.93-1.35-4.69-4.91-4.63-11,.18-22,.08-32.95.08ZM36,154.3v50c0,1.53-.75,3.43,1.16,4.49,4.27,2.36,8.8-.39,8.8-5.33q0-48.73,0-97.48c0-7.17,2.66-13,9.08-16.62q15-8.4,30.16-16.46c18.45-9.85,37-19.5,55.41-29.4,15.67-8.44,31.11-17.24,46.81-25.56,5.49-2.91,11.57-4.4,17.77-1.82a120.74,120.74,0,0,1,12.6,6c12.9,7.2,25.94,14.17,39,21.16l38.64,20.66c12.88,6.88,25.47,14.44,38.65,20.74,13.52,6.47,17.83,12,17.83,26.73v74c0,6.67.06,13.33,0,20,0,2.4.59,3.48,3.31,3.73,4.31.41,4.86-1.58,4.85-5.22-.11-33,0-66-.1-99,0-10-4.55-17.79-13.19-22.54-28.26-15.54-56.7-30.77-85.08-46.11-16.26-8.77-32.48-17.58-48.77-26.21-6.77-3.6-13.86-5.09-21.62-3.15C181.77,9.3,174,15.25,165.47,19.56,146.2,29.3,127.4,40,108.41,50.25c-19.57,10.55-39.2,21-58.68,31.81C40.55,87.14,36,95.22,36,105.81Zm200.31-34.75a6.81,6.81,0,0,0-5.69-2.63c-5,.13-10,.21-14.93,0-3.35-.16-3.76,1.48-3.75,4.22s.6,3.77,3.57,3.92c7.49.37,14.68-.07,20.77-5.51Zm-71.43.84c4.85.06,6.84,4.44,10.88,4.54,3.65.1,7.31-.13,11,.07,3.25.17,3.29-1.74,3.33-4.11s-.33-4.11-3.46-4c-4.8.2-9.63.18-14.43,0-2.77-.09-4.87.71-7.35,3.5ZM137,303c16.77-1.53,33.62-.37,50.37-1.29,18.14-1,36.19.6,54.3.44a435,435,0,0,1,44.78,2c25.35,2.38,50.77,4.33,75.93,8.6,9.94,1.69,20,2.89,30,4.17,2.42.31,3.65,1.2,3.59,3.73a74.88,74.88,0,0,0,0,9c.4,4.22-1.74,4.77-5.11,4.12a168,168,0,0,0-20.62-3.06c-2.71-.17-3.58.81-4,2.92-2.52,12.59-11,19.76-21.89,25.33-15.67,8-31,16.71-46.49,25-19.31,10.38-38.66,20.66-58,31q-11,5.89-21.89,11.93c-13.26,7.37-26.45,7.45-39.78.13q-22.94-12.59-46-24.94-31.15-16.69-62.4-33.24c-7.62-4-15.27-8.08-22.82-12.24-8.68-4.78-15.07-12-17.07-22.19-.54-2.74-1.45-4-4.86-3.75-6.47.52-12.8,1.74-19.16,2.8-5.4,1-5.82.86-5.88-4.4-.11-11.77-.09-11.62,11.55-13.2,15.56-2.12,31-4.9,46.63-6.61,11.51-1.26,23-2.54,34.6-3.49Q114.9,304,137,303Zm11.18,15.7c-9.92.74-19.82,1.75-29.76,2.14-16.24.65-32.36,2.56-48.51,4.12-.94.09-2.21-.26-2.49,1s.77,1.87,1.59,2.29c2.8,1.45,5.76,2.6,8.53,4.1,13.72,7.44,27.38,15,41.1,22.43l39,21c12.73,6.85,25.47,13.68,38.14,20.61a5.5,5.5,0,0,0,6,.14q28.22-15.47,56.46-30.66,22.15-12,44.36-23.81,12.93-6.94,25.87-13.92c.86-.47,2.12-.78,1.81-2s-1.51-1.23-2.53-1.17c-3.19.18-6.25-.68-9.38-1-15.5-1.44-31-3-46.52-3.93-16.57-1-33.18-1.87-49.78-2C197.47,318.06,172.83,317.11,148.2,318.7Zm49.63,107.15c4.91.64,9.43-.85,13.78-3.15,8.22-4.35,16.52-8.55,24.71-13,14.62-7.88,29.15-15.91,43.76-23.8,22.06-11.92,44.25-23.62,66.18-35.77,6.52-3.61,11.32-9.24,12.81-17,.29-1.51,2.21-4.19-1.07-4-2.25.11-6.07-3.6-7.08,2a16.75,16.75,0,0,1-8.87,12c-15.16,8.27-30.37,16.41-45.6,24.55-13.17,7-26.41,14-39.59,21-16.26,8.7-32.42,17.6-48.76,26.15a20.27,20.27,0,0,1-19.64-.27q-29.25-15.5-58.44-31.15-37.11-20-74.14-40c-4-2.13-7.37-5.22-8.32-9.51-1.19-5.34-3.61-6.36-8.59-5.11-2.8.7-2.88,1.36-2.33,3.91a25.42,25.42,0,0,0,13,17.47c28.66,15.78,57.5,31.23,86.29,46.77,13.74,7.41,27.48,14.84,41.32,22.07C183.71,422.34,189.84,426.82,197.83,425.85ZM114,264.82V244.88c0-2.18.11-4.14,2.8-4.34,10.4-.78,20.86-2.13,30.6,3.32a17.93,17.93,0,0,1,9,13.08c2.11,11.73,0,22.56-10.37,28.22-5.6,3-11.95,3.89-18.3,3.74-4.41-.1-10,2-12.91-1.06-2.6-2.76-.65-8.26-.79-12.55C113.9,271.81,114,268.31,114,264.82Zm14-.35v10.44c0,6.41,2.22,7.63,8,4.67a10.13,10.13,0,0,0,4.57-5,25.16,25.16,0,0,0,.17-20.65c-1.57-3.83-4.95-6.07-9.49-6-2.26,0-3.34.74-3.28,3.16,0,4.43,0,8.91,0,13.38Zm78,.1V244.63c0-2,0-3.78,2.55-4,10.41-.95,20.86-2.2,30.63,3.11a17.89,17.89,0,0,1,9.17,13c2.27,11.81-.1,22.74-10.08,28.36-5,2.82-10.67,3.49-16.29,3.85-3.81.24-7.65-.13-11.46.08-3.39.2-4.72-.88-4.58-4.47C206.18,277.88,206,271.22,206,264.57Zm29-.5a81.46,81.46,0,0,0-2-9.11,9.69,9.69,0,0,0-8.72-7c-3-.35-4.57.39-4.46,4,.23,8.11,0,16.23.08,24.35,0,4.77,1.49,5.71,6,4.2,6.1-2.07,8.1-8,9.1-16.45Zm-130,.44a26.61,26.61,0,0,1-1.46,11.2c-3.6,10.53-13.07,15.86-25,14.18A21.09,21.09,0,0,1,60,269.17c-.25-7.31-.52-14.54,4.12-21,5.33-7.44,15.68-11,25.15-8.62,10.46,2.65,14.49,10.35,15.68,20A45.85,45.85,0,0,1,105,264.51Zm-31-.62c.06,5,.46,10,3.16,14.36,2.53,4.09,8.73,4.21,10.65-.09,3.91-8.79,4.53-17.87.39-26.89a5.53,5.53,0,0,0-5.51-3.46,6,6,0,0,0-6,3.6A25.65,25.65,0,0,0,74,263.89Zm226,.34c.28,7.37-1.15,14.26-6.49,19.71-7.19,7.33-16.1,7.43-25,4.58-8.46-2.72-12.6-9.68-13.38-18.14-.7-7.55-1-15.21,3.85-22,5.43-7.71,15.79-11.18,25.54-8.73,10.26,2.58,14.52,11,15.43,20.14C300.11,261.22,300,262.73,300,264.23Zm-31-.57c.06,5,.42,10,3,14.38s8.87,4.47,10.88-.11c3.69-8.48,4.33-17.26.62-26-1.13-2.66-2.94-4.15-6.12-4.12s-4.84,1.71-6,4.29A25.8,25.8,0,0,0,269,263.66Zm67,1.07c-.51-9.41,2.13-17.23,10-22.26s16.58-5.1,24.67-.88c7.6,4,10,11.44,10.37,19.67.33,7.78-.25,15.36-5.49,21.63-5.85,7-16.1,9.14-26.07,5.74C342,286.06,336.24,277.7,336,268.87,335.93,267.37,336,265.88,336,264.73Zm31.08-.81c-.46-4.31-.68-8.44-2.62-12.24-1.23-2.4-2.82-3.88-5.78-3.87s-4.74,1.09-5.92,3.63c-4,8.65-3.62,17.3,0,26,1.16,2.83,3.37,3.76,6.37,3.7s4.52-1.84,5.5-4.25c1.62-4.23,1.72-8.75,2.37-13ZM165,264.43c0-7,.07-14,0-21,0-2.51.73-3.59,3.4-3.55,8,.12,16,0,24,0,2,0,3.77,0,3.62,2.76-.12,2.37.81,5.09-2.93,5.78a38.56,38.56,0,0,1-9.94.29c-4.53-.34-4.06,2.48-4.17,5.38s.19,5.27,4.15,4.84c2.47-.26,5,.08,7.48-.08,2.92-.18,4.61.31,4.58,4,0,3.39-1.25,4.47-4.4,4.11a16.64,16.64,0,0,0-4,0c-2.51.33-6.28-1.44-7.27,1.21-1.14,3.06-.47,6.87-.27,10.34.11,1.82,1.94,1.47,3.21,1.49,3.82,0,7.65.13,11.48,0s3,2.6,3.12,4.8.09,4.24-3.23,4.18c-8.48-.15-17-.13-25.45,0-2.74,0-3.38-1.16-3.35-3.61C165,278.4,165,271.42,165,264.43ZM45.74,289a27.54,27.54,0,0,1-11.94-1.89,21.5,21.5,0,0,1-14-24c2.55-15.42,11.42-23,27-23.13h4.49c6.43.11,6.93,1,4.73,6.94-.58,1.59-1.34,2.12-2.85,2-1,0-2,0-3-.08-6-.31-11.39.72-14.14,6.92-3.13,7-3,14,1.77,20.26,3.45,4.46,8.74,4.14,13.79,4,1.87-.06,3.85-.67,4.46,2.45,1.07,5.53.67,6.33-5.08,6.48C49.5,289,48,289,45.74,289Zm282.21-29.56v14c-.07,10.56-5.1,15.9-15.68,16.58a63.66,63.66,0,0,1-6.48,0c-2.16-.09-5.18.78-4.71-3.11.35-2.81,0-6,4.73-5.89,6.53.17,8.14-1.72,8.18-8.27,0-9.3.16-18.61-.06-27.92-.09-3.58.74-5,4.64-4.89,9.39.15,9.39-.06,9.39,9.56ZM207,348.23a23.74,23.74,0,0,1,0-3.48c.34-2.17-1.33-5.41,1.18-6.32a11.42,11.42,0,0,1,10.09.79c2.07,1.34,3.65,3.75,2,5.9-2.68,3.5-1.29,6.55-.18,9.89.45,1.33,2.06,3.25-.85,3.87-2.32.5-3.3-.72-3.48-3a11.37,11.37,0,0,0-.88-2.84c-.34-1-.83-1.93-2.07-1.63-1,.25-.8,1.29-.87,2.06a19,19,0,0,0,0,2c0,1.69.13,3.4-2.39,3.45-2.89,0-2.55-2-2.56-3.76C207,352.87,207,350.55,207,348.23Zm4.92-3.69c.28,1.28-.56,3.36,1.87,3.16,1.81-.15,2.22-1.69,2.2-3.29s-.46-3.14-2.3-3.17c-2.39,0-1.51,2-1.8,3.3ZM176,348.49a15.53,15.53,0,0,1,0-3.48c.56-2.34-1.86-6,1.89-6.83s8.31-.79,10.83,3.16a12.2,12.2,0,0,1,.78,12.75c-2.07,4.09-5.64,4.64-9.6,4.91-3.07.2-4.25-1-4-4A64.23,64.23,0,0,0,176,348.49Zm10-.26a9.18,9.18,0,0,0-.58-4.36c-.71-1.43-1.74-2.73-3.32-2.41-1.76.35-1,2.16-1.07,3.36a28.14,28.14,0,0,0,0,5.43c.22,1.78-1.17,4.84,1.2,5.06s3.25-2.81,3.73-5.11a10,10,0,0,0,0-2Zm52,.06a17.66,17.66,0,0,1,0-3.49c.46-2.24-1.51-5.23,1.59-6.65,3.34-1.53,9.44.16,11.26,3.33,2.32,4,2.93,8.32.56,12.79-2.16,4.08-5.78,4.48-9.71,4.72-2.79.17-4-.84-3.77-3.7C238.13,353,238,350.62,238,348.29Zm5,0a6.65,6.65,0,0,0,0,1.48c.45,1.92-1.23,5.4,1.23,5.5,2.85.12,3.68-3.3,3.76-6a17.69,17.69,0,0,0-.44-4.88c-.42-1.66-1.61-3.21-3.47-2.88s-.94,2.17-1.07,3.37a33.26,33.26,0,0,0-.08,3.41Zm-69.95-.44a17.93,17.93,0,0,1-.27,4c-1.11,3.56-2.55,7-7.09,7.13-3.7.14-6.72-2.62-7.54-7.19a16.45,16.45,0,0,1,.73-8.29C160,340.16,162,338,165.62,338c3.82.07,6.05,2.3,6.85,6C172.78,345.4,172.93,346.88,173.07,347.85Zm-5,.6c-.31-2.49.85-6.5-2.48-6.59s-2.63,3.89-2.58,6.37-1.09,6.81,2.63,6.8C168.89,355.06,167.75,350.92,168.07,348.45Zm24.95,0V344c0-5.85,2.44-7.58,8.29-6,.87.24,1.6.51,1.56,1.54a1.46,1.46,0,0,1-1.48,1.44l-.2,0c-2.26,0-3.3.82-3.25,3.23s1.38,2.7,3.23,2.73a1.5,1.5,0,0,1,1.68,1.3s0,.09,0,.13a1.38,1.38,0,0,1-1.55,1.52c-2.6-.13-3.52,1-3.35,3.58s1.79,2.37,3.49,2.43c1.18,0,2.51.13,2.24,1.84-.21,1.3-1.41,1.1-2.37,1.22-7.84,1-8.3.54-8.3-7.51ZM228.86,359c-4,1-5.31-1.11-4.94-5.43.34-4,0-8,.09-11.93,0-1.39-.46-3.37,1.7-3.5,2.6-.16,5.37-.87,7.77.52.88.51.49,2-.74,2.2-2,.36-3.93.26-3.84,3.28.07,2.73,1.78,2.71,3.63,2.9a1.32,1.32,0,0,1,1.24,1.74c-.28,1.32-1.44,1.2-2.38,1.21-2,0-2.47,1.18-2.44,2.91s.31,2.9,2.37,3c1.31.08,3.56-.6,3.3,1.74-.24,2.08-2.38,1.1-3.73,1.32A13.79,13.79,0,0,1,228.86,359ZM144,348.56c0-6.26,4.1-10.93,9.31-10.6,1.15.07,2.39,0,2.65,1.57s-.79,1.57-2.05,1.8c-4,.71-5,3.49-5,7.29s1.2,6.11,4.86,7c1,.24,2.44-.35,2.22,1.61-.18,1.61-1.33,1.63-2.52,1.74C148.23,359.46,144,354.81,144,348.56Z" fill="#e5d1b2"/></svg>